<svg width="860" height="640" viewBox="0 0 860 640" fill="none" xmlns="http://www.w3.org/2000/svg">
<rect width="860" height="640" fill="white"/>
<rect x="41" y="66" width="240" height="420" fill="#D9D9D9"/>
<rect x="41" y="90" width="240" height="15" fill="#E78F0B"/>
<rect x="41" y="181" width="240" height="15" fill="#E78F0B"/>
<rect x="41" y="272" width="240" height="15" fill="#E78F0B"/>
<rect x="41" y="363" width="240" height="15" fill="#E78F0B"/>
<rect x="41" y="454" width="240" height="15" fill="#E78F0B"/>
<rect x="251" y="66" width="35" height="420" fill="#ED1010"/>
<rect x="41" y="66" width="35" height="420" fill="#ED1010"/>
<rect x="105" y="66" width="35" height="420" fill="#ED1010"/>
<rect x="178" y="66" width="35" height="420" fill="#ED1010"/>
<path d="M378.835 34.4545V35.3068H375.307V34.4545H378.835ZM376.364 41V33.5511C376.364 33.1761 376.452 32.8636 376.628 32.6136C376.804 32.3636 377.033 32.1761 377.314 32.0511C377.595 31.9261 377.892 31.8636 378.205 31.8636C378.452 31.8636 378.653 31.8835 378.81 31.9233C378.966 31.9631 379.082 32 379.159 32.0341L378.869 32.9034C378.818 32.8864 378.747 32.8651 378.656 32.8395C378.568 32.8139 378.452 32.8011 378.307 32.8011C377.974 32.8011 377.734 32.8849 377.587 33.0526C377.442 33.2202 377.369 33.4659 377.369 33.7898V41H376.364ZM381.25 32.2727V41H380.245V32.2727H381.25ZM385.751 41.1364C385.161 41.1364 384.642 40.9957 384.196 40.7145C383.753 40.4332 383.406 40.0398 383.156 39.5341C382.909 39.0284 382.786 38.4375 382.786 37.7614C382.786 37.0795 382.909 36.4844 383.156 35.9759C383.406 35.4673 383.753 35.0724 384.196 34.7912C384.642 34.5099 385.161 34.3693 385.751 34.3693C386.342 34.3693 386.859 34.5099 387.303 34.7912C387.749 35.0724 388.095 35.4673 388.342 35.9759C388.592 36.4844 388.717 37.0795 388.717 37.7614C388.717 38.4375 388.592 39.0284 388.342 39.5341C388.095 40.0398 387.749 40.4332 387.303 40.7145C386.859 40.9957 386.342 41.1364 385.751 41.1364ZM385.751 40.233C386.2 40.233 386.57 40.1179 386.859 39.8878C387.149 39.6577 387.364 39.3551 387.503 38.9801C387.642 38.6051 387.712 38.1989 387.712 37.7614C387.712 37.3239 387.642 36.9162 387.503 36.5384C387.364 36.1605 387.149 35.8551 386.859 35.6222C386.57 35.3892 386.2 35.2727 385.751 35.2727C385.303 35.2727 384.933 35.3892 384.643 35.6222C384.354 35.8551 384.139 36.1605 384 36.5384C383.861 36.9162 383.791 37.3239 383.791 37.7614C383.791 38.1989 383.861 38.6051 384 38.9801C384.139 39.3551 384.354 39.6577 384.643 39.8878C384.933 40.1179 385.303 40.233 385.751 40.233ZM392.912 41.1364C392.321 41.1364 391.802 40.9957 391.356 40.7145C390.913 40.4332 390.566 40.0398 390.316 39.5341C390.069 39.0284 389.946 38.4375 389.946 37.7614C389.946 37.0795 390.069 36.4844 390.316 35.9759C390.566 35.4673 390.913 35.0724 391.356 34.7912C391.802 34.5099 392.321 34.3693 392.912 34.3693C393.502 34.3693 394.02 34.5099 394.463 34.7912C394.909 35.0724 395.255 35.4673 395.502 35.9759C395.752 36.4844 395.877 37.0795 395.877 37.7614C395.877 38.4375 395.752 39.0284 395.502 39.5341C395.255 40.0398 394.909 40.4332 394.463 40.7145C394.02 40.9957 393.502 41.1364 392.912 41.1364ZM392.912 40.233C393.36 40.233 393.73 40.1179 394.02 39.8878C394.309 39.6577 394.524 39.3551 394.663 38.9801C394.802 38.6051 394.872 38.1989 394.872 37.7614C394.872 37.3239 394.802 36.9162 394.663 36.5384C394.524 36.1605 394.309 35.8551 394.02 35.6222C393.73 35.3892 393.36 35.2727 392.912 35.2727C392.463 35.2727 392.093 35.3892 391.804 35.6222C391.514 35.8551 391.299 36.1605 391.16 36.5384C391.021 36.9162 390.951 37.3239 390.951 37.7614C390.951 38.1989 391.021 38.6051 391.16 38.9801C391.299 39.3551 391.514 39.6577 391.804 39.8878C392.093 40.1179 392.463 40.233 392.912 40.233ZM397.413 41V34.4545H398.384V35.4432H398.452C398.572 35.1193 398.788 34.8565 399.1 34.6548C399.413 34.4531 399.765 34.3523 400.157 34.3523C400.231 34.3523 400.323 34.3537 400.434 34.3565C400.545 34.3594 400.629 34.3636 400.685 34.3693V35.392C400.651 35.3835 400.573 35.3707 400.451 35.3537C400.332 35.3338 400.205 35.3239 400.072 35.3239C399.754 35.3239 399.469 35.3906 399.219 35.5241C398.972 35.6548 398.776 35.8366 398.631 36.0696C398.489 36.2997 398.418 36.5625 398.418 36.858V41H397.413ZM375.699 54.2102V53.3409L379.534 47.2727H380.165V48.6193H379.739L376.841 53.2045V53.2727H382.006V54.2102H375.699ZM379.807 56V53.946V53.5412V47.2727H380.812V56H379.807ZM383.603 56V55.233L386.483 52.0795C386.821 51.7102 387.1 51.3892 387.319 51.1165C387.537 50.8409 387.699 50.5824 387.804 50.3409C387.912 50.0966 387.966 49.8409 387.966 49.5739C387.966 49.267 387.892 49.0014 387.745 48.777C387.6 48.5526 387.401 48.3793 387.148 48.2571C386.895 48.1349 386.611 48.0739 386.296 48.0739C385.961 48.0739 385.668 48.1435 385.418 48.2827C385.171 48.419 384.979 48.6108 384.843 48.858C384.709 49.1051 384.642 49.3949 384.642 49.7273H383.637C383.637 49.2159 383.755 48.767 383.99 48.3807C384.226 47.9943 384.547 47.6932 384.953 47.4773C385.363 47.2614 385.821 47.1534 386.33 47.1534C386.841 47.1534 387.294 47.2614 387.689 47.4773C388.084 47.6932 388.394 47.9844 388.618 48.3509C388.843 48.7173 388.955 49.125 388.955 49.5739C388.955 49.8949 388.897 50.2088 388.78 50.5156C388.667 50.8196 388.468 51.1591 388.184 51.5341C387.902 51.9062 387.512 52.3608 387.012 52.8977L385.051 54.9943V55.0625H389.108V56H383.603ZM393.715 56.1193C393.073 56.1193 392.526 55.9446 392.074 55.5952C391.623 55.2429 391.277 54.733 391.039 54.0653C390.8 53.3949 390.681 52.5852 390.681 51.6364C390.681 50.6932 390.8 49.8878 391.039 49.2202C391.28 48.5497 391.627 48.0384 392.078 47.6861C392.533 47.331 393.078 47.1534 393.715 47.1534C394.351 47.1534 394.895 47.331 395.347 47.6861C395.801 48.0384 396.148 48.5497 396.387 49.2202C396.628 49.8878 396.749 50.6932 396.749 51.6364C396.749 52.5852 396.63 53.3949 396.391 54.0653C396.152 54.733 395.807 55.2429 395.355 55.5952C394.904 55.9446 394.357 56.1193 393.715 56.1193ZM393.715 55.1818C394.351 55.1818 394.846 54.875 395.198 54.2614C395.55 53.6477 395.726 52.7727 395.726 51.6364C395.726 50.8807 395.645 50.2372 395.483 49.706C395.324 49.1747 395.094 48.7699 394.793 48.4915C394.495 48.2131 394.135 48.0739 393.715 48.0739C393.084 48.0739 392.591 48.3849 392.236 49.0071C391.881 49.6264 391.703 50.5028 391.703 51.6364C391.703 52.392 391.783 53.0341 391.942 53.5625C392.101 54.0909 392.33 54.4929 392.628 54.7685C392.929 55.044 393.292 55.1818 393.715 55.1818ZM403.431 54.0909L403.499 52.2159L401.914 53.2216L401.505 52.5057L403.175 51.6364L401.505 50.767L401.914 50.0511L403.499 51.0568L403.431 49.1818H404.249L404.181 51.0568L405.766 50.0511L406.175 50.767L404.505 51.6364L406.175 52.5057L405.766 53.2216L404.181 52.2159L404.249 54.0909H403.431ZM410.914 54.2102V53.3409L414.749 47.2727H415.38V48.6193H414.953L412.056 53.2045V53.2727H417.221V54.2102H410.914ZM415.022 56V53.946V53.5412V47.2727H416.027V56H415.022ZM422.619 50.8352V49.9148H427.869V50.8352H422.619ZM422.619 53.358V52.4375H427.869V53.358H422.619ZM436.546 47.2727V56H435.489V48.3807H435.438L433.307 49.7955V48.7216L435.489 47.2727H436.546ZM441.953 56.1193C441.596 56.1136 441.238 56.0455 440.88 55.9148C440.522 55.7841 440.195 55.5639 439.9 55.2543C439.604 54.9418 439.367 54.5199 439.188 53.9886C439.009 53.4545 438.919 52.7841 438.919 51.9773C438.919 51.2045 438.992 50.5199 439.137 49.9233C439.282 49.3239 439.492 48.8196 439.767 48.4105C440.043 47.9986 440.375 47.6861 440.765 47.473C441.157 47.2599 441.598 47.1534 442.09 47.1534C442.578 47.1534 443.013 47.2514 443.394 47.4474C443.777 47.6406 444.09 47.9105 444.331 48.2571C444.573 48.6037 444.729 49.0028 444.8 49.4545H443.76C443.664 49.0625 443.476 48.7372 443.198 48.4787C442.919 48.2202 442.55 48.0909 442.09 48.0909C441.414 48.0909 440.881 48.3849 440.492 48.973C440.105 49.5611 439.911 50.3864 439.908 51.4489H439.976C440.135 51.2074 440.324 51.0014 440.543 50.831C440.765 50.6577 441.009 50.5241 441.276 50.4304C441.543 50.3366 441.826 50.2898 442.124 50.2898C442.624 50.2898 443.081 50.4148 443.496 50.6648C443.911 50.9119 444.243 51.2543 444.493 51.6918C444.743 52.1264 444.868 52.625 444.868 53.1875C444.868 53.7273 444.748 54.2216 444.506 54.6705C444.265 55.1165 443.925 55.4716 443.488 55.7358C443.053 55.9972 442.542 56.125 441.953 56.1193ZM441.953 55.1818C442.311 55.1818 442.632 55.0923 442.917 54.9134C443.203 54.7344 443.429 54.4943 443.594 54.1932C443.762 53.892 443.846 53.5568 443.846 53.1875C443.846 52.8267 443.765 52.4986 443.603 52.2031C443.444 51.9048 443.223 51.6676 442.942 51.4915C442.664 51.3153 442.346 51.2273 441.988 51.2273C441.718 51.2273 441.466 51.2812 441.233 51.3892C441 51.4943 440.796 51.6392 440.62 51.8239C440.446 52.0085 440.31 52.2202 440.211 52.4588C440.111 52.6946 440.061 52.9432 440.061 53.2045C440.061 53.5511 440.142 53.875 440.304 54.1761C440.469 54.4773 440.694 54.7202 440.978 54.9048C441.265 55.0895 441.59 55.1818 441.953 55.1818ZM449.339 56.1193C448.754 56.1193 448.237 56.0156 447.788 55.8082C447.342 55.598 446.994 55.3097 446.744 54.9432C446.494 54.5739 446.371 54.1534 446.374 53.6818C446.371 53.3125 446.443 52.9716 446.591 52.6591C446.739 52.3437 446.94 52.081 447.196 51.8707C447.455 51.6577 447.743 51.5227 448.061 51.4659V51.4148C447.643 51.3068 447.311 51.0724 447.064 50.7116C446.817 50.348 446.695 49.9347 446.697 49.4716C446.695 49.0284 446.807 48.6321 447.034 48.2827C447.261 47.9332 447.574 47.6577 447.972 47.456C448.372 47.2543 448.828 47.1534 449.339 47.1534C449.845 47.1534 450.297 47.2543 450.695 47.456C451.092 47.6577 451.405 47.9332 451.632 48.2827C451.862 48.6321 451.979 49.0284 451.982 49.4716C451.979 49.9347 451.852 50.348 451.602 50.7116C451.355 51.0724 451.027 51.3068 450.618 51.4148V51.4659C450.933 51.5227 451.217 51.6577 451.47 51.8707C451.723 52.081 451.925 52.3437 452.075 52.6591C452.226 52.9716 452.303 53.3125 452.305 53.6818C452.303 54.1534 452.175 54.5739 451.922 54.9432C451.672 55.3097 451.324 55.598 450.878 55.8082C450.435 56.0156 449.922 56.1193 449.339 56.1193ZM449.339 55.1818C449.734 55.1818 450.075 55.1179 450.362 54.9901C450.649 54.8622 450.871 54.6818 451.027 54.4489C451.183 54.2159 451.263 53.9432 451.266 53.6307C451.263 53.3011 451.178 53.0099 451.01 52.7571C450.842 52.5043 450.614 52.3054 450.324 52.1605C450.037 52.0156 449.709 51.9432 449.339 51.9432C448.967 51.9432 448.635 52.0156 448.342 52.1605C448.053 52.3054 447.824 52.5043 447.656 52.7571C447.491 53.0099 447.411 53.3011 447.413 53.6307C447.411 53.9432 447.486 54.2159 447.639 54.4489C447.795 54.6818 448.018 54.8622 448.308 54.9901C448.598 55.1179 448.942 55.1818 449.339 55.1818ZM449.339 51.0398C449.652 51.0398 449.929 50.9773 450.17 50.8523C450.415 50.7273 450.607 50.5526 450.746 50.3281C450.885 50.1037 450.956 49.8409 450.959 49.5398C450.956 49.2443 450.886 48.9872 450.75 48.7685C450.614 48.5469 450.425 48.3764 450.183 48.2571C449.942 48.1349 449.661 48.0739 449.339 48.0739C449.013 48.0739 448.727 48.1349 448.483 48.2571C448.239 48.3764 448.05 48.5469 447.916 48.7685C447.783 48.9872 447.717 49.2443 447.72 49.5398C447.717 49.8409 447.784 50.1037 447.92 50.3281C448.06 50.5526 448.251 50.7273 448.496 50.8523C448.74 50.9773 449.021 51.0398 449.339 51.0398ZM456.785 56.1193C456.143 56.1193 455.596 55.9446 455.145 55.5952C454.693 55.2429 454.348 54.733 454.109 54.0653C453.87 53.3949 453.751 52.5852 453.751 51.6364C453.751 50.6932 453.87 49.8878 454.109 49.2202C454.35 48.5497 454.697 48.0384 455.149 47.6861C455.603 47.331 456.149 47.1534 456.785 47.1534C457.422 47.1534 457.966 47.331 458.417 47.6861C458.872 48.0384 459.218 48.5497 459.457 49.2202C459.699 49.8878 459.819 50.6932 459.819 51.6364C459.819 52.5852 459.7 53.3949 459.461 54.0653C459.223 54.733 458.877 55.2429 458.426 55.5952C457.974 55.9446 457.427 56.1193 456.785 56.1193ZM456.785 55.1818C457.422 55.1818 457.916 54.875 458.268 54.2614C458.62 53.6477 458.797 52.7727 458.797 51.6364C458.797 50.8807 458.716 50.2372 458.554 49.706C458.395 49.1747 458.164 48.7699 457.863 48.4915C457.565 48.2131 457.206 48.0739 456.785 48.0739C456.154 48.0739 455.662 48.3849 455.306 49.0071C454.951 49.6264 454.774 50.5028 454.774 51.6364C454.774 52.392 454.853 53.0341 455.012 53.5625C455.172 54.0909 455.4 54.4929 455.699 54.7685C456 55.044 456.362 55.1818 456.785 55.1818ZM375.699 69.2102V68.3409L379.534 62.2727H380.165V63.6193H379.739L376.841 68.2045V68.2727H382.006V69.2102H375.699ZM379.807 71V68.946V68.5412V62.2727H380.812V71H379.807ZM387.131 71V62.2727H388.137V65.4943H388.222C388.296 65.3807 388.398 65.2358 388.529 65.0597C388.662 64.8807 388.853 64.7216 389.1 64.5824C389.35 64.4403 389.688 64.3693 390.114 64.3693C390.665 64.3693 391.151 64.5071 391.571 64.7827C391.992 65.0582 392.32 65.4489 392.556 65.9545C392.792 66.4602 392.909 67.0568 392.909 67.7443C392.909 68.4375 392.792 69.0384 392.556 69.5469C392.32 70.0526 391.993 70.4446 391.576 70.723C391.158 70.9986 390.676 71.1364 390.131 71.1364C389.711 71.1364 389.374 71.0668 389.121 70.9276C388.868 70.7855 388.674 70.625 388.537 70.446C388.401 70.2642 388.296 70.1136 388.222 69.9943H388.103V71H387.131ZM388.12 67.7273C388.12 68.2216 388.192 68.6577 388.337 69.0355C388.482 69.4105 388.694 69.7045 388.972 69.9176C389.25 70.1278 389.591 70.233 389.995 70.233C390.415 70.233 390.766 70.1222 391.047 69.9006C391.331 69.6761 391.544 69.375 391.686 68.9972C391.831 68.6165 391.904 68.1932 391.904 67.7273C391.904 67.267 391.833 66.8523 391.691 66.483C391.551 66.1108 391.34 65.8168 391.056 65.6009C390.775 65.3821 390.421 65.2727 389.995 65.2727C389.586 65.2727 389.242 65.3764 388.963 65.5838C388.685 65.7884 388.475 66.0753 388.333 66.4446C388.191 66.8111 388.12 67.2386 388.12 67.7273ZM397.107 71.1364C396.516 71.1364 395.998 70.9957 395.551 70.7145C395.108 70.4332 394.762 70.0398 394.512 69.5341C394.265 69.0284 394.141 68.4375 394.141 67.7614C394.141 67.0795 394.265 66.4844 394.512 65.9759C394.762 65.4673 395.108 65.0724 395.551 64.7912C395.998 64.5099 396.516 64.3693 397.107 64.3693C397.698 64.3693 398.215 64.5099 398.658 64.7912C399.104 65.0724 399.451 65.4673 399.698 65.9759C399.948 66.4844 400.073 67.0795 400.073 67.7614C400.073 68.4375 399.948 69.0284 399.698 69.5341C399.451 70.0398 399.104 70.4332 398.658 70.7145C398.215 70.9957 397.698 71.1364 397.107 71.1364ZM397.107 70.233C397.556 70.233 397.925 70.1179 398.215 69.8878C398.505 69.6577 398.719 69.3551 398.858 68.9801C398.998 68.6051 399.067 68.1989 399.067 67.7614C399.067 67.3239 398.998 66.9162 398.858 66.5384C398.719 66.1605 398.505 65.8551 398.215 65.6222C397.925 65.3892 397.556 65.2727 397.107 65.2727C396.658 65.2727 396.289 65.3892 395.999 65.6222C395.709 65.8551 395.495 66.1605 395.355 66.5384C395.216 66.9162 395.147 67.3239 395.147 67.7614C395.147 68.1989 395.216 68.6051 395.355 68.9801C395.495 69.3551 395.709 69.6577 395.999 69.8878C396.289 70.1179 396.658 70.233 397.107 70.233ZM403.534 71.1534C403.119 71.1534 402.743 71.0753 402.405 70.919C402.067 70.7599 401.798 70.5312 401.599 70.233C401.401 69.9318 401.301 69.5682 401.301 69.142C401.301 68.767 401.375 68.4631 401.523 68.2301C401.67 67.9943 401.868 67.8097 402.115 67.6761C402.362 67.5426 402.635 67.4432 402.933 67.3778C403.234 67.3097 403.537 67.2557 403.841 67.2159C404.239 67.1648 404.561 67.1264 404.808 67.1009C405.058 67.0724 405.24 67.0256 405.354 66.9602C405.47 66.8949 405.528 66.7812 405.528 66.6193V66.5852C405.528 66.1648 405.413 65.8381 405.183 65.6051C404.956 65.3722 404.611 65.2557 404.148 65.2557C403.668 65.2557 403.291 65.3608 403.018 65.571C402.746 65.7812 402.554 66.0057 402.443 66.2443L401.489 65.9034C401.659 65.5057 401.886 65.196 402.17 64.9744C402.457 64.75 402.77 64.5937 403.108 64.5057C403.449 64.4148 403.784 64.3693 404.114 64.3693C404.324 64.3693 404.565 64.3949 404.838 64.446C405.114 64.4943 405.379 64.5952 405.635 64.7486C405.893 64.902 406.108 65.1335 406.278 65.4432C406.449 65.7528 406.534 66.1676 406.534 66.6875V71H405.528V70.1136H405.477C405.409 70.2557 405.295 70.4077 405.136 70.5696C404.977 70.7315 404.766 70.8693 404.501 70.983C404.237 71.0966 403.915 71.1534 403.534 71.1534ZM403.688 70.25C404.085 70.25 404.42 70.1719 404.693 70.0156C404.969 69.8594 405.176 69.6577 405.315 69.4105C405.457 69.1634 405.528 68.9034 405.528 68.6307V67.7102C405.486 67.7614 405.392 67.8082 405.247 67.8509C405.105 67.8906 404.94 67.9261 404.753 67.9574C404.568 67.9858 404.388 68.0114 404.212 68.0341C404.038 68.054 403.898 68.071 403.79 68.0852C403.528 68.1193 403.284 68.1747 403.057 68.2514C402.832 68.3253 402.651 68.4375 402.511 68.5881C402.375 68.7358 402.307 68.9375 402.307 69.1932C402.307 69.5426 402.436 69.8068 402.695 69.9858C402.956 70.1619 403.287 70.25 403.688 70.25ZM408.37 71V64.4545H409.341V65.4432H409.409C409.529 65.1193 409.745 64.8565 410.057 64.6548C410.37 64.4531 410.722 64.3523 411.114 64.3523C411.188 64.3523 411.28 64.3537 411.391 64.3565C411.502 64.3594 411.586 64.3636 411.642 64.3693V65.392C411.608 65.3835 411.53 65.3707 411.408 65.3537C411.289 65.3338 411.162 65.3239 411.029 65.3239C410.711 65.3239 410.426 65.3906 410.176 65.5241C409.929 65.6548 409.733 65.8366 409.588 66.0696C409.446 66.2997 409.375 66.5625 409.375 66.858V71H408.37ZM415.107 71.1364C414.561 71.1364 414.08 70.9986 413.662 70.723C413.245 70.4446 412.918 70.0526 412.682 69.5469C412.446 69.0384 412.328 68.4375 412.328 67.7443C412.328 67.0568 412.446 66.4602 412.682 65.9545C412.918 65.4489 413.246 65.0582 413.667 64.7827C414.087 64.5071 414.573 64.3693 415.124 64.3693C415.55 64.3693 415.887 64.4403 416.134 64.5824C416.384 64.7216 416.574 64.8807 416.705 65.0597C416.838 65.2358 416.942 65.3807 417.016 65.4943H417.101V62.2727H418.107V71H417.135V69.9943H417.016C416.942 70.1136 416.837 70.2642 416.701 70.446C416.564 70.625 416.37 70.7855 416.117 70.9276C415.864 71.0668 415.527 71.1364 415.107 71.1364ZM415.243 70.233C415.647 70.233 415.988 70.1278 416.266 69.9176C416.544 69.7045 416.756 69.4105 416.901 69.0355C417.046 68.6577 417.118 68.2216 417.118 67.7273C417.118 67.2386 417.047 66.8111 416.905 66.4446C416.763 66.0753 416.553 65.7884 416.275 65.5838C415.996 65.3764 415.652 65.2727 415.243 65.2727C414.817 65.2727 414.462 65.3821 414.178 65.6009C413.897 65.8168 413.685 66.1108 413.543 66.483C413.404 66.8523 413.334 67.267 413.334 67.7273C413.334 68.1932 413.405 68.6165 413.547 68.9972C413.692 69.375 413.905 69.6761 414.186 69.9006C414.471 70.1222 414.823 70.233 415.243 70.233ZM424.725 65.9205L423.821 66.1761C423.765 66.0256 423.681 65.8793 423.57 65.7372C423.462 65.5923 423.314 65.473 423.127 65.3793C422.939 65.2855 422.699 65.2386 422.407 65.2386C422.006 65.2386 421.672 65.331 421.405 65.5156C421.141 65.6974 421.009 65.929 421.009 66.2102C421.009 66.4602 421.1 66.6577 421.282 66.8026C421.463 66.9474 421.748 67.0682 422.134 67.1648L423.105 67.4034C423.691 67.5455 424.127 67.7628 424.414 68.0554C424.701 68.3452 424.844 68.7187 424.844 69.1761C424.844 69.5511 424.736 69.8864 424.52 70.1818C424.307 70.4773 424.009 70.7102 423.625 70.8807C423.242 71.0511 422.796 71.1364 422.287 71.1364C421.62 71.1364 421.067 70.9915 420.63 70.7017C420.192 70.4119 419.915 69.9886 419.799 69.4318L420.753 69.1932C420.844 69.5455 421.016 69.8097 421.269 69.9858C421.525 70.1619 421.858 70.25 422.27 70.25C422.739 70.25 423.111 70.1506 423.387 69.9517C423.665 69.75 423.804 69.5085 423.804 69.2273C423.804 69 423.725 68.8097 423.566 68.6562C423.407 68.5 423.162 68.3835 422.833 68.3068L421.742 68.0511C421.142 67.9091 420.702 67.6889 420.421 67.3906C420.142 67.0895 420.003 66.7131 420.003 66.2614C420.003 65.892 420.107 65.5653 420.314 65.2812C420.525 64.9972 420.81 64.7741 421.171 64.6122C421.534 64.4503 421.946 64.3693 422.407 64.3693C423.054 64.3693 423.563 64.5114 423.932 64.7955C424.304 65.0795 424.569 65.4545 424.725 65.9205Z" fill="black"/>
<path d="M376.926 90.2727V99H375.92V90.2727H376.926ZM381.512 99.1364C380.882 99.1364 380.338 98.9972 379.88 98.7188C379.426 98.4375 379.075 98.0455 378.828 97.5426C378.583 97.0369 378.461 96.4489 378.461 95.7784C378.461 95.108 378.583 94.517 378.828 94.0057C379.075 93.4915 379.419 93.0909 379.859 92.804C380.302 92.5142 380.819 92.3693 381.41 92.3693C381.751 92.3693 382.088 92.4261 382.42 92.5398C382.752 92.6534 383.055 92.8381 383.328 93.0938C383.6 93.3466 383.818 93.6818 383.98 94.0994C384.142 94.517 384.223 95.0312 384.223 95.642V96.0682H379.177V95.1989H383.2C383.2 94.8295 383.126 94.5 382.978 94.2102C382.833 93.9205 382.626 93.6918 382.356 93.5241C382.089 93.3565 381.774 93.2727 381.41 93.2727C381.01 93.2727 380.663 93.3722 380.37 93.571C380.081 93.767 379.858 94.0227 379.701 94.3381C379.545 94.6534 379.467 94.9915 379.467 95.3523V95.9318C379.467 96.4261 379.552 96.8452 379.723 97.1889C379.896 97.5298 380.136 97.7898 380.443 97.9688C380.75 98.1449 381.106 98.233 381.512 98.233C381.777 98.233 382.015 98.196 382.228 98.1222C382.444 98.0455 382.63 97.9318 382.787 97.7812C382.943 97.6278 383.064 97.4375 383.149 97.2102L384.12 97.483C384.018 97.8125 383.846 98.1023 383.605 98.3523C383.363 98.5994 383.065 98.7926 382.71 98.9318C382.355 99.0682 381.956 99.1364 381.512 99.1364ZM388.395 101.591C387.909 101.591 387.491 101.528 387.142 101.403C386.792 101.281 386.501 101.119 386.268 100.918C386.038 100.719 385.855 100.506 385.718 100.278L386.52 99.7159C386.61 99.8352 386.725 99.9716 386.865 100.125C387.004 100.281 387.194 100.416 387.436 100.53C387.68 100.646 388 100.705 388.395 100.705C388.923 100.705 389.359 100.577 389.703 100.321C390.047 100.065 390.218 99.6648 390.218 99.1193V97.7898H390.133C390.059 97.9091 389.954 98.0568 389.818 98.233C389.684 98.4062 389.491 98.5611 389.238 98.6974C388.988 98.831 388.65 98.8977 388.224 98.8977C387.696 98.8977 387.221 98.7727 386.801 98.5227C386.383 98.2727 386.052 97.9091 385.808 97.4318C385.566 96.9545 385.446 96.375 385.446 95.6932C385.446 95.0227 385.564 94.4389 385.799 93.9418C386.035 93.4418 386.363 93.0554 386.784 92.7827C387.204 92.5071 387.69 92.3693 388.241 92.3693C388.667 92.3693 389.005 92.4403 389.255 92.5824C389.508 92.7216 389.701 92.8807 389.835 93.0597C389.971 93.2358 390.076 93.3807 390.15 93.4943H390.252V92.4545H391.224V99.1875C391.224 99.75 391.096 100.207 390.841 100.56C390.588 100.915 390.247 101.175 389.818 101.339C389.392 101.507 388.917 101.591 388.395 101.591ZM388.36 97.9943C388.764 97.9943 389.105 97.902 389.383 97.7173C389.662 97.5327 389.873 97.267 390.018 96.9205C390.163 96.5739 390.235 96.1591 390.235 95.6761C390.235 95.2045 390.164 94.7884 390.022 94.4276C389.88 94.0668 389.67 93.7841 389.392 93.5795C389.113 93.375 388.77 93.2727 388.36 93.2727C387.934 93.2727 387.579 93.3807 387.295 93.5966C387.014 93.8125 386.802 94.1023 386.66 94.4659C386.521 94.8295 386.451 95.233 386.451 95.6761C386.451 96.1307 386.522 96.5327 386.664 96.8821C386.809 97.2287 387.022 97.5014 387.304 97.7003C387.588 97.8963 387.94 97.9943 388.36 97.9943ZM397.701 93.9205L396.798 94.1761C396.741 94.0256 396.657 93.8793 396.547 93.7372C396.439 93.5923 396.291 93.473 396.103 93.3793C395.916 93.2855 395.676 93.2386 395.383 93.2386C394.983 93.2386 394.649 93.331 394.382 93.5156C394.118 93.6974 393.985 93.929 393.985 94.2102C393.985 94.4602 394.076 94.6577 394.258 94.8026C394.44 94.9474 394.724 95.0682 395.11 95.1648L396.082 95.4034C396.667 95.5455 397.103 95.7628 397.39 96.0554C397.677 96.3452 397.821 96.7187 397.821 97.1761C397.821 97.5511 397.713 97.8864 397.497 98.1818C397.284 98.4773 396.985 98.7102 396.602 98.8807C396.218 99.0511 395.772 99.1364 395.264 99.1364C394.596 99.1364 394.044 98.9915 393.606 98.7017C393.169 98.4119 392.892 97.9886 392.775 97.4318L393.73 97.1932C393.821 97.5455 393.993 97.8097 394.245 97.9858C394.501 98.1619 394.835 98.25 395.247 98.25C395.716 98.25 396.088 98.1506 396.363 97.9517C396.642 97.75 396.781 97.5085 396.781 97.2273C396.781 97 396.701 96.8097 396.542 96.6562C396.383 96.5 396.139 96.3835 395.809 96.3068L394.718 96.0511C394.119 95.9091 393.679 95.6889 393.397 95.3906C393.119 95.0895 392.98 94.7131 392.98 94.2614C392.98 93.892 393.083 93.5653 393.291 93.2812C393.501 92.9972 393.787 92.7741 394.147 92.6122C394.511 92.4503 394.923 92.3693 395.383 92.3693C396.031 92.3693 396.539 92.5114 396.909 92.7955C397.281 93.0795 397.545 93.4545 397.701 93.9205ZM375.903 114V113.233L378.784 110.08C379.122 109.71 379.401 109.389 379.619 109.116C379.838 108.841 380 108.582 380.105 108.341C380.213 108.097 380.267 107.841 380.267 107.574C380.267 107.267 380.193 107.001 380.045 106.777C379.901 106.553 379.702 106.379 379.449 106.257C379.196 106.135 378.912 106.074 378.597 106.074C378.261 106.074 377.969 106.143 377.719 106.283C377.472 106.419 377.28 106.611 377.143 106.858C377.01 107.105 376.943 107.395 376.943 107.727H375.938C375.938 107.216 376.055 106.767 376.291 106.381C376.527 105.994 376.848 105.693 377.254 105.477C377.663 105.261 378.122 105.153 378.631 105.153C379.142 105.153 379.595 105.261 379.99 105.477C380.385 105.693 380.695 105.984 380.919 106.351C381.143 106.717 381.256 107.125 381.256 107.574C381.256 107.895 381.197 108.209 381.081 108.516C380.967 108.82 380.768 109.159 380.484 109.534C380.203 109.906 379.812 110.361 379.312 110.898L377.352 112.994V113.062H381.409V114H375.903ZM382.777 112.21V111.341L386.612 105.273H387.243V106.619H386.817L383.919 111.205V111.273H389.084V112.21H382.777ZM386.885 114V111.946V111.541V105.273H387.891V114H386.885ZM393.527 114.119C392.885 114.119 392.338 113.945 391.887 113.595C391.435 113.243 391.09 112.733 390.851 112.065C390.613 111.395 390.493 110.585 390.493 109.636C390.493 108.693 390.613 107.888 390.851 107.22C391.093 106.55 391.439 106.038 391.891 105.686C392.346 105.331 392.891 105.153 393.527 105.153C394.164 105.153 394.708 105.331 395.159 105.686C395.614 106.038 395.961 106.55 396.199 107.22C396.441 107.888 396.561 108.693 396.561 109.636C396.561 110.585 396.442 111.395 396.203 112.065C395.965 112.733 395.62 113.243 395.168 113.595C394.716 113.945 394.169 114.119 393.527 114.119ZM393.527 113.182C394.164 113.182 394.658 112.875 395.01 112.261C395.363 111.648 395.539 110.773 395.539 109.636C395.539 108.881 395.458 108.237 395.296 107.706C395.137 107.175 394.907 106.77 394.605 106.491C394.307 106.213 393.948 106.074 393.527 106.074C392.897 106.074 392.404 106.385 392.049 107.007C391.694 107.626 391.516 108.503 391.516 109.636C391.516 110.392 391.596 111.034 391.755 111.562C391.914 112.091 392.142 112.493 392.441 112.768C392.742 113.044 393.104 113.182 393.527 113.182ZM403.243 112.091L403.311 110.216L401.726 111.222L401.317 110.506L402.988 109.636L401.317 108.767L401.726 108.051L403.311 109.057L403.243 107.182H404.061L403.993 109.057L405.578 108.051L405.988 108.767L404.317 109.636L405.988 110.506L405.578 111.222L403.993 110.216L404.061 112.091H403.243ZM413.658 114.119C413.158 114.119 412.708 114.02 412.307 113.821C411.907 113.622 411.586 113.349 411.344 113.003C411.103 112.656 410.971 112.261 410.948 111.818H411.971C412.01 112.213 412.189 112.54 412.507 112.798C412.828 113.054 413.212 113.182 413.658 113.182C414.016 113.182 414.334 113.098 414.613 112.93C414.894 112.763 415.114 112.533 415.273 112.24C415.435 111.945 415.516 111.611 415.516 111.239C415.516 110.858 415.432 110.518 415.265 110.22C415.1 109.919 414.873 109.682 414.583 109.509C414.293 109.335 413.962 109.247 413.59 109.244C413.323 109.241 413.049 109.283 412.767 109.368C412.486 109.45 412.255 109.557 412.073 109.688L411.084 109.568L411.613 105.273H416.147V106.21H412.499L412.192 108.784H412.243C412.422 108.642 412.647 108.524 412.917 108.43C413.186 108.337 413.468 108.29 413.76 108.29C414.294 108.29 414.77 108.418 415.188 108.673C415.608 108.926 415.938 109.273 416.176 109.713C416.418 110.153 416.539 110.656 416.539 111.222C416.539 111.778 416.414 112.276 416.164 112.713C415.917 113.148 415.576 113.491 415.141 113.744C414.706 113.994 414.212 114.119 413.658 114.119ZM422.033 108.835V107.915H427.283V108.835H422.033ZM422.033 111.358V110.438H427.283V111.358H422.033ZM435.96 105.273V114H434.903V106.381H434.852L432.721 107.795V106.722L434.903 105.273H435.96ZM438.47 114V113.233L441.35 110.08C441.689 109.71 441.967 109.389 442.186 109.116C442.404 108.841 442.566 108.582 442.672 108.341C442.779 108.097 442.833 107.841 442.833 107.574C442.833 107.267 442.76 107.001 442.612 106.777C442.467 106.553 442.268 106.379 442.015 106.257C441.762 106.135 441.478 106.074 441.163 106.074C440.828 106.074 440.535 106.143 440.285 106.283C440.038 106.419 439.846 106.611 439.71 106.858C439.576 107.105 439.51 107.395 439.51 107.727H438.504C438.504 107.216 438.622 106.767 438.858 106.381C439.093 105.994 439.414 105.693 439.821 105.477C440.23 105.261 440.689 105.153 441.197 105.153C441.708 105.153 442.162 105.261 442.556 105.477C442.951 105.693 443.261 105.984 443.485 106.351C443.71 106.717 443.822 107.125 443.822 107.574C443.822 107.895 443.764 108.209 443.647 108.516C443.534 108.82 443.335 109.159 443.051 109.534C442.77 109.906 442.379 110.361 441.879 110.898L439.919 112.994V113.062H443.975V114H438.47ZM448.582 114.119C447.94 114.119 447.393 113.945 446.941 113.595C446.49 113.243 446.145 112.733 445.906 112.065C445.667 111.395 445.548 110.585 445.548 109.636C445.548 108.693 445.667 107.888 445.906 107.22C446.147 106.55 446.494 106.038 446.946 105.686C447.4 105.331 447.946 105.153 448.582 105.153C449.218 105.153 449.762 105.331 450.214 105.686C450.669 106.038 451.015 106.55 451.254 107.22C451.495 107.888 451.616 108.693 451.616 109.636C451.616 110.585 451.497 111.395 451.258 112.065C451.02 112.733 450.674 113.243 450.223 113.595C449.771 113.945 449.224 114.119 448.582 114.119ZM448.582 113.182C449.218 113.182 449.713 112.875 450.065 112.261C450.417 111.648 450.593 110.773 450.593 109.636C450.593 108.881 450.512 108.237 450.35 107.706C450.191 107.175 449.961 106.77 449.66 106.491C449.362 106.213 449.002 106.074 448.582 106.074C447.951 106.074 447.458 106.385 447.103 107.007C446.748 107.626 446.571 108.503 446.571 109.636C446.571 110.392 446.65 111.034 446.809 111.562C446.968 112.091 447.197 112.493 447.495 112.768C447.797 113.044 448.159 113.182 448.582 113.182ZM456.082 114.119C455.44 114.119 454.893 113.945 454.441 113.595C453.99 113.243 453.645 112.733 453.406 112.065C453.167 111.395 453.048 110.585 453.048 109.636C453.048 108.693 453.167 107.888 453.406 107.22C453.647 106.55 453.994 106.038 454.446 105.686C454.9 105.331 455.446 105.153 456.082 105.153C456.718 105.153 457.262 105.331 457.714 105.686C458.169 106.038 458.515 106.55 458.754 107.22C458.995 107.888 459.116 108.693 459.116 109.636C459.116 110.585 458.997 111.395 458.758 112.065C458.52 112.733 458.174 113.243 457.723 113.595C457.271 113.945 456.724 114.119 456.082 114.119ZM456.082 113.182C456.718 113.182 457.213 112.875 457.565 112.261C457.917 111.648 458.093 110.773 458.093 109.636C458.093 108.881 458.012 108.237 457.85 107.706C457.691 107.175 457.461 106.77 457.16 106.491C456.862 106.213 456.502 106.074 456.082 106.074C455.451 106.074 454.958 106.385 454.603 107.007C454.248 107.626 454.071 108.503 454.071 109.636C454.071 110.392 454.15 111.034 454.309 111.562C454.468 112.091 454.697 112.493 454.995 112.768C455.297 113.044 455.659 113.182 456.082 113.182ZM378.972 120.273V129H377.915V121.381H377.864L375.733 122.795V121.722L377.915 120.273H378.972ZM385.01 129V120.273H386.016V123.494H386.101C386.175 123.381 386.277 123.236 386.408 123.06C386.541 122.881 386.732 122.722 386.979 122.582C387.229 122.44 387.567 122.369 387.993 122.369C388.544 122.369 389.03 122.507 389.45 122.783C389.871 123.058 390.199 123.449 390.435 123.955C390.67 124.46 390.788 125.057 390.788 125.744C390.788 126.438 390.67 127.038 390.435 127.547C390.199 128.053 389.872 128.445 389.455 128.723C389.037 128.999 388.555 129.136 388.01 129.136C387.589 129.136 387.253 129.067 387 128.928C386.747 128.786 386.553 128.625 386.416 128.446C386.28 128.264 386.175 128.114 386.101 127.994H385.982V129H385.01ZM385.999 125.727C385.999 126.222 386.071 126.658 386.216 127.036C386.361 127.411 386.572 127.705 386.851 127.918C387.129 128.128 387.47 128.233 387.874 128.233C388.294 128.233 388.645 128.122 388.926 127.901C389.21 127.676 389.423 127.375 389.565 126.997C389.71 126.616 389.783 126.193 389.783 125.727C389.783 125.267 389.712 124.852 389.57 124.483C389.43 124.111 389.219 123.817 388.935 123.601C388.653 123.382 388.3 123.273 387.874 123.273C387.464 123.273 387.121 123.376 386.842 123.584C386.564 123.788 386.354 124.075 386.212 124.445C386.07 124.811 385.999 125.239 385.999 125.727ZM394.986 129.136C394.395 129.136 393.876 128.996 393.43 128.714C392.987 128.433 392.641 128.04 392.391 127.534C392.143 127.028 392.02 126.437 392.02 125.761C392.02 125.08 392.143 124.484 392.391 123.976C392.641 123.467 392.987 123.072 393.43 122.791C393.876 122.51 394.395 122.369 394.986 122.369C395.577 122.369 396.094 122.51 396.537 122.791C396.983 123.072 397.33 123.467 397.577 123.976C397.827 124.484 397.952 125.08 397.952 125.761C397.952 126.437 397.827 127.028 397.577 127.534C397.33 128.04 396.983 128.433 396.537 128.714C396.094 128.996 395.577 129.136 394.986 129.136ZM394.986 128.233C395.435 128.233 395.804 128.118 396.094 127.888C396.384 127.658 396.598 127.355 396.737 126.98C396.876 126.605 396.946 126.199 396.946 125.761C396.946 125.324 396.876 124.916 396.737 124.538C396.598 124.161 396.384 123.855 396.094 123.622C395.804 123.389 395.435 123.273 394.986 123.273C394.537 123.273 394.168 123.389 393.878 123.622C393.588 123.855 393.374 124.161 393.234 124.538C393.095 124.916 393.026 125.324 393.026 125.761C393.026 126.199 393.095 126.605 393.234 126.98C393.374 127.355 393.588 127.658 393.878 127.888C394.168 128.118 394.537 128.233 394.986 128.233ZM401.413 129.153C400.998 129.153 400.622 129.075 400.284 128.919C399.946 128.76 399.677 128.531 399.478 128.233C399.279 127.932 399.18 127.568 399.18 127.142C399.18 126.767 399.254 126.463 399.402 126.23C399.549 125.994 399.747 125.81 399.994 125.676C400.241 125.543 400.514 125.443 400.812 125.378C401.113 125.31 401.416 125.256 401.72 125.216C402.118 125.165 402.44 125.126 402.687 125.101C402.937 125.072 403.119 125.026 403.233 124.96C403.349 124.895 403.407 124.781 403.407 124.619V124.585C403.407 124.165 403.292 123.838 403.062 123.605C402.835 123.372 402.49 123.256 402.027 123.256C401.547 123.256 401.17 123.361 400.897 123.571C400.625 123.781 400.433 124.006 400.322 124.244L399.368 123.903C399.538 123.506 399.765 123.196 400.049 122.974C400.336 122.75 400.649 122.594 400.987 122.506C401.328 122.415 401.663 122.369 401.993 122.369C402.203 122.369 402.444 122.395 402.717 122.446C402.993 122.494 403.258 122.595 403.514 122.749C403.772 122.902 403.987 123.134 404.157 123.443C404.328 123.753 404.413 124.168 404.413 124.688V129H403.407V128.114H403.356C403.288 128.256 403.174 128.408 403.015 128.57C402.856 128.732 402.645 128.869 402.38 128.983C402.116 129.097 401.794 129.153 401.413 129.153ZM401.566 128.25C401.964 128.25 402.299 128.172 402.572 128.016C402.848 127.859 403.055 127.658 403.194 127.411C403.336 127.163 403.407 126.903 403.407 126.631V125.71C403.365 125.761 403.271 125.808 403.126 125.851C402.984 125.891 402.819 125.926 402.632 125.957C402.447 125.986 402.267 126.011 402.091 126.034C401.917 126.054 401.777 126.071 401.669 126.085C401.407 126.119 401.163 126.175 400.936 126.251C400.711 126.325 400.529 126.437 400.39 126.588C400.254 126.736 400.186 126.937 400.186 127.193C400.186 127.543 400.315 127.807 400.574 127.986C400.835 128.162 401.166 128.25 401.566 128.25ZM406.249 129V122.455H407.22V123.443H407.288C407.408 123.119 407.624 122.857 407.936 122.655C408.249 122.453 408.601 122.352 408.993 122.352C409.067 122.352 409.159 122.354 409.27 122.357C409.381 122.359 409.464 122.364 409.521 122.369V123.392C409.487 123.384 409.409 123.371 409.287 123.354C409.168 123.334 409.041 123.324 408.908 123.324C408.589 123.324 408.305 123.391 408.055 123.524C407.808 123.655 407.612 123.837 407.467 124.07C407.325 124.3 407.254 124.562 407.254 124.858V129H406.249ZM412.986 129.136C412.44 129.136 411.959 128.999 411.541 128.723C411.124 128.445 410.797 128.053 410.561 127.547C410.325 127.038 410.207 126.438 410.207 125.744C410.207 125.057 410.325 124.46 410.561 123.955C410.797 123.449 411.125 123.058 411.545 122.783C411.966 122.507 412.452 122.369 413.003 122.369C413.429 122.369 413.766 122.44 414.013 122.582C414.263 122.722 414.453 122.881 414.584 123.06C414.717 123.236 414.821 123.381 414.895 123.494H414.98V120.273H415.986V129H415.014V127.994H414.895C414.821 128.114 414.716 128.264 414.58 128.446C414.443 128.625 414.249 128.786 413.996 128.928C413.743 129.067 413.406 129.136 412.986 129.136ZM413.122 128.233C413.526 128.233 413.866 128.128 414.145 127.918C414.423 127.705 414.635 127.411 414.78 127.036C414.925 126.658 414.997 126.222 414.997 125.727C414.997 125.239 414.926 124.811 414.784 124.445C414.642 124.075 414.432 123.788 414.153 123.584C413.875 123.376 413.531 123.273 413.122 123.273C412.696 123.273 412.341 123.382 412.057 123.601C411.776 123.817 411.564 124.111 411.422 124.483C411.283 124.852 411.213 125.267 411.213 125.727C411.213 126.193 411.284 126.616 411.426 126.997C411.571 127.375 411.784 127.676 412.065 127.901C412.349 128.122 412.702 128.233 413.122 128.233Z" fill="black"/>
<path d="M375.92 151V144.455H376.892V145.443H376.96C377.08 145.119 377.295 144.857 377.608 144.655C377.92 144.453 378.273 144.352 378.665 144.352C378.739 144.352 378.831 144.354 378.942 144.357C379.053 144.359 379.136 144.364 379.193 144.369V145.392C379.159 145.384 379.081 145.371 378.959 145.354C378.839 145.334 378.713 145.324 378.58 145.324C378.261 145.324 377.977 145.391 377.727 145.524C377.48 145.655 377.284 145.837 377.139 146.07C376.997 146.3 376.926 146.562 376.926 146.858V151H375.92ZM382.311 151.153C381.897 151.153 381.52 151.075 381.182 150.919C380.844 150.76 380.576 150.531 380.377 150.233C380.178 149.932 380.078 149.568 380.078 149.142C380.078 148.767 380.152 148.463 380.3 148.23C380.448 147.994 380.645 147.81 380.892 147.676C381.14 147.543 381.412 147.443 381.711 147.378C382.012 147.31 382.314 147.256 382.618 147.216C383.016 147.165 383.338 147.126 383.586 147.101C383.836 147.072 384.017 147.026 384.131 146.96C384.248 146.895 384.306 146.781 384.306 146.619V146.585C384.306 146.165 384.191 145.838 383.961 145.605C383.733 145.372 383.388 145.256 382.925 145.256C382.445 145.256 382.069 145.361 381.796 145.571C381.523 145.781 381.331 146.006 381.221 146.244L380.266 145.903C380.436 145.506 380.664 145.196 380.948 144.974C381.235 144.75 381.547 144.594 381.885 144.506C382.226 144.415 382.561 144.369 382.891 144.369C383.101 144.369 383.343 144.395 383.615 144.446C383.891 144.494 384.157 144.595 384.412 144.749C384.671 144.902 384.885 145.134 385.056 145.443C385.226 145.753 385.311 146.168 385.311 146.688V151H384.306V150.114H384.255C384.186 150.256 384.073 150.408 383.914 150.57C383.755 150.732 383.543 150.869 383.279 150.983C383.015 151.097 382.692 151.153 382.311 151.153ZM382.465 150.25C382.863 150.25 383.198 150.172 383.471 150.016C383.746 149.859 383.953 149.658 384.093 149.411C384.235 149.163 384.306 148.903 384.306 148.631V147.71C384.263 147.761 384.169 147.808 384.025 147.851C383.882 147.891 383.718 147.926 383.53 147.957C383.346 147.986 383.165 148.011 382.989 148.034C382.816 148.054 382.675 148.071 382.567 148.085C382.306 148.119 382.061 148.175 381.834 148.251C381.61 148.325 381.428 148.437 381.289 148.588C381.152 148.736 381.084 148.937 381.084 149.193C381.084 149.543 381.213 149.807 381.472 149.986C381.733 150.162 382.064 150.25 382.465 150.25ZM387.147 151V144.455H388.153V151H387.147ZM387.658 143.364C387.462 143.364 387.293 143.297 387.151 143.163C387.012 143.03 386.942 142.869 386.942 142.682C386.942 142.494 387.012 142.334 387.151 142.2C387.293 142.067 387.462 142 387.658 142C387.854 142 388.022 142.067 388.161 142.2C388.303 142.334 388.374 142.494 388.374 142.682C388.374 142.869 388.303 143.03 388.161 143.163C388.022 143.297 387.854 143.364 387.658 143.364ZM391 142.273V151H389.995V142.273H391ZM375.699 164.21V163.341L379.534 157.273H380.165V158.619H379.739L376.841 163.205V163.273H382.006V164.21H375.699ZM379.807 166V163.946V163.541V157.273H380.812V166H379.807ZM383.603 166V165.233L386.483 162.08C386.821 161.71 387.1 161.389 387.319 161.116C387.537 160.841 387.699 160.582 387.804 160.341C387.912 160.097 387.966 159.841 387.966 159.574C387.966 159.267 387.892 159.001 387.745 158.777C387.6 158.553 387.401 158.379 387.148 158.257C386.895 158.135 386.611 158.074 386.296 158.074C385.961 158.074 385.668 158.143 385.418 158.283C385.171 158.419 384.979 158.611 384.843 158.858C384.709 159.105 384.642 159.395 384.642 159.727H383.637C383.637 159.216 383.755 158.767 383.99 158.381C384.226 157.994 384.547 157.693 384.953 157.477C385.363 157.261 385.821 157.153 386.33 157.153C386.841 157.153 387.294 157.261 387.689 157.477C388.084 157.693 388.394 157.984 388.618 158.351C388.843 158.717 388.955 159.125 388.955 159.574C388.955 159.895 388.897 160.209 388.78 160.516C388.667 160.82 388.468 161.159 388.184 161.534C387.902 161.906 387.512 162.361 387.012 162.898L385.051 164.994V165.062H389.108V166H383.603ZM393.715 166.119C393.073 166.119 392.526 165.945 392.074 165.595C391.623 165.243 391.277 164.733 391.039 164.065C390.8 163.395 390.681 162.585 390.681 161.636C390.681 160.693 390.8 159.888 391.039 159.22C391.28 158.55 391.627 158.038 392.078 157.686C392.533 157.331 393.078 157.153 393.715 157.153C394.351 157.153 394.895 157.331 395.347 157.686C395.801 158.038 396.148 158.55 396.387 159.22C396.628 159.888 396.749 160.693 396.749 161.636C396.749 162.585 396.63 163.395 396.391 164.065C396.152 164.733 395.807 165.243 395.355 165.595C394.904 165.945 394.357 166.119 393.715 166.119ZM393.715 165.182C394.351 165.182 394.846 164.875 395.198 164.261C395.55 163.648 395.726 162.773 395.726 161.636C395.726 160.881 395.645 160.237 395.483 159.706C395.324 159.175 395.094 158.77 394.793 158.491C394.495 158.213 394.135 158.074 393.715 158.074C393.084 158.074 392.591 158.385 392.236 159.007C391.881 159.626 391.703 160.503 391.703 161.636C391.703 162.392 391.783 163.034 391.942 163.562C392.101 164.091 392.33 164.493 392.628 164.768C392.929 165.044 393.292 165.182 393.715 165.182ZM403.431 164.091L403.499 162.216L401.914 163.222L401.505 162.506L403.175 161.636L401.505 160.767L401.914 160.051L403.499 161.057L403.431 159.182H404.249L404.181 161.057L405.766 160.051L406.175 160.767L404.505 161.636L406.175 162.506L405.766 163.222L404.181 162.216L404.249 164.091H403.431ZM411.118 166V165.233L413.999 162.08C414.337 161.71 414.615 161.389 414.834 161.116C415.053 160.841 415.215 160.582 415.32 160.341C415.428 160.097 415.482 159.841 415.482 159.574C415.482 159.267 415.408 159.001 415.26 158.777C415.115 158.553 414.917 158.379 414.664 158.257C414.411 158.135 414.127 158.074 413.811 158.074C413.476 158.074 413.184 158.143 412.934 158.283C412.686 158.419 412.495 158.611 412.358 158.858C412.225 159.105 412.158 159.395 412.158 159.727H411.152C411.152 159.216 411.27 158.767 411.506 158.381C411.742 157.994 412.063 157.693 412.469 157.477C412.878 157.261 413.337 157.153 413.846 157.153C414.357 157.153 414.81 157.261 415.205 157.477C415.6 157.693 415.909 157.984 416.134 158.351C416.358 158.717 416.471 159.125 416.471 159.574C416.471 159.895 416.412 160.209 416.296 160.516C416.182 160.82 415.983 161.159 415.699 161.534C415.418 161.906 415.027 162.361 414.527 162.898L412.567 164.994V165.062H416.624V166H411.118ZM422.185 160.835V159.915H427.435V160.835H422.185ZM422.185 163.358V162.438H427.435V163.358H422.185ZM435.839 166.119C435.254 166.119 434.737 166.016 434.288 165.808C433.842 165.598 433.494 165.31 433.244 164.943C432.994 164.574 432.871 164.153 432.874 163.682C432.871 163.312 432.943 162.972 433.091 162.659C433.239 162.344 433.44 162.081 433.696 161.871C433.955 161.658 434.243 161.523 434.561 161.466V161.415C434.143 161.307 433.811 161.072 433.564 160.712C433.317 160.348 433.195 159.935 433.197 159.472C433.195 159.028 433.307 158.632 433.534 158.283C433.761 157.933 434.074 157.658 434.472 157.456C434.872 157.254 435.328 157.153 435.839 157.153C436.345 157.153 436.797 157.254 437.195 157.456C437.592 157.658 437.905 157.933 438.132 158.283C438.362 158.632 438.479 159.028 438.482 159.472C438.479 159.935 438.352 160.348 438.102 160.712C437.855 161.072 437.527 161.307 437.118 161.415V161.466C437.433 161.523 437.717 161.658 437.97 161.871C438.223 162.081 438.425 162.344 438.575 162.659C438.726 162.972 438.803 163.312 438.805 163.682C438.803 164.153 438.675 164.574 438.422 164.943C438.172 165.31 437.824 165.598 437.378 165.808C436.935 166.016 436.422 166.119 435.839 166.119ZM435.839 165.182C436.234 165.182 436.575 165.118 436.862 164.99C437.149 164.862 437.371 164.682 437.527 164.449C437.683 164.216 437.763 163.943 437.766 163.631C437.763 163.301 437.678 163.01 437.51 162.757C437.342 162.504 437.114 162.305 436.824 162.161C436.537 162.016 436.209 161.943 435.839 161.943C435.467 161.943 435.135 162.016 434.842 162.161C434.553 162.305 434.324 162.504 434.156 162.757C433.991 163.01 433.911 163.301 433.913 163.631C433.911 163.943 433.986 164.216 434.139 164.449C434.295 164.682 434.518 164.862 434.808 164.99C435.098 165.118 435.442 165.182 435.839 165.182ZM435.839 161.04C436.152 161.04 436.429 160.977 436.67 160.852C436.915 160.727 437.107 160.553 437.246 160.328C437.385 160.104 437.456 159.841 437.459 159.54C437.456 159.244 437.386 158.987 437.25 158.768C437.114 158.547 436.925 158.376 436.683 158.257C436.442 158.135 436.161 158.074 435.839 158.074C435.513 158.074 435.227 158.135 434.983 158.257C434.739 158.376 434.55 158.547 434.416 158.768C434.283 158.987 434.217 159.244 434.22 159.54C434.217 159.841 434.284 160.104 434.42 160.328C434.56 160.553 434.751 160.727 434.996 160.852C435.24 160.977 435.521 161.04 435.839 161.04ZM440.234 164.21V163.341L444.069 157.273H444.7V158.619H444.274L441.376 163.205V163.273H446.541V164.21H440.234ZM444.342 166V163.946V163.541V157.273H445.348V166H444.342ZM450.984 166.119C450.342 166.119 449.795 165.945 449.344 165.595C448.892 165.243 448.547 164.733 448.308 164.065C448.07 163.395 447.95 162.585 447.95 161.636C447.95 160.693 448.07 159.888 448.308 159.22C448.55 158.55 448.896 158.038 449.348 157.686C449.803 157.331 450.348 157.153 450.984 157.153C451.621 157.153 452.165 157.331 452.616 157.686C453.071 158.038 453.418 158.55 453.656 159.22C453.898 159.888 454.018 160.693 454.018 161.636C454.018 162.585 453.899 163.395 453.661 164.065C453.422 164.733 453.077 165.243 452.625 165.595C452.173 165.945 451.626 166.119 450.984 166.119ZM450.984 165.182C451.621 165.182 452.115 164.875 452.467 164.261C452.82 163.648 452.996 162.773 452.996 161.636C452.996 160.881 452.915 160.237 452.753 159.706C452.594 159.175 452.364 158.77 452.062 158.491C451.764 158.213 451.405 158.074 450.984 158.074C450.354 158.074 449.861 158.385 449.506 159.007C449.151 159.626 448.973 160.503 448.973 161.636C448.973 162.392 449.053 163.034 449.212 163.562C449.371 164.091 449.599 164.493 449.898 164.768C450.199 165.044 450.561 165.182 450.984 165.182ZM375.903 181V180.233L378.784 177.08C379.122 176.71 379.401 176.389 379.619 176.116C379.838 175.841 380 175.582 380.105 175.341C380.213 175.097 380.267 174.841 380.267 174.574C380.267 174.267 380.193 174.001 380.045 173.777C379.901 173.553 379.702 173.379 379.449 173.257C379.196 173.135 378.912 173.074 378.597 173.074C378.261 173.074 377.969 173.143 377.719 173.283C377.472 173.419 377.28 173.611 377.143 173.858C377.01 174.105 376.943 174.395 376.943 174.727H375.938C375.938 174.216 376.055 173.767 376.291 173.381C376.527 172.994 376.848 172.693 377.254 172.477C377.663 172.261 378.122 172.153 378.631 172.153C379.142 172.153 379.595 172.261 379.99 172.477C380.385 172.693 380.695 172.984 380.919 173.351C381.143 173.717 381.256 174.125 381.256 174.574C381.256 174.895 381.197 175.209 381.081 175.516C380.967 175.82 380.768 176.159 380.484 176.534C380.203 176.906 379.812 177.361 379.312 177.898L377.352 179.994V180.062H381.409V181H375.903ZM386.697 181V172.273H387.703V175.494H387.788C387.862 175.381 387.964 175.236 388.095 175.06C388.229 174.881 388.419 174.722 388.666 174.582C388.916 174.44 389.254 174.369 389.68 174.369C390.232 174.369 390.717 174.507 391.138 174.783C391.558 175.058 391.886 175.449 392.122 175.955C392.358 176.46 392.476 177.057 392.476 177.744C392.476 178.438 392.358 179.038 392.122 179.547C391.886 180.053 391.56 180.445 391.142 180.723C390.724 180.999 390.243 181.136 389.697 181.136C389.277 181.136 388.94 181.067 388.688 180.928C388.435 180.786 388.24 180.625 388.104 180.446C387.967 180.264 387.862 180.114 387.788 179.994H387.669V181H386.697ZM387.686 177.727C387.686 178.222 387.759 178.658 387.903 179.036C388.048 179.411 388.26 179.705 388.538 179.918C388.817 180.128 389.158 180.233 389.561 180.233C389.982 180.233 390.332 180.122 390.614 179.901C390.898 179.676 391.111 179.375 391.253 178.997C391.398 178.616 391.47 178.193 391.47 177.727C391.47 177.267 391.399 176.852 391.257 176.483C391.118 176.111 390.906 175.817 390.622 175.601C390.341 175.382 389.987 175.273 389.561 175.273C389.152 175.273 388.808 175.376 388.53 175.584C388.251 175.788 388.041 176.075 387.899 176.445C387.757 176.811 387.686 177.239 387.686 177.727ZM396.673 181.136C396.082 181.136 395.564 180.996 395.118 180.714C394.675 180.433 394.328 180.04 394.078 179.534C393.831 179.028 393.707 178.437 393.707 177.761C393.707 177.08 393.831 176.484 394.078 175.976C394.328 175.467 394.675 175.072 395.118 174.791C395.564 174.51 396.082 174.369 396.673 174.369C397.264 174.369 397.781 174.51 398.224 174.791C398.67 175.072 399.017 175.467 399.264 175.976C399.514 176.484 399.639 177.08 399.639 177.761C399.639 178.437 399.514 179.028 399.264 179.534C399.017 180.04 398.67 180.433 398.224 180.714C397.781 180.996 397.264 181.136 396.673 181.136ZM396.673 180.233C397.122 180.233 397.491 180.118 397.781 179.888C398.071 179.658 398.286 179.355 398.425 178.98C398.564 178.605 398.634 178.199 398.634 177.761C398.634 177.324 398.564 176.916 398.425 176.538C398.286 176.161 398.071 175.855 397.781 175.622C397.491 175.389 397.122 175.273 396.673 175.273C396.224 175.273 395.855 175.389 395.565 175.622C395.276 175.855 395.061 176.161 394.922 176.538C394.783 176.916 394.713 177.324 394.713 177.761C394.713 178.199 394.783 178.605 394.922 178.98C395.061 179.355 395.276 179.658 395.565 179.888C395.855 180.118 396.224 180.233 396.673 180.233ZM403.1 181.153C402.686 181.153 402.309 181.075 401.971 180.919C401.633 180.76 401.365 180.531 401.166 180.233C400.967 179.932 400.868 179.568 400.868 179.142C400.868 178.767 400.941 178.463 401.089 178.23C401.237 177.994 401.434 177.81 401.681 177.676C401.929 177.543 402.201 177.443 402.5 177.378C402.801 177.31 403.103 177.256 403.407 177.216C403.805 177.165 404.127 177.126 404.375 177.101C404.625 177.072 404.806 177.026 404.92 176.96C405.037 176.895 405.095 176.781 405.095 176.619V176.585C405.095 176.165 404.98 175.838 404.75 175.605C404.522 175.372 404.177 175.256 403.714 175.256C403.234 175.256 402.858 175.361 402.585 175.571C402.312 175.781 402.12 176.006 402.01 176.244L401.055 175.903C401.225 175.506 401.453 175.196 401.737 174.974C402.024 174.75 402.336 174.594 402.674 174.506C403.015 174.415 403.35 174.369 403.68 174.369C403.89 174.369 404.132 174.395 404.404 174.446C404.68 174.494 404.946 174.595 405.201 174.749C405.46 174.902 405.674 175.134 405.845 175.443C406.015 175.753 406.1 176.168 406.1 176.688V181H405.095V180.114H405.044C404.975 180.256 404.862 180.408 404.703 180.57C404.544 180.732 404.332 180.869 404.068 180.983C403.804 181.097 403.481 181.153 403.1 181.153ZM403.254 180.25C403.652 180.25 403.987 180.172 404.26 180.016C404.535 179.859 404.743 179.658 404.882 179.411C405.024 179.163 405.095 178.903 405.095 178.631V177.71C405.052 177.761 404.958 177.808 404.814 177.851C404.672 177.891 404.507 177.926 404.319 177.957C404.135 177.986 403.954 178.011 403.778 178.034C403.605 178.054 403.464 178.071 403.356 178.085C403.095 178.119 402.85 178.175 402.623 178.251C402.399 178.325 402.217 178.437 402.078 178.588C401.941 178.736 401.873 178.937 401.873 179.193C401.873 179.543 402.002 179.807 402.261 179.986C402.522 180.162 402.853 180.25 403.254 180.25ZM407.936 181V174.455H408.908V175.443H408.976C409.095 175.119 409.311 174.857 409.624 174.655C409.936 174.453 410.288 174.352 410.68 174.352C410.754 174.352 410.847 174.354 410.957 174.357C411.068 174.359 411.152 174.364 411.209 174.369V175.392C411.175 175.384 411.097 175.371 410.974 175.354C410.855 175.334 410.729 175.324 410.595 175.324C410.277 175.324 409.993 175.391 409.743 175.524C409.496 175.655 409.3 175.837 409.155 176.07C409.013 176.3 408.942 176.562 408.942 176.858V181H407.936ZM414.673 181.136C414.128 181.136 413.646 180.999 413.229 180.723C412.811 180.445 412.484 180.053 412.249 179.547C412.013 179.038 411.895 178.438 411.895 177.744C411.895 177.057 412.013 176.46 412.249 175.955C412.484 175.449 412.813 175.058 413.233 174.783C413.653 174.507 414.139 174.369 414.69 174.369C415.116 174.369 415.453 174.44 415.7 174.582C415.95 174.722 416.141 174.881 416.271 175.06C416.405 175.236 416.509 175.381 416.582 175.494H416.668V172.273H417.673V181H416.702V179.994H416.582C416.509 180.114 416.403 180.264 416.267 180.446C416.131 180.625 415.936 180.786 415.683 180.928C415.43 181.067 415.094 181.136 414.673 181.136ZM414.81 180.233C415.213 180.233 415.554 180.128 415.832 179.918C416.111 179.705 416.322 179.411 416.467 179.036C416.612 178.658 416.685 178.222 416.685 177.727C416.685 177.239 416.614 176.811 416.472 176.445C416.33 176.075 416.119 175.788 415.841 175.584C415.563 175.376 415.219 175.273 414.81 175.273C414.384 175.273 414.028 175.382 413.744 175.601C413.463 175.817 413.251 176.111 413.109 176.483C412.97 176.852 412.901 177.267 412.901 177.727C412.901 178.193 412.972 178.616 413.114 178.997C413.259 179.375 413.472 179.676 413.753 179.901C414.037 180.122 414.389 180.233 414.81 180.233ZM424.291 175.92L423.388 176.176C423.331 176.026 423.247 175.879 423.136 175.737C423.028 175.592 422.881 175.473 422.693 175.379C422.506 175.286 422.266 175.239 421.973 175.239C421.572 175.239 421.239 175.331 420.972 175.516C420.707 175.697 420.575 175.929 420.575 176.21C420.575 176.46 420.666 176.658 420.848 176.803C421.03 176.947 421.314 177.068 421.7 177.165L422.672 177.403C423.257 177.545 423.693 177.763 423.98 178.055C424.267 178.345 424.411 178.719 424.411 179.176C424.411 179.551 424.303 179.886 424.087 180.182C423.874 180.477 423.575 180.71 423.192 180.881C422.808 181.051 422.362 181.136 421.854 181.136C421.186 181.136 420.634 180.991 420.196 180.702C419.759 180.412 419.482 179.989 419.365 179.432L420.32 179.193C420.411 179.545 420.582 179.81 420.835 179.986C421.091 180.162 421.425 180.25 421.837 180.25C422.305 180.25 422.678 180.151 422.953 179.952C423.232 179.75 423.371 179.509 423.371 179.227C423.371 179 423.291 178.81 423.132 178.656C422.973 178.5 422.729 178.384 422.399 178.307L421.308 178.051C420.709 177.909 420.268 177.689 419.987 177.391C419.709 177.089 419.57 176.713 419.57 176.261C419.57 175.892 419.673 175.565 419.881 175.281C420.091 174.997 420.376 174.774 420.737 174.612C421.101 174.45 421.513 174.369 421.973 174.369C422.621 174.369 423.129 174.511 423.499 174.795C423.871 175.08 424.135 175.455 424.291 175.92Z" fill="black"/>
<path d="M375.92 208V201.455H376.892V202.443H376.96C377.08 202.119 377.295 201.857 377.608 201.655C377.92 201.453 378.273 201.352 378.665 201.352C378.739 201.352 378.831 201.354 378.942 201.357C379.053 201.359 379.136 201.364 379.193 201.369V202.392C379.159 202.384 379.081 202.371 378.959 202.354C378.839 202.334 378.713 202.324 378.58 202.324C378.261 202.324 377.977 202.391 377.727 202.524C377.48 202.655 377.284 202.837 377.139 203.07C376.997 203.3 376.926 203.562 376.926 203.858V208H375.92ZM382.311 208.153C381.897 208.153 381.52 208.075 381.182 207.919C380.844 207.76 380.576 207.531 380.377 207.233C380.178 206.932 380.078 206.568 380.078 206.142C380.078 205.767 380.152 205.463 380.3 205.23C380.448 204.994 380.645 204.81 380.892 204.676C381.14 204.543 381.412 204.443 381.711 204.378C382.012 204.31 382.314 204.256 382.618 204.216C383.016 204.165 383.338 204.126 383.586 204.101C383.836 204.072 384.017 204.026 384.131 203.96C384.248 203.895 384.306 203.781 384.306 203.619V203.585C384.306 203.165 384.191 202.838 383.961 202.605C383.733 202.372 383.388 202.256 382.925 202.256C382.445 202.256 382.069 202.361 381.796 202.571C381.523 202.781 381.331 203.006 381.221 203.244L380.266 202.903C380.436 202.506 380.664 202.196 380.948 201.974C381.235 201.75 381.547 201.594 381.885 201.506C382.226 201.415 382.561 201.369 382.891 201.369C383.101 201.369 383.343 201.395 383.615 201.446C383.891 201.494 384.157 201.595 384.412 201.749C384.671 201.902 384.885 202.134 385.056 202.443C385.226 202.753 385.311 203.168 385.311 203.688V208H384.306V207.114H384.255C384.186 207.256 384.073 207.408 383.914 207.57C383.755 207.732 383.543 207.869 383.279 207.983C383.015 208.097 382.692 208.153 382.311 208.153ZM382.465 207.25C382.863 207.25 383.198 207.172 383.471 207.016C383.746 206.859 383.953 206.658 384.093 206.411C384.235 206.163 384.306 205.903 384.306 205.631V204.71C384.263 204.761 384.169 204.808 384.025 204.851C383.882 204.891 383.718 204.926 383.53 204.957C383.346 204.986 383.165 205.011 382.989 205.034C382.816 205.054 382.675 205.071 382.567 205.085C382.306 205.119 382.061 205.175 381.834 205.251C381.61 205.325 381.428 205.437 381.289 205.588C381.152 205.736 381.084 205.937 381.084 206.193C381.084 206.543 381.213 206.807 381.472 206.986C381.733 207.162 382.064 207.25 382.465 207.25ZM387.147 208V201.455H388.153V208H387.147ZM387.658 200.364C387.462 200.364 387.293 200.297 387.151 200.163C387.012 200.03 386.942 199.869 386.942 199.682C386.942 199.494 387.012 199.334 387.151 199.2C387.293 199.067 387.462 199 387.658 199C387.854 199 388.022 199.067 388.161 199.2C388.303 199.334 388.374 199.494 388.374 199.682C388.374 199.869 388.303 200.03 388.161 200.163C388.022 200.297 387.854 200.364 387.658 200.364ZM391 199.273V208H389.995V199.273H391ZM400.854 202.92L399.95 203.176C399.893 203.026 399.81 202.879 399.699 202.737C399.591 202.592 399.443 202.473 399.256 202.379C399.068 202.286 398.828 202.239 398.536 202.239C398.135 202.239 397.801 202.331 397.534 202.516C397.27 202.697 397.138 202.929 397.138 203.21C397.138 203.46 397.229 203.658 397.411 203.803C397.592 203.947 397.876 204.068 398.263 204.165L399.234 204.403C399.82 204.545 400.256 204.763 400.543 205.055C400.83 205.345 400.973 205.719 400.973 206.176C400.973 206.551 400.865 206.886 400.649 207.182C400.436 207.477 400.138 207.71 399.754 207.881C399.371 208.051 398.925 208.136 398.416 208.136C397.749 208.136 397.196 207.991 396.759 207.702C396.321 207.412 396.044 206.989 395.928 206.432L396.882 206.193C396.973 206.545 397.145 206.81 397.398 206.986C397.653 207.162 397.987 207.25 398.399 207.25C398.868 207.25 399.24 207.151 399.516 206.952C399.794 206.75 399.933 206.509 399.933 206.227C399.933 206 399.854 205.81 399.695 205.656C399.536 205.5 399.291 205.384 398.962 205.307L397.871 205.051C397.271 204.909 396.831 204.689 396.55 204.391C396.271 204.089 396.132 203.713 396.132 203.261C396.132 202.892 396.236 202.565 396.443 202.281C396.653 201.997 396.939 201.774 397.3 201.612C397.663 201.45 398.075 201.369 398.536 201.369C399.183 201.369 399.692 201.511 400.061 201.795C400.433 202.08 400.697 202.455 400.854 202.92ZM406.612 205.324V201.455H407.618V208H406.612V206.892H406.544C406.39 207.224 406.152 207.507 405.828 207.74C405.504 207.97 405.095 208.085 404.6 208.085C404.191 208.085 403.828 207.996 403.51 207.817C403.191 207.635 402.941 207.362 402.76 206.999C402.578 206.632 402.487 206.17 402.487 205.614V201.455H403.493V205.545C403.493 206.023 403.626 206.403 403.893 206.688C404.163 206.972 404.507 207.114 404.924 207.114C405.174 207.114 405.429 207.05 405.687 206.922C405.949 206.794 406.167 206.598 406.343 206.334C406.522 206.07 406.612 205.733 406.612 205.324ZM409.46 210.455V201.455H410.431V202.494H410.55C410.624 202.381 410.727 202.236 410.857 202.06C410.991 201.881 411.181 201.722 411.428 201.582C411.678 201.44 412.016 201.369 412.442 201.369C412.994 201.369 413.479 201.507 413.9 201.783C414.32 202.058 414.648 202.449 414.884 202.955C415.12 203.46 415.238 204.057 415.238 204.744C415.238 205.438 415.12 206.038 414.884 206.547C414.648 207.053 414.322 207.445 413.904 207.723C413.487 207.999 413.005 208.136 412.46 208.136C412.039 208.136 411.702 208.067 411.45 207.928C411.197 207.786 411.002 207.625 410.866 207.446C410.729 207.264 410.624 207.114 410.55 206.994H410.465V210.455H409.46ZM410.448 204.727C410.448 205.222 410.521 205.658 410.665 206.036C410.81 206.411 411.022 206.705 411.3 206.918C411.579 207.128 411.92 207.233 412.323 207.233C412.744 207.233 413.094 207.122 413.376 206.901C413.66 206.676 413.873 206.375 414.015 205.997C414.16 205.616 414.232 205.193 414.232 204.727C414.232 204.267 414.161 203.852 414.019 203.483C413.88 203.111 413.668 202.817 413.384 202.601C413.103 202.382 412.749 202.273 412.323 202.273C411.914 202.273 411.57 202.376 411.292 202.584C411.013 202.788 410.803 203.075 410.661 203.445C410.519 203.811 410.448 204.239 410.448 204.727ZM416.772 210.455V201.455H417.744V202.494H417.863C417.937 202.381 418.039 202.236 418.17 202.06C418.303 201.881 418.494 201.722 418.741 201.582C418.991 201.44 419.329 201.369 419.755 201.369C420.306 201.369 420.792 201.507 421.212 201.783C421.633 202.058 421.961 202.449 422.197 202.955C422.433 203.46 422.55 204.057 422.55 204.744C422.55 205.438 422.433 206.038 422.197 206.547C421.961 207.053 421.634 207.445 421.217 207.723C420.799 207.999 420.317 208.136 419.772 208.136C419.352 208.136 419.015 208.067 418.762 207.928C418.509 207.786 418.315 207.625 418.178 207.446C418.042 207.264 417.937 207.114 417.863 206.994H417.778V210.455H416.772ZM417.761 204.727C417.761 205.222 417.833 205.658 417.978 206.036C418.123 206.411 418.335 206.705 418.613 206.918C418.891 207.128 419.232 207.233 419.636 207.233C420.056 207.233 420.407 207.122 420.688 206.901C420.972 206.676 421.185 206.375 421.327 205.997C421.472 205.616 421.545 205.193 421.545 204.727C421.545 204.267 421.474 203.852 421.332 203.483C421.192 203.111 420.981 202.817 420.697 202.601C420.415 202.382 420.062 202.273 419.636 202.273C419.227 202.273 418.883 202.376 418.604 202.584C418.326 202.788 418.116 203.075 417.974 203.445C417.832 203.811 417.761 204.239 417.761 204.727ZM426.744 208.136C426.153 208.136 425.634 207.996 425.188 207.714C424.745 207.433 424.398 207.04 424.148 206.534C423.901 206.028 423.778 205.437 423.778 204.761C423.778 204.08 423.901 203.484 424.148 202.976C424.398 202.467 424.745 202.072 425.188 201.791C425.634 201.51 426.153 201.369 426.744 201.369C427.335 201.369 427.852 201.51 428.295 201.791C428.741 202.072 429.087 202.467 429.335 202.976C429.585 203.484 429.71 204.08 429.71 204.761C429.71 205.437 429.585 206.028 429.335 206.534C429.087 207.04 428.741 207.433 428.295 207.714C427.852 207.996 427.335 208.136 426.744 208.136ZM426.744 207.233C427.192 207.233 427.562 207.118 427.852 206.888C428.141 206.658 428.356 206.355 428.495 205.98C428.634 205.605 428.704 205.199 428.704 204.761C428.704 204.324 428.634 203.916 428.495 203.538C428.356 203.161 428.141 202.855 427.852 202.622C427.562 202.389 427.192 202.273 426.744 202.273C426.295 202.273 425.925 202.389 425.636 202.622C425.346 202.855 425.131 203.161 424.992 203.538C424.853 203.916 424.783 204.324 424.783 204.761C424.783 205.199 424.853 205.605 424.992 205.98C425.131 206.355 425.346 206.658 425.636 206.888C425.925 207.118 426.295 207.233 426.744 207.233ZM431.245 208V201.455H432.216V202.443H432.284C432.404 202.119 432.62 201.857 432.932 201.655C433.245 201.453 433.597 201.352 433.989 201.352C434.063 201.352 434.155 201.354 434.266 201.357C434.377 201.359 434.461 201.364 434.517 201.369V202.392C434.483 202.384 434.405 202.371 434.283 202.354C434.164 202.334 434.037 202.324 433.904 202.324C433.586 202.324 433.301 202.391 433.051 202.524C432.804 202.655 432.608 202.837 432.463 203.07C432.321 203.3 432.25 203.562 432.25 203.858V208H431.245ZM438.966 201.455V202.307H435.574V201.455H438.966ZM436.563 199.886H437.569V206.125C437.569 206.409 437.61 206.622 437.692 206.764C437.777 206.903 437.885 206.997 438.016 207.045C438.15 207.091 438.29 207.114 438.438 207.114C438.549 207.114 438.64 207.108 438.711 207.097C438.782 207.082 438.838 207.071 438.881 207.062L439.086 207.966C439.017 207.991 438.922 208.017 438.8 208.043C438.678 208.071 438.523 208.085 438.336 208.085C438.051 208.085 437.773 208.024 437.5 207.902C437.23 207.78 437.006 207.594 436.827 207.344C436.651 207.094 436.563 206.778 436.563 206.398V199.886ZM378.972 214.273V223H377.915V215.381H377.864L375.733 216.795V215.722L377.915 214.273H378.972ZM381.482 223V222.233L384.362 219.08C384.7 218.71 384.979 218.389 385.197 218.116C385.416 217.841 385.578 217.582 385.683 217.341C385.791 217.097 385.845 216.841 385.845 216.574C385.845 216.267 385.771 216.001 385.624 215.777C385.479 215.553 385.28 215.379 385.027 215.257C384.774 215.135 384.49 215.074 384.175 215.074C383.839 215.074 383.547 215.143 383.297 215.283C383.05 215.419 382.858 215.611 382.722 215.858C382.588 216.105 382.521 216.395 382.521 216.727H381.516C381.516 216.216 381.634 215.767 381.869 215.381C382.105 214.994 382.426 214.693 382.832 214.477C383.241 214.261 383.7 214.153 384.209 214.153C384.72 214.153 385.173 214.261 385.568 214.477C385.963 214.693 386.273 214.984 386.497 215.351C386.722 215.717 386.834 216.125 386.834 216.574C386.834 216.895 386.776 217.209 386.659 217.516C386.545 217.82 386.347 218.159 386.062 218.534C385.781 218.906 385.391 219.361 384.891 219.898L382.93 221.994V222.062H386.987V223H381.482ZM391.594 223.119C390.952 223.119 390.405 222.945 389.953 222.595C389.501 222.243 389.156 221.733 388.918 221.065C388.679 220.395 388.56 219.585 388.56 218.636C388.56 217.693 388.679 216.888 388.918 216.22C389.159 215.55 389.506 215.038 389.957 214.686C390.412 214.331 390.957 214.153 391.594 214.153C392.23 214.153 392.774 214.331 393.226 214.686C393.68 215.038 394.027 215.55 394.266 216.22C394.507 216.888 394.628 217.693 394.628 218.636C394.628 219.585 394.509 220.395 394.27 221.065C394.031 221.733 393.686 222.243 393.234 222.595C392.783 222.945 392.236 223.119 391.594 223.119ZM391.594 222.182C392.23 222.182 392.724 221.875 393.077 221.261C393.429 220.648 393.605 219.773 393.605 218.636C393.605 217.881 393.524 217.237 393.362 216.706C393.203 216.175 392.973 215.77 392.672 215.491C392.374 215.213 392.014 215.074 391.594 215.074C390.963 215.074 390.47 215.385 390.115 216.007C389.76 216.626 389.582 217.503 389.582 218.636C389.582 219.392 389.662 220.034 389.821 220.562C389.98 221.091 390.209 221.493 390.507 221.768C390.808 222.044 391.17 222.182 391.594 222.182ZM401.31 221.091L401.378 219.216L399.793 220.222L399.384 219.506L401.054 218.636L399.384 217.767L399.793 217.051L401.378 218.057L401.31 216.182H402.128L402.06 218.057L403.645 217.051L404.054 217.767L402.384 218.636L404.054 219.506L403.645 220.222L402.06 219.216L402.128 221.091H401.31ZM411.895 223.119C411.537 223.114 411.179 223.045 410.821 222.915C410.463 222.784 410.136 222.564 409.841 222.254C409.545 221.942 409.308 221.52 409.129 220.989C408.95 220.455 408.861 219.784 408.861 218.977C408.861 218.205 408.933 217.52 409.078 216.923C409.223 216.324 409.433 215.82 409.709 215.411C409.984 214.999 410.317 214.686 410.706 214.473C411.098 214.26 411.54 214.153 412.031 214.153C412.52 214.153 412.955 214.251 413.335 214.447C413.719 214.641 414.031 214.911 414.273 215.257C414.514 215.604 414.67 216.003 414.741 216.455H413.702C413.605 216.062 413.418 215.737 413.139 215.479C412.861 215.22 412.491 215.091 412.031 215.091C411.355 215.091 410.822 215.385 410.433 215.973C410.047 216.561 409.852 217.386 409.849 218.449H409.918C410.077 218.207 410.266 218.001 410.484 217.831C410.706 217.658 410.95 217.524 411.217 217.43C411.484 217.337 411.767 217.29 412.065 217.29C412.565 217.29 413.023 217.415 413.438 217.665C413.852 217.912 414.185 218.254 414.435 218.692C414.685 219.126 414.81 219.625 414.81 220.188C414.81 220.727 414.689 221.222 414.447 221.67C414.206 222.116 413.866 222.472 413.429 222.736C412.994 222.997 412.483 223.125 411.895 223.119ZM411.895 222.182C412.253 222.182 412.574 222.092 412.858 221.913C413.145 221.734 413.371 221.494 413.536 221.193C413.703 220.892 413.787 220.557 413.787 220.188C413.787 219.827 413.706 219.499 413.544 219.203C413.385 218.905 413.165 218.668 412.884 218.491C412.605 218.315 412.287 218.227 411.929 218.227C411.659 218.227 411.408 218.281 411.175 218.389C410.942 218.494 410.737 218.639 410.561 218.824C410.388 219.009 410.251 219.22 410.152 219.459C410.053 219.695 410.003 219.943 410.003 220.205C410.003 220.551 410.084 220.875 410.246 221.176C410.411 221.477 410.635 221.72 410.919 221.905C411.206 222.089 411.531 222.182 411.895 222.182ZM420.287 217.835V216.915H425.537V217.835H420.287ZM420.287 220.358V219.438H425.537V220.358H420.287ZM431.418 223L435.322 215.278V215.21H430.822V214.273H436.413V215.261L432.526 223H431.418ZM438.001 223V222.233L440.882 219.08C441.22 218.71 441.498 218.389 441.717 218.116C441.936 217.841 442.098 217.582 442.203 217.341C442.311 217.097 442.365 216.841 442.365 216.574C442.365 216.267 442.291 216.001 442.143 215.777C441.998 215.553 441.799 215.379 441.547 215.257C441.294 215.135 441.01 215.074 440.694 215.074C440.359 215.074 440.066 215.143 439.816 215.283C439.569 215.419 439.377 215.611 439.241 215.858C439.108 216.105 439.041 216.395 439.041 216.727H438.035C438.035 216.216 438.153 215.767 438.389 215.381C438.625 214.994 438.946 214.693 439.352 214.477C439.761 214.261 440.22 214.153 440.728 214.153C441.24 214.153 441.693 214.261 442.088 214.477C442.483 214.693 442.792 214.984 443.017 215.351C443.241 215.717 443.353 216.125 443.353 216.574C443.353 216.895 443.295 217.209 443.179 217.516C443.065 217.82 442.866 218.159 442.582 218.534C442.301 218.906 441.91 219.361 441.41 219.898L439.45 221.994V222.062H443.507V223H438.001ZM448.113 223.119C447.471 223.119 446.924 222.945 446.473 222.595C446.021 222.243 445.676 221.733 445.437 221.065C445.199 220.395 445.079 219.585 445.079 218.636C445.079 217.693 445.199 216.888 445.437 216.22C445.679 215.55 446.025 215.038 446.477 214.686C446.931 214.331 447.477 214.153 448.113 214.153C448.75 214.153 449.294 214.331 449.745 214.686C450.2 215.038 450.547 215.55 450.785 216.22C451.027 216.888 451.147 217.693 451.147 218.636C451.147 219.585 451.028 220.395 450.789 221.065C450.551 221.733 450.206 222.243 449.754 222.595C449.302 222.945 448.755 223.119 448.113 223.119ZM448.113 222.182C448.75 222.182 449.244 221.875 449.596 221.261C449.949 220.648 450.125 219.773 450.125 218.636C450.125 217.881 450.044 217.237 449.882 216.706C449.723 216.175 449.493 215.77 449.191 215.491C448.893 215.213 448.534 215.074 448.113 215.074C447.483 215.074 446.99 215.385 446.635 216.007C446.279 216.626 446.102 217.503 446.102 218.636C446.102 219.392 446.181 220.034 446.341 220.562C446.5 221.091 446.728 221.493 447.027 221.768C447.328 222.044 447.69 222.182 448.113 222.182ZM378.972 229.273V238H377.915V230.381H377.864L375.733 231.795V230.722L377.915 229.273H378.972ZM385.01 238V229.273H386.016V232.494H386.101C386.175 232.381 386.277 232.236 386.408 232.06C386.541 231.881 386.732 231.722 386.979 231.582C387.229 231.44 387.567 231.369 387.993 231.369C388.544 231.369 389.03 231.507 389.45 231.783C389.871 232.058 390.199 232.449 390.435 232.955C390.67 233.46 390.788 234.057 390.788 234.744C390.788 235.438 390.67 236.038 390.435 236.547C390.199 237.053 389.872 237.445 389.455 237.723C389.037 237.999 388.555 238.136 388.01 238.136C387.589 238.136 387.253 238.067 387 237.928C386.747 237.786 386.553 237.625 386.416 237.446C386.28 237.264 386.175 237.114 386.101 236.994H385.982V238H385.01ZM385.999 234.727C385.999 235.222 386.071 235.658 386.216 236.036C386.361 236.411 386.572 236.705 386.851 236.918C387.129 237.128 387.47 237.233 387.874 237.233C388.294 237.233 388.645 237.122 388.926 236.901C389.21 236.676 389.423 236.375 389.565 235.997C389.71 235.616 389.783 235.193 389.783 234.727C389.783 234.267 389.712 233.852 389.57 233.483C389.43 233.111 389.219 232.817 388.935 232.601C388.653 232.382 388.3 232.273 387.874 232.273C387.464 232.273 387.121 232.376 386.842 232.584C386.564 232.788 386.354 233.075 386.212 233.445C386.07 233.811 385.999 234.239 385.999 234.727ZM394.986 238.136C394.395 238.136 393.876 237.996 393.43 237.714C392.987 237.433 392.641 237.04 392.391 236.534C392.143 236.028 392.02 235.437 392.02 234.761C392.02 234.08 392.143 233.484 392.391 232.976C392.641 232.467 392.987 232.072 393.43 231.791C393.876 231.51 394.395 231.369 394.986 231.369C395.577 231.369 396.094 231.51 396.537 231.791C396.983 232.072 397.33 232.467 397.577 232.976C397.827 233.484 397.952 234.08 397.952 234.761C397.952 235.437 397.827 236.028 397.577 236.534C397.33 237.04 396.983 237.433 396.537 237.714C396.094 237.996 395.577 238.136 394.986 238.136ZM394.986 237.233C395.435 237.233 395.804 237.118 396.094 236.888C396.384 236.658 396.598 236.355 396.737 235.98C396.876 235.605 396.946 235.199 396.946 234.761C396.946 234.324 396.876 233.916 396.737 233.538C396.598 233.161 396.384 232.855 396.094 232.622C395.804 232.389 395.435 232.273 394.986 232.273C394.537 232.273 394.168 232.389 393.878 232.622C393.588 232.855 393.374 233.161 393.234 233.538C393.095 233.916 393.026 234.324 393.026 234.761C393.026 235.199 393.095 235.605 393.234 235.98C393.374 236.355 393.588 236.658 393.878 236.888C394.168 237.118 394.537 237.233 394.986 237.233ZM401.413 238.153C400.998 238.153 400.622 238.075 400.284 237.919C399.946 237.76 399.677 237.531 399.478 237.233C399.279 236.932 399.18 236.568 399.18 236.142C399.18 235.767 399.254 235.463 399.402 235.23C399.549 234.994 399.747 234.81 399.994 234.676C400.241 234.543 400.514 234.443 400.812 234.378C401.113 234.31 401.416 234.256 401.72 234.216C402.118 234.165 402.44 234.126 402.687 234.101C402.937 234.072 403.119 234.026 403.233 233.96C403.349 233.895 403.407 233.781 403.407 233.619V233.585C403.407 233.165 403.292 232.838 403.062 232.605C402.835 232.372 402.49 232.256 402.027 232.256C401.547 232.256 401.17 232.361 400.897 232.571C400.625 232.781 400.433 233.006 400.322 233.244L399.368 232.903C399.538 232.506 399.765 232.196 400.049 231.974C400.336 231.75 400.649 231.594 400.987 231.506C401.328 231.415 401.663 231.369 401.993 231.369C402.203 231.369 402.444 231.395 402.717 231.446C402.993 231.494 403.258 231.595 403.514 231.749C403.772 231.902 403.987 232.134 404.157 232.443C404.328 232.753 404.413 233.168 404.413 233.688V238H403.407V237.114H403.356C403.288 237.256 403.174 237.408 403.015 237.57C402.856 237.732 402.645 237.869 402.38 237.983C402.116 238.097 401.794 238.153 401.413 238.153ZM401.566 237.25C401.964 237.25 402.299 237.172 402.572 237.016C402.848 236.859 403.055 236.658 403.194 236.411C403.336 236.163 403.407 235.903 403.407 235.631V234.71C403.365 234.761 403.271 234.808 403.126 234.851C402.984 234.891 402.819 234.926 402.632 234.957C402.447 234.986 402.267 235.011 402.091 235.034C401.917 235.054 401.777 235.071 401.669 235.085C401.407 235.119 401.163 235.175 400.936 235.251C400.711 235.325 400.529 235.437 400.39 235.588C400.254 235.736 400.186 235.937 400.186 236.193C400.186 236.543 400.315 236.807 400.574 236.986C400.835 237.162 401.166 237.25 401.566 237.25ZM406.249 238V231.455H407.22V232.443H407.288C407.408 232.119 407.624 231.857 407.936 231.655C408.249 231.453 408.601 231.352 408.993 231.352C409.067 231.352 409.159 231.354 409.27 231.357C409.381 231.359 409.464 231.364 409.521 231.369V232.392C409.487 232.384 409.409 232.371 409.287 232.354C409.168 232.334 409.041 232.324 408.908 232.324C408.589 232.324 408.305 232.391 408.055 232.524C407.808 232.655 407.612 232.837 407.467 233.07C407.325 233.3 407.254 233.562 407.254 233.858V238H406.249ZM412.986 238.136C412.44 238.136 411.959 237.999 411.541 237.723C411.124 237.445 410.797 237.053 410.561 236.547C410.325 236.038 410.207 235.438 410.207 234.744C410.207 234.057 410.325 233.46 410.561 232.955C410.797 232.449 411.125 232.058 411.545 231.783C411.966 231.507 412.452 231.369 413.003 231.369C413.429 231.369 413.766 231.44 414.013 231.582C414.263 231.722 414.453 231.881 414.584 232.06C414.717 232.236 414.821 232.381 414.895 232.494H414.98V229.273H415.986V238H415.014V236.994H414.895C414.821 237.114 414.716 237.264 414.58 237.446C414.443 237.625 414.249 237.786 413.996 237.928C413.743 238.067 413.406 238.136 412.986 238.136ZM413.122 237.233C413.526 237.233 413.866 237.128 414.145 236.918C414.423 236.705 414.635 236.411 414.78 236.036C414.925 235.658 414.997 235.222 414.997 234.727C414.997 234.239 414.926 233.811 414.784 233.445C414.642 233.075 414.432 232.788 414.153 232.584C413.875 232.376 413.531 232.273 413.122 232.273C412.696 232.273 412.341 232.382 412.057 232.601C411.776 232.817 411.564 233.111 411.422 233.483C411.283 233.852 411.213 234.267 411.213 234.727C411.213 235.193 411.284 235.616 411.426 235.997C411.571 236.375 411.784 236.676 412.065 236.901C412.349 237.122 412.702 237.233 413.122 237.233ZM422.604 232.92L421.7 233.176C421.643 233.026 421.56 232.879 421.449 232.737C421.341 232.592 421.193 232.473 421.006 232.379C420.818 232.286 420.578 232.239 420.286 232.239C419.885 232.239 419.551 232.331 419.284 232.516C419.02 232.697 418.888 232.929 418.888 233.21C418.888 233.46 418.979 233.658 419.161 233.803C419.342 233.947 419.626 234.068 420.013 234.165L420.984 234.403C421.57 234.545 422.006 234.763 422.293 235.055C422.58 235.345 422.723 235.719 422.723 236.176C422.723 236.551 422.615 236.886 422.399 237.182C422.186 237.477 421.888 237.71 421.504 237.881C421.121 238.051 420.675 238.136 420.166 238.136C419.499 238.136 418.946 237.991 418.509 237.702C418.071 237.412 417.794 236.989 417.678 236.432L418.632 236.193C418.723 236.545 418.895 236.81 419.148 236.986C419.403 237.162 419.737 237.25 420.149 237.25C420.618 237.25 420.99 237.151 421.266 236.952C421.544 236.75 421.683 236.509 421.683 236.227C421.683 236 421.604 235.81 421.445 235.656C421.286 235.5 421.041 235.384 420.712 235.307L419.621 235.051C419.021 234.909 418.581 234.689 418.3 234.391C418.021 234.089 417.882 233.713 417.882 233.261C417.882 232.892 417.986 232.565 418.193 232.281C418.403 231.997 418.689 231.774 419.05 231.612C419.413 231.45 419.825 231.369 420.286 231.369C420.933 231.369 421.442 231.511 421.811 231.795C422.183 232.08 422.447 232.455 422.604 232.92Z" fill="black"/>
<rect x="394" y="399" width="420" height="200" fill="#D9D9D9"/>
<rect x="418" y="564" width="21" height="35" fill="#E78F0B"/>
<rect x="498" y="564" width="21" height="35" fill="#E78F0B"/>
<rect x="576" y="564" width="21" height="35" fill="#E78F0B"/>
<rect x="678" y="564" width="21" height="35" fill="#E78F0B"/>
<rect x="773" y="564" width="21" height="35" fill="#E78F0B"/>
<rect x="394" y="549" width="420" height="15" fill="#ED1010"/>
<rect x="411" y="444" width="35" height="120" fill="#44E70B"/>
<rect x="569" y="444" width="35" height="120" fill="#44E70B"/>
<rect x="766" y="444" width="35" height="120" fill="#44E70B"/>
<rect x="394" y="444" width="35" height="420" transform="rotate(-90 394 444)" fill="#0B70E7"/>
<path d="M607.767 92.4545V93.3068H604.375V92.4545H607.767ZM605.364 90.8864H606.369V97.125C606.369 97.4091 606.411 97.6222 606.493 97.7642C606.578 97.9034 606.686 97.9972 606.817 98.0455C606.95 98.0909 607.091 98.1136 607.239 98.1136C607.349 98.1136 607.44 98.108 607.511 98.0966C607.582 98.0824 607.639 98.071 607.682 98.0625L607.886 98.9659C607.818 98.9915 607.723 99.017 607.601 99.0426C607.479 99.071 607.324 99.0852 607.136 99.0852C606.852 99.0852 606.574 99.0241 606.301 98.902C606.031 98.7798 605.807 98.5938 605.628 98.3438C605.452 98.0938 605.364 97.7784 605.364 97.3977V90.8864ZM611.869 99.1364C611.278 99.1364 610.759 98.9957 610.313 98.7145C609.87 98.4332 609.523 98.0398 609.273 97.5341C609.026 97.0284 608.903 96.4375 608.903 95.7614C608.903 95.0795 609.026 94.4844 609.273 93.9759C609.523 93.4673 609.87 93.0724 610.313 92.7912C610.759 92.5099 611.278 92.3693 611.869 92.3693C612.46 92.3693 612.977 92.5099 613.42 92.7912C613.866 93.0724 614.212 93.4673 614.46 93.9759C614.71 94.4844 614.835 95.0795 614.835 95.7614C614.835 96.4375 614.71 97.0284 614.46 97.5341C614.212 98.0398 613.866 98.4332 613.42 98.7145C612.977 98.9957 612.46 99.1364 611.869 99.1364ZM611.869 98.233C612.317 98.233 612.687 98.1179 612.977 97.8878C613.266 97.6577 613.481 97.3551 613.62 96.9801C613.759 96.6051 613.829 96.1989 613.829 95.7614C613.829 95.3239 613.759 94.9162 613.62 94.5384C613.481 94.1605 613.266 93.8551 612.977 93.6222C612.687 93.3892 612.317 93.2727 611.869 93.2727C611.42 93.2727 611.05 93.3892 610.761 93.6222C610.471 93.8551 610.256 94.1605 610.117 94.5384C609.978 94.9162 609.908 95.3239 609.908 95.7614C609.908 96.1989 609.978 96.6051 610.117 96.9801C610.256 97.3551 610.471 97.6577 610.761 97.8878C611.05 98.1179 611.42 98.233 611.869 98.233ZM619.216 92.4545V93.3068H615.824V92.4545H619.216ZM616.813 90.8864H617.819V97.125C617.819 97.4091 617.86 97.6222 617.942 97.7642C618.027 97.9034 618.135 97.9972 618.266 98.0455C618.4 98.0909 618.54 98.1136 618.688 98.1136C618.799 98.1136 618.89 98.108 618.961 98.0966C619.032 98.0824 619.088 98.071 619.131 98.0625L619.336 98.9659C619.267 98.9915 619.172 99.017 619.05 99.0426C618.928 99.071 618.773 99.0852 618.586 99.0852C618.301 99.0852 618.023 99.0241 617.75 98.902C617.48 98.7798 617.256 98.5938 617.077 98.3438C616.901 98.0938 616.813 97.7784 616.813 97.3977V90.8864ZM622.655 99.1534C622.24 99.1534 621.864 99.0753 621.526 98.919C621.188 98.7599 620.919 98.5312 620.721 98.233C620.522 97.9318 620.422 97.5682 620.422 97.142C620.422 96.767 620.496 96.4631 620.644 96.2301C620.792 95.9943 620.989 95.8097 621.236 95.6761C621.483 95.5426 621.756 95.4432 622.054 95.3778C622.355 95.3097 622.658 95.2557 622.962 95.2159C623.36 95.1648 623.682 95.1264 623.929 95.1009C624.179 95.0724 624.361 95.0256 624.475 94.9602C624.591 94.8949 624.65 94.7812 624.65 94.6193V94.5852C624.65 94.1648 624.534 93.8381 624.304 93.6051C624.077 93.3722 623.732 93.2557 623.269 93.2557C622.789 93.2557 622.412 93.3608 622.14 93.571C621.867 93.7812 621.675 94.0057 621.564 94.2443L620.61 93.9034C620.78 93.5057 621.007 93.196 621.292 92.9744C621.578 92.75 621.891 92.5937 622.229 92.5057C622.57 92.4148 622.905 92.3693 623.235 92.3693C623.445 92.3693 623.686 92.3949 623.959 92.446C624.235 92.4943 624.5 92.5952 624.756 92.7486C625.015 92.902 625.229 93.1335 625.4 93.4432C625.57 93.7528 625.655 94.1676 625.655 94.6875V99H624.65V98.1136H624.598C624.53 98.2557 624.417 98.4077 624.257 98.5696C624.098 98.7315 623.887 98.8693 623.623 98.983C623.358 99.0966 623.036 99.1534 622.655 99.1534ZM622.809 98.25C623.206 98.25 623.542 98.1719 623.814 98.0156C624.09 97.8594 624.297 97.6577 624.436 97.4105C624.578 97.1634 624.65 96.9034 624.65 96.6307V95.7102C624.607 95.7614 624.513 95.8082 624.368 95.8509C624.226 95.8906 624.061 95.9261 623.874 95.9574C623.689 95.9858 623.509 96.0114 623.333 96.0341C623.159 96.054 623.019 96.071 622.911 96.0852C622.65 96.1193 622.405 96.1747 622.178 96.2514C621.953 96.3253 621.772 96.4375 621.632 96.5881C621.496 96.7358 621.428 96.9375 621.428 97.1932C621.428 97.5426 621.557 97.8068 621.816 97.9858C622.077 98.1619 622.408 98.25 622.809 98.25ZM628.496 90.2727V99H627.491V90.2727H628.496ZM604.699 112.21V111.341L608.534 105.273H609.165V106.619H608.739L605.841 111.205V111.273H611.006V112.21H604.699ZM608.807 114V111.946V111.541V105.273H609.812V114H608.807ZM612.398 112.21V111.341L616.233 105.273H616.864V106.619H616.438L613.54 111.205V111.273H618.705V112.21H612.398ZM616.506 114V111.946V111.541V105.273H617.512V114H616.506ZM620.097 112.21V111.341L623.933 105.273H624.563V106.619H624.137L621.239 111.205V111.273H626.404V112.21H620.097ZM624.205 114V111.946V111.541V105.273H625.211V114H624.205ZM628.341 114.068C628.131 114.068 627.95 113.993 627.8 113.842C627.649 113.692 627.574 113.511 627.574 113.301C627.574 113.091 627.649 112.911 627.8 112.76C627.95 112.609 628.131 112.534 628.341 112.534C628.551 112.534 628.732 112.609 628.882 112.76C629.033 112.911 629.108 113.091 629.108 113.301C629.108 113.44 629.072 113.568 629.001 113.685C628.933 113.801 628.841 113.895 628.724 113.966C628.611 114.034 628.483 114.068 628.341 114.068ZM633.438 114.119C632.795 114.119 632.249 113.945 631.797 113.595C631.345 113.243 631 112.733 630.761 112.065C630.523 111.395 630.403 110.585 630.403 109.636C630.403 108.693 630.523 107.888 630.761 107.22C631.003 106.55 631.349 106.038 631.801 105.686C632.256 105.331 632.801 105.153 633.438 105.153C634.074 105.153 634.618 105.331 635.07 105.686C635.524 106.038 635.871 106.55 636.109 107.22C636.351 107.888 636.472 108.693 636.472 109.636C636.472 110.585 636.352 111.395 636.114 112.065C635.875 112.733 635.53 113.243 635.078 113.595C634.626 113.945 634.08 114.119 633.438 114.119ZM633.438 113.182C634.074 113.182 634.568 112.875 634.92 112.261C635.273 111.648 635.449 110.773 635.449 109.636C635.449 108.881 635.368 108.237 635.206 107.706C635.047 107.175 634.817 106.77 634.516 106.491C634.217 106.213 633.858 106.074 633.438 106.074C632.807 106.074 632.314 106.385 631.959 107.007C631.604 107.626 631.426 108.503 631.426 109.636C631.426 110.392 631.506 111.034 631.665 111.562C631.824 112.091 632.053 112.493 632.351 112.768C632.652 113.044 633.014 113.182 633.438 113.182ZM638.108 114V107.455H639.114V114H638.108ZM638.619 106.364C638.423 106.364 638.254 106.297 638.112 106.163C637.973 106.03 637.903 105.869 637.903 105.682C637.903 105.494 637.973 105.334 638.112 105.2C638.254 105.067 638.423 105 638.619 105C638.815 105 638.983 105.067 639.122 105.2C639.264 105.334 639.335 105.494 639.335 105.682C639.335 105.869 639.264 106.03 639.122 106.163C638.983 106.297 638.815 106.364 638.619 106.364ZM641.961 110.062V114H640.956V107.455H641.927V108.477H642.012C642.166 108.145 642.399 107.878 642.711 107.676C643.024 107.472 643.427 107.369 643.922 107.369C644.365 107.369 644.752 107.46 645.085 107.642C645.417 107.821 645.676 108.094 645.86 108.46C646.045 108.824 646.137 109.284 646.137 109.841V114H645.132V109.909C645.132 109.395 644.998 108.994 644.731 108.707C644.464 108.418 644.098 108.273 643.632 108.273C643.311 108.273 643.024 108.342 642.771 108.482C642.521 108.621 642.324 108.824 642.179 109.091C642.034 109.358 641.961 109.682 641.961 110.062ZM652.356 105.273V114H651.35V105.273H652.356ZM656.942 114.136C656.311 114.136 655.767 113.997 655.31 113.719C654.855 113.438 654.505 113.045 654.257 112.543C654.013 112.037 653.891 111.449 653.891 110.778C653.891 110.108 654.013 109.517 654.257 109.006C654.505 108.491 654.848 108.091 655.289 107.804C655.732 107.514 656.249 107.369 656.84 107.369C657.181 107.369 657.517 107.426 657.85 107.54C658.182 107.653 658.485 107.838 658.757 108.094C659.03 108.347 659.248 108.682 659.409 109.099C659.571 109.517 659.652 110.031 659.652 110.642V111.068H654.607V110.199H658.63C658.63 109.83 658.556 109.5 658.408 109.21C658.263 108.92 658.056 108.692 657.786 108.524C657.519 108.357 657.203 108.273 656.84 108.273C656.439 108.273 656.093 108.372 655.8 108.571C655.51 108.767 655.287 109.023 655.131 109.338C654.975 109.653 654.897 109.991 654.897 110.352V110.932C654.897 111.426 654.982 111.845 655.152 112.189C655.326 112.53 655.566 112.79 655.873 112.969C656.179 113.145 656.536 113.233 656.942 113.233C657.206 113.233 657.445 113.196 657.658 113.122C657.874 113.045 658.06 112.932 658.216 112.781C658.373 112.628 658.493 112.437 658.578 112.21L659.55 112.483C659.448 112.812 659.276 113.102 659.034 113.352C658.793 113.599 658.495 113.793 658.14 113.932C657.784 114.068 657.385 114.136 656.942 114.136ZM662.188 110.062V114H661.182V107.455H662.154V108.477H662.239C662.392 108.145 662.625 107.878 662.938 107.676C663.25 107.472 663.654 107.369 664.148 107.369C664.591 107.369 664.979 107.46 665.311 107.642C665.644 107.821 665.902 108.094 666.087 108.46C666.272 108.824 666.364 109.284 666.364 109.841V114H665.358V109.909C665.358 109.395 665.225 108.994 664.958 108.707C664.691 108.418 664.324 108.273 663.858 108.273C663.537 108.273 663.25 108.342 662.998 108.482C662.748 108.621 662.55 108.824 662.405 109.091C662.26 109.358 662.188 109.682 662.188 110.062ZM670.844 116.591C670.358 116.591 669.94 116.528 669.591 116.403C669.241 116.281 668.95 116.119 668.717 115.918C668.487 115.719 668.304 115.506 668.168 115.278L668.969 114.716C669.06 114.835 669.175 114.972 669.314 115.125C669.453 115.281 669.643 115.416 669.885 115.53C670.129 115.646 670.449 115.705 670.844 115.705C671.372 115.705 671.808 115.577 672.152 115.321C672.496 115.065 672.668 114.665 672.668 114.119V112.79H672.582C672.509 112.909 672.403 113.057 672.267 113.233C672.134 113.406 671.94 113.561 671.688 113.697C671.438 113.831 671.099 113.898 670.673 113.898C670.145 113.898 669.67 113.773 669.25 113.523C668.832 113.273 668.501 112.909 668.257 112.432C668.016 111.955 667.895 111.375 667.895 110.693C667.895 110.023 668.013 109.439 668.249 108.942C668.484 108.442 668.813 108.055 669.233 107.783C669.653 107.507 670.139 107.369 670.69 107.369C671.116 107.369 671.455 107.44 671.705 107.582C671.957 107.722 672.151 107.881 672.284 108.06C672.42 108.236 672.526 108.381 672.599 108.494H672.702V107.455H673.673V114.188C673.673 114.75 673.545 115.207 673.29 115.56C673.037 115.915 672.696 116.175 672.267 116.339C671.841 116.507 671.366 116.591 670.844 116.591ZM670.81 112.994C671.213 112.994 671.554 112.902 671.832 112.717C672.111 112.533 672.322 112.267 672.467 111.92C672.612 111.574 672.685 111.159 672.685 110.676C672.685 110.205 672.614 109.788 672.472 109.428C672.33 109.067 672.119 108.784 671.841 108.58C671.563 108.375 671.219 108.273 670.81 108.273C670.384 108.273 670.028 108.381 669.744 108.597C669.463 108.812 669.251 109.102 669.109 109.466C668.97 109.83 668.901 110.233 668.901 110.676C668.901 111.131 668.972 111.533 669.114 111.882C669.259 112.229 669.472 112.501 669.753 112.7C670.037 112.896 670.389 112.994 670.81 112.994ZM678.361 107.455V108.307H674.969V107.455H678.361ZM675.957 105.886H676.963V112.125C676.963 112.409 677.004 112.622 677.087 112.764C677.172 112.903 677.28 112.997 677.411 113.045C677.544 113.091 677.685 113.114 677.832 113.114C677.943 113.114 678.034 113.108 678.105 113.097C678.176 113.082 678.233 113.071 678.276 113.062L678.48 113.966C678.412 113.991 678.317 114.017 678.195 114.043C678.072 114.071 677.918 114.085 677.73 114.085C677.446 114.085 677.168 114.024 676.895 113.902C676.625 113.78 676.401 113.594 676.222 113.344C676.045 113.094 675.957 112.778 675.957 112.398V105.886ZM681.02 110.062V114H680.014V105.273H681.02V108.477H681.105C681.259 108.139 681.489 107.871 681.795 107.672C682.105 107.47 682.517 107.369 683.031 107.369C683.477 107.369 683.868 107.459 684.203 107.638C684.538 107.814 684.798 108.085 684.983 108.452C685.17 108.815 685.264 109.278 685.264 109.841V114H684.259V109.909C684.259 109.389 684.124 108.987 683.854 108.703C683.587 108.416 683.216 108.273 682.741 108.273C682.412 108.273 682.116 108.342 681.855 108.482C681.597 108.621 681.392 108.824 681.241 109.091C681.094 109.358 681.02 109.682 681.02 110.062ZM607.852 144.119C607.29 144.119 606.788 144.023 606.348 143.83C605.911 143.636 605.563 143.368 605.304 143.024C605.048 142.678 604.909 142.276 604.886 141.818H605.96C605.983 142.099 606.08 142.342 606.25 142.547C606.42 142.749 606.643 142.905 606.919 143.016C607.195 143.126 607.5 143.182 607.835 143.182C608.21 143.182 608.543 143.116 608.832 142.986C609.122 142.855 609.349 142.673 609.514 142.44C609.679 142.207 609.761 141.938 609.761 141.631C609.761 141.31 609.682 141.027 609.523 140.783C609.364 140.536 609.131 140.342 608.824 140.203C608.517 140.064 608.142 139.994 607.699 139.994H607V139.057H607.699C608.045 139.057 608.349 138.994 608.611 138.869C608.875 138.744 609.081 138.568 609.229 138.341C609.379 138.114 609.455 137.847 609.455 137.54C609.455 137.244 609.389 136.987 609.259 136.768C609.128 136.55 608.943 136.379 608.705 136.257C608.469 136.135 608.19 136.074 607.869 136.074C607.568 136.074 607.284 136.129 607.017 136.24C606.753 136.348 606.537 136.506 606.369 136.713C606.202 136.918 606.111 137.165 606.097 137.455H605.074C605.091 136.997 605.229 136.597 605.487 136.253C605.746 135.906 606.084 135.636 606.501 135.443C606.922 135.25 607.384 135.153 607.886 135.153C608.426 135.153 608.889 135.263 609.276 135.482C609.662 135.697 609.959 135.983 610.166 136.338C610.374 136.693 610.477 137.077 610.477 137.489C610.477 137.98 610.348 138.399 610.089 138.746C609.834 139.092 609.486 139.332 609.045 139.466V139.534C609.597 139.625 610.027 139.859 610.337 140.237C610.646 140.612 610.801 141.077 610.801 141.631C610.801 142.105 610.672 142.531 610.413 142.909C610.158 143.284 609.808 143.58 609.365 143.795C608.922 144.011 608.418 144.119 607.852 144.119ZM612.817 144L616.72 136.278V136.21H612.22V135.273H617.811V136.261L613.925 144H612.817ZM625.706 137.455V138.307H622.178V137.455H625.706ZM623.235 144V136.551C623.235 136.176 623.323 135.864 623.499 135.614C623.675 135.364 623.904 135.176 624.185 135.051C624.466 134.926 624.763 134.864 625.076 134.864C625.323 134.864 625.525 134.884 625.681 134.923C625.837 134.963 625.953 135 626.03 135.034L625.74 135.903C625.689 135.886 625.618 135.865 625.527 135.839C625.439 135.814 625.323 135.801 625.178 135.801C624.846 135.801 624.605 135.885 624.458 136.053C624.313 136.22 624.24 136.466 624.24 136.79V144H623.235ZM629.962 137.455V138.307H626.57V137.455H629.962ZM627.559 135.886H628.565V142.125C628.565 142.409 628.606 142.622 628.688 142.764C628.773 142.903 628.881 142.997 629.012 143.045C629.146 143.091 629.286 143.114 629.434 143.114C629.545 143.114 629.636 143.108 629.707 143.097C629.778 143.082 629.835 143.071 629.877 143.062L630.082 143.966C630.013 143.991 629.918 144.017 629.796 144.043C629.674 144.071 629.519 144.085 629.332 144.085C629.048 144.085 628.769 144.024 628.496 143.902C628.227 143.78 628.002 143.594 627.823 143.344C627.647 143.094 627.559 142.778 627.559 142.398V135.886Z" fill="black"/>
</svg>
