<?xml version="1.0" encoding="utf-8"?>
<!-- Generator: Adobe Illustrator 26.0.2, SVG Export Plug-In . SVG Version: 6.00 Build 0)  -->
<svg version="1.0" id="Layer_2" xmlns="http://www.w3.org/2000/svg" xmlns:xlink="http://www.w3.org/1999/xlink" x="0px" y="0px"
	 viewBox="0 0 3000 3000" style="enable-background:new 0 0 3000 3000;" xml:space="preserve">
<style type="text/css">
	.st0{fill:#CE5B32;}
	.st1{fill:#D89E28;}
	.st2{fill:#CC4F35;}
	.st3{fill:none;}
	.st4{fill:#AF916A;}
	.st5{fill:#5E524A;}
	.st6{fill:#4D8599;}
	.st7{fill:#A4AD70;}
	.st8{fill:#979960;}
</style>
<g>
	<g>
		<circle class="st0" cx="1500" cy="1500" r="186.75"/>
	</g>
	<g>
		<g>
			<g>
				<g>
					<path class="st0" d="M1546.66,1387.35V806.01c0-24.53,0.62-49.75,1.85-74.96c2.84-58.34,26.71-112.44,67.21-152.33
						c76.5-75.37,190.04-97.52,289.26-56.42l0,0c99.21,41.1,163.84,137.04,164.64,244.43c0.42,56.85-20.95,111.98-60.19,155.24
						c-16.94,18.68-34.34,36.96-51.69,54.31L1546.66,1387.35z M1802.86,650.09c-30.53,0-60.5,11.82-83.16,34.15
						c-13.94,13.74-22.19,32.92-23.21,54.02c-1.11,22.82-1.68,45.61-1.68,67.75v223.7l158.18-158.18
						c15.66-15.66,31.38-32.18,46.72-49.09c14.2-15.65,21.93-35.04,21.79-54.62c-0.36-47.75-29.09-90.4-73.19-108.67
						C1833.57,653.05,1818.14,650.09,1802.86,650.09z"/>
				</g>
				<g>
					<path class="st1" d="M1876.64,590.72c-73.69-30.52-155.47-11.91-208.93,40.76c-27.66,27.25-43.32,64.4-45.21,103.18
						c-0.93,19.14-1.76,43.89-1.76,71.35c0,58.39,0,253.95,0,402.52c105.05-105.05,243.34-243.34,284.62-284.63
						c19.42-19.42,36.34-37.51,49.21-51.7c26.08-28.76,41.28-66.1,40.99-104.93C1994.99,692.23,1950.33,621.24,1876.64,590.72z"/>
				</g>
			</g>
		</g>
		<g>
			<g>
				<g>
					<path class="st0" d="M1197.23,2498.1c-34.39,0-69.1-6.67-102.21-20.39c-99.21-41.09-163.84-137.04-164.64-244.43
						c-0.42-56.85,20.95-111.98,60.19-155.24c16.96-18.7,34.35-36.97,51.69-54.31l411.07-411.07v581.34
						c0,24.53-0.62,49.75-1.85,74.96c-2.84,58.34-26.71,112.44-67.21,152.34C1333.3,2471.51,1265.89,2498.1,1197.23,2498.1z
						 M1305.2,1970.29l-158.18,158.18c-15.65,15.65-31.37,32.17-46.72,49.09c-14.19,15.65-21.93,35.04-21.78,54.61
						c0.36,47.75,29.09,90.4,73.19,108.67l0,0c44.11,18.27,94.58,8.42,128.6-25.09c13.94-13.74,22.19-32.92,23.22-54.02
						c1.11-22.82,1.68-45.61,1.68-67.75V1970.29z"/>
				</g>
				<g>
					<path class="st1" d="M1123.36,2409.28c73.69,30.52,155.47,11.91,208.93-40.76c27.66-27.25,43.32-64.4,45.21-103.18
						c0.93-19.14,1.76-43.89,1.76-71.35c0-58.39,0-253.95,0-402.52c-105.05,105.05-243.34,243.34-284.62,284.63
						c-19.42,19.42-36.34,37.51-49.21,51.7c-26.08,28.76-41.28,66.1-40.99,104.93C1005.01,2307.77,1049.67,2378.76,1123.36,2409.28z
						"/>
				</g>
			</g>
		</g>
	</g>
	<g>
		<g>
			<g>
				<g>
					<path class="st0" d="M1453.34,1387.35l-411.07-411.07c-17.34-17.34-34.73-35.62-51.7-54.31
						c-39.24-43.26-60.61-98.39-60.19-155.24c0.8-107.39,65.42-203.34,164.64-244.43c99.21-41.1,212.75-18.95,289.26,56.42
						c40.5,39.9,64.37,94,67.21,152.34c1.23,25.21,1.85,50.43,1.85,74.96L1453.34,1387.35z M1151.71,659.15L1151.71,659.15
						c-44.11,18.27-72.84,60.93-73.19,108.67c-0.15,19.57,7.59,38.97,21.78,54.61c15.35,16.92,31.07,33.44,46.72,49.09
						l158.18,158.18l0-223.7c0-22.14-0.56-44.93-1.68-67.75c-1.03-21.1-9.27-40.29-23.21-54.02
						C1246.3,650.73,1195.81,640.89,1151.71,659.15z"/>
				</g>
				<g>
					<path class="st1" d="M1123.36,590.72c-73.69,30.52-118.36,101.51-118.92,176.55c-0.29,38.82,14.9,76.17,40.99,104.93
						c12.87,14.19,29.79,32.28,49.21,51.7c41.28,41.28,179.57,179.57,284.62,284.62c0-148.57,0-344.13,0-402.52
						c0-27.46-0.83-52.22-1.76-71.35c-1.89-38.78-17.56-75.93-45.21-103.18C1278.84,578.81,1197.05,560.2,1123.36,590.72z"/>
				</g>
			</g>
		</g>
		<g>
			<g>
				<g>
					<path class="st0" d="M1802.77,2498.1c-68.67,0-136.07-26.59-187.05-76.81c-40.5-39.9-64.37-94-67.21-152.33
						c-1.23-25.22-1.85-50.44-1.85-74.96l0-581.34l411.07,411.07c17.34,17.34,34.74,35.62,51.7,54.31
						c39.24,43.26,60.62,98.39,60.19,155.24c-0.8,107.39-65.42,203.34-164.64,244.43C1871.88,2491.43,1837.16,2498.1,1802.77,2498.1
						z M1694.8,1970.29l0,223.7c0,22.13,0.56,44.92,1.68,67.75c1.03,21.1,9.27,40.28,23.22,54.02
						c22.66,22.33,52.64,34.15,83.16,34.15c15.29,0,30.72-2.97,45.44-9.06c44.11-18.27,72.84-60.93,73.19-108.67
						c0.15-19.57-7.59-38.97-21.78-54.61c-15.35-16.92-31.07-33.44-46.72-49.09L1694.8,1970.29z"/>
				</g>
				<g>
					<path class="st1" d="M1876.64,2409.28c73.69-30.52,118.36-101.51,118.92-176.55c0.29-38.82-14.9-76.17-40.99-104.93
						c-12.87-14.19-29.79-32.28-49.21-51.7c-41.28-41.28-179.57-179.57-284.62-284.62c0,148.57,0,344.13,0,402.52
						c0,27.46,0.83,52.22,1.76,71.35c1.89,38.78,17.56,75.93,45.21,103.18C1721.16,2421.19,1802.95,2439.8,1876.64,2409.28z"/>
				</g>
			</g>
		</g>
	</g>
	<g>
		<g>
			<g>
				<g>
					<path class="st0" d="M1387.35,1453.34H806.01c-24.53,0-49.75-0.62-74.96-1.85c-58.34-2.84-112.44-26.71-152.34-67.21
						c-75.37-76.5-97.52-190.04-56.42-289.26h0c41.1-99.21,137.04-163.84,244.43-164.64c0.55,0,1.1-0.01,1.66-0.01
						c56.26,0,110.75,21.34,153.59,60.2c18.7,16.96,36.97,34.35,54.31,51.69L1387.35,1453.34z M659.15,1151.71
						c-18.27,44.11-8.42,94.59,25.09,128.6c13.74,13.94,32.92,22.19,54.02,23.21c22.82,1.11,45.61,1.68,67.75,1.68h223.7
						l-158.18-158.18c-15.65-15.65-32.16-31.37-49.09-46.72c-15.65-14.19-35.05-21.89-54.61-21.78
						C720.08,1078.87,677.42,1107.6,659.15,1151.71L659.15,1151.71z"/>
				</g>
				<g>
					<path class="st1" d="M590.72,1123.36c-30.52,73.69-11.91,155.47,40.76,208.93c27.25,27.66,64.4,43.32,103.18,45.21
						c19.14,0.93,43.89,1.76,71.35,1.76c58.39,0,253.95,0,402.52,0c-105.05-105.05-243.34-243.34-284.63-284.62
						c-19.42-19.42-37.51-36.34-51.7-49.21c-28.76-26.08-66.1-41.28-104.93-40.99C692.23,1005.01,621.24,1049.67,590.72,1123.36z"/>
				</g>
			</g>
		</g>
		<g>
			<g>
				<g>
					<path class="st0" d="M2231.62,2069.62c-56.26,0-110.75-21.34-153.59-60.2c-18.69-16.95-36.96-34.35-54.31-51.7l-411.07-411.07
						h581.34c24.52,0,49.74,0.62,74.96,1.85c58.34,2.84,112.44,26.71,152.34,67.21c75.37,76.5,97.52,190.04,56.42,289.25
						l-68.43-28.34l68.43,28.34c-41.1,99.21-137.04,163.84-244.43,164.64C2232.73,2069.62,2232.18,2069.62,2231.62,2069.62z
						 M1970.29,1694.8l158.18,158.18c15.66,15.66,32.17,31.37,49.09,46.72c15.5,14.06,34.69,21.79,54.07,21.79c0.18,0,0.36,0,0.54,0
						c47.75-0.36,90.4-29.08,108.67-73.19c18.27-44.11,8.42-94.58-25.09-128.6c-13.74-13.94-32.92-22.19-54.02-23.21
						c-22.83-1.11-45.62-1.68-67.75-1.68H1970.29z"/>
				</g>
				<g>
					<path class="st1" d="M2409.28,1876.64c30.52-73.69,11.91-155.47-40.76-208.93c-27.25-27.66-64.4-43.32-103.18-45.21
						c-19.14-0.93-43.89-1.76-71.35-1.76c-58.39,0-253.95,0-402.52,0c105.05,105.05,243.34,243.34,284.63,284.62
						c19.42,19.42,37.51,36.34,51.7,49.21c28.76,26.08,66.1,41.28,104.93,40.99C2307.77,1994.99,2378.76,1950.33,2409.28,1876.64z"
						/>
				</g>
			</g>
		</g>
	</g>
	<g>
		<g>
			<g>
				<g>
					<path class="st0" d="M768.38,2069.62c-0.55,0-1.1,0-1.66-0.01c-107.39-0.8-203.34-65.42-244.43-164.64
						c-41.1-99.21-18.95-212.75,56.42-289.25c39.9-40.5,94-64.37,152.34-67.21c25.19-1.23,50.41-1.85,74.96-1.85h581.34
						l-411.07,411.07c-17.35,17.35-35.62,34.74-54.31,51.7C879.12,2048.28,824.63,2069.62,768.38,2069.62z M806.01,1694.8
						c-22.15,0-44.94,0.56-67.74,1.68c-21.1,1.03-40.29,9.27-54.02,23.21c-33.51,34.01-43.36,84.49-25.09,128.6
						c18.27,44.11,60.93,72.84,108.67,73.19c19.58,0.16,38.97-7.59,54.61-21.78c16.92-15.35,33.43-31.06,49.09-46.72l158.18-158.18
						H806.01z"/>
				</g>
				<g>
					<path class="st1" d="M590.72,1876.64c30.52,73.69,101.51,118.36,176.55,118.92c38.82,0.29,76.17-14.9,104.93-40.99
						c14.19-12.87,32.28-29.79,51.7-49.21c41.28-41.28,179.57-179.57,284.62-284.62c-148.57,0-344.13,0-402.52,0
						c-27.46,0-52.22,0.83-71.35,1.76c-38.78,1.89-75.93,17.56-103.18,45.21C578.81,1721.16,560.2,1802.95,590.72,1876.64z"/>
				</g>
			</g>
		</g>
		<g>
			<g>
				<g>
					<path class="st0" d="M2193.99,1453.34h-581.34l411.07-411.07c17.33-17.33,35.61-34.73,54.31-51.69
						c43.26-39.24,98.38-60.58,155.24-60.19c107.39,0.8,203.34,65.42,244.43,164.64v0c41.1,99.21,18.95,212.75-56.42,289.26
						c-39.9,40.5-94,64.37-152.33,67.21C2243.75,1452.71,2218.53,1453.34,2193.99,1453.34z M1970.29,1305.2h223.7
						c22.14,0,44.93-0.56,67.75-1.68c21.1-1.03,40.28-9.27,54.02-23.22c33.51-34.01,43.36-84.49,25.09-128.6
						c-18.27-44.11-60.93-72.84-108.67-73.19c-0.18,0-0.36,0-0.54,0c-19.39,0-38.57,7.72-54.07,21.79
						c-16.93,15.36-33.45,31.08-49.09,46.72L1970.29,1305.2z"/>
				</g>
				<g>
					<path class="st1" d="M2409.28,1123.36c-30.52-73.69-101.51-118.36-176.55-118.92c-38.82-0.29-76.17,14.9-104.93,40.99
						c-14.19,12.87-32.28,29.79-51.7,49.21c-41.28,41.28-179.57,179.57-284.62,284.62c148.57,0,344.13,0,402.52,0
						c27.46,0,52.22-0.83,71.35-1.76c38.78-1.89,75.93-17.56,103.18-45.21C2421.19,1278.84,2439.8,1197.05,2409.28,1123.36z"/>
				</g>
			</g>
		</g>
	</g>
</g>
</svg>
