<?xml version="1.0" encoding="utf-8"?>
<!-- Generator: Adobe Illustrator 26.0.2, SVG Export Plug-In . SVG Version: 6.00 Build 0)  -->
<svg version="1.0" id="Layer_2" xmlns="http://www.w3.org/2000/svg" xmlns:xlink="http://www.w3.org/1999/xlink" x="0px" y="0px"
	 viewBox="0 0 3000 3000" style="enable-background:new 0 0 3000 3000;" xml:space="preserve">
<style type="text/css">
	.st0{fill:#CE5B32;}
	.st1{fill:#D89E28;}
	.st2{fill:#CC4F35;}
	.st3{fill:none;}
	.st4{fill:#AF916A;}
	.st5{fill:#5E524A;}
	.st6{fill:#4D8599;}
	.st7{fill:#A4AD70;}
	.st8{fill:#979960;}
</style>
<g>
	<g>
		<polygon class="st6" points="1709.8,1136.62 1290.2,1136.62 1080.4,1500 1290.2,1863.38 1709.8,1863.38 1919.6,1500 		"/>
	</g>
	<g>
		<g>
			<g>
				<rect x="1744.15" y="1381.34" class="st6" width="580.24" height="237.32"/>
			</g>
			<g>
				<polygon class="st6" points="2273,1304.56 2047.33,1304.56 1934.49,1500 2047.33,1695.44 2273,1695.44 2385.84,1500 				"/>
			</g>
			<g>
				<polygon class="st7" points="2354.48,1304.56 2128.81,1304.56 2015.97,1500 2128.81,1695.44 2354.48,1695.44 2467.32,1500 				
					"/>
			</g>
			<g>
				<polygon class="st6" points="2471.92,1304.56 2246.25,1304.56 2133.41,1500 2246.25,1695.44 2471.92,1695.44 2584.76,1500 				
					"/>
			</g>
			<g>
				<g>
					<polygon class="st7" points="2427.59,1381.34 2290.58,1381.34 2222.07,1500 2290.58,1618.66 2427.59,1618.66 2496.1,1500 					
						"/>
				</g>
				<g>
					<rect x="1744.15" y="1457.9" class="st7" width="580.24" height="84.21"/>
				</g>
			</g>
		</g>
		<g>
			<g>
				
					<rect x="675.6" y="1381.34" transform="matrix(-1 -1.224647e-16 1.224647e-16 -1 1931.4474 3000)" class="st6" width="580.24" height="237.32"/>
			</g>
			<g>
				<polygon class="st6" points="727,1695.44 952.67,1695.44 1065.51,1500 952.67,1304.56 727,1304.56 614.16,1500 				"/>
			</g>
			<g>
				<polygon class="st7" points="645.52,1695.44 871.19,1695.44 984.03,1500 871.19,1304.56 645.52,1304.56 532.68,1500 				"/>
			</g>
			<g>
				<polygon class="st6" points="528.08,1695.44 753.75,1695.44 866.59,1500 753.75,1304.56 528.08,1304.56 415.24,1500 				"/>
			</g>
			<g>
				<g>
					<polygon class="st7" points="572.41,1618.66 709.42,1618.66 777.93,1500 709.42,1381.34 572.41,1381.34 503.9,1500 					"/>
				</g>
				<g>
					
						<rect x="675.6" y="1457.9" transform="matrix(-1 -1.224647e-16 1.224647e-16 -1 1931.4474 3000)" class="st7" width="580.24" height="84.21"/>
				</g>
			</g>
		</g>
		<g>
			<g>
				
					<rect x="1477.02" y="918.64" transform="matrix(0.5 -0.866 0.866 0.5 -14.7618 2049.0381)" class="st6" width="580.24" height="237.32"/>
			</g>
			<g>
				<polygon class="st6" points="1717.25,732.84 1604.41,928.28 1717.25,1123.72 1942.92,1123.72 2055.76,928.28 1942.92,732.84 
									"/>
			</g>
			<g>
				<polygon class="st7" points="1757.98,662.28 1645.15,857.72 1757.98,1053.16 1983.66,1053.16 2096.5,857.72 1983.66,662.28 				
					"/>
			</g>
			<g>
				<polygon class="st6" points="1816.71,560.57 1703.87,756.01 1816.71,951.45 2042.38,951.45 2155.22,756.01 2042.38,560.57 				
					"/>
			</g>
			<g>
				<g>
					<polygon class="st7" points="1861.03,637.35 1792.53,756.01 1861.03,874.67 1998.05,874.67 2066.56,756.01 1998.05,637.35 
											"/>
				</g>
				<g>
					
						<rect x="1477.02" y="995.2" transform="matrix(0.5 -0.866 0.866 0.5 -14.7618 2049.0381)" class="st7" width="580.24" height="84.21"/>
				</g>
			</g>
		</g>
		<g>
			<g>
				
					<rect x="942.74" y="1844.04" transform="matrix(-0.5 0.866 -0.866 -0.5 3549.0381 1876.3556)" class="st6" width="580.24" height="237.32"/>
			</g>
			<g>
				<polygon class="st6" points="1282.75,2267.16 1395.59,2071.72 1282.75,1876.28 1057.08,1876.28 944.24,2071.72 1057.08,2267.16 
									"/>
			</g>
			<g>
				<polygon class="st7" points="1242.02,2337.72 1354.85,2142.28 1242.02,1946.84 1016.34,1946.84 903.5,2142.28 1016.34,2337.72 
									"/>
			</g>
			<g>
				<polygon class="st6" points="1183.29,2439.43 1296.13,2243.99 1183.29,2048.55 957.62,2048.55 844.78,2243.99 957.62,2439.43 
									"/>
			</g>
			<g>
				<g>
					<polygon class="st7" points="1138.97,2362.65 1207.47,2243.99 1138.97,2125.33 1001.95,2125.33 933.44,2243.99 
						1001.95,2362.65 					"/>
				</g>
				<g>
					
						<rect x="942.74" y="1920.59" transform="matrix(-0.5 0.866 -0.866 -0.5 3549.0381 1876.3556)" class="st7" width="580.24" height="84.21"/>
				</g>
			</g>
		</g>
		<g>
			<g>
				
					<rect x="942.74" y="918.64" transform="matrix(-0.5 -0.866 0.866 -0.5 950.9619 2623.6443)" class="st6" width="580.24" height="237.32"/>
			</g>
			<g>
				<polygon class="st6" points="944.24,928.28 1057.08,1123.72 1282.75,1123.72 1395.59,928.28 1282.75,732.84 1057.08,732.84 				
					"/>
			</g>
			<g>
				<polygon class="st7" points="903.5,857.72 1016.34,1053.16 1242.02,1053.16 1354.85,857.72 1242.02,662.28 1016.34,662.28 				
					"/>
			</g>
			<g>
				<polygon class="st6" points="844.78,756.01 957.62,951.45 1183.29,951.45 1296.13,756.01 1183.29,560.57 957.62,560.57 				"/>
			</g>
			<g>
				<g>
					<polygon class="st7" points="933.44,756.01 1001.95,874.67 1138.97,874.67 1207.47,756.01 1138.97,637.35 1001.95,637.35 					
						"/>
				</g>
				<g>
					
						<rect x="942.74" y="995.2" transform="matrix(-0.5 -0.866 0.866 -0.5 950.9619 2623.6443)" class="st7" width="580.24" height="84.21"/>
				</g>
			</g>
		</g>
		<g>
			<polygon class="st8" points="1056.41,1219.32 1035.13,1256.18 1056.41,1293.03 1098.96,1293.03 1120.24,1256.18 1098.96,1219.32 
							"/>
		</g>
		<g>
			<g>
				
					<rect x="1477.02" y="1844.04" transform="matrix(0.5 0.866 -0.866 0.5 2583.3145 -549.0381)" class="st6" width="580.24" height="237.32"/>
			</g>
			<g>
				<polygon class="st6" points="2055.76,2071.72 1942.92,1876.28 1717.25,1876.28 1604.41,2071.72 1717.25,2267.16 
					1942.92,2267.16 				"/>
			</g>
			<g>
				<polygon class="st7" points="2096.5,2142.28 1983.66,1946.84 1757.98,1946.84 1645.15,2142.28 1757.98,2337.72 1983.66,2337.72 
									"/>
			</g>
			<g>
				<polygon class="st6" points="2155.22,2243.99 2042.38,2048.55 1816.71,2048.55 1703.87,2243.99 1816.71,2439.43 
					2042.38,2439.43 				"/>
			</g>
			<g>
				<g>
					<polygon class="st7" points="2066.56,2243.99 1998.05,2125.33 1861.03,2125.33 1792.53,2243.99 1861.03,2362.65 
						1998.05,2362.65 					"/>
				</g>
				<g>
					
						<rect x="1477.02" y="1920.59" transform="matrix(0.5 0.866 -0.866 0.5 2583.3145 -549.0381)" class="st7" width="580.24" height="84.21"/>
				</g>
			</g>
		</g>
		<g>
			<polygon class="st8" points="1943.59,1780.68 1964.87,1743.82 1943.59,1706.97 1901.04,1706.97 1879.76,1743.82 1901.04,1780.68 
							"/>
		</g>
	</g>
	<g>
		<polygon class="st7" points="1663.78,1216.33 1336.22,1216.33 1172.45,1500 1336.22,1783.67 1663.78,1783.67 1827.55,1500 		"/>
	</g>
	<g>
		<polygon class="st6" points="1604.01,1319.85 1395.99,1319.85 1291.98,1500 1395.99,1680.15 1604.01,1680.15 1708.02,1500 		"/>
	</g>
	<g>
		<polygon class="st8" points="1964.87,1256.18 1943.59,1219.32 1901.04,1219.32 1879.76,1256.18 1901.04,1293.03 1943.59,1293.03 
					"/>
	</g>
	<g>
		<polygon class="st8" points="1035.13,1743.82 1056.41,1780.68 1098.96,1780.68 1120.24,1743.82 1098.96,1706.97 1056.41,1706.97 
					"/>
	</g>
	<g>
		<polygon class="st8" points="1521.28,975.5 1478.72,975.5 1457.44,1012.35 1478.72,1049.21 1521.28,1049.21 1542.56,1012.35 		"/>
	</g>
	<g>
		<polygon class="st8" points="1478.72,2024.5 1521.28,2024.5 1542.56,1987.65 1521.28,1950.79 1478.72,1950.79 1457.44,1987.65 		
			"/>
	</g>
</g>
</svg>
