<?xml version="1.0" encoding="utf-8"?>
<!-- Generator: Adobe Illustrator 26.0.2, SVG Export Plug-In . SVG Version: 6.00 Build 0)  -->
<svg version="1.0" id="Layer_2" xmlns="http://www.w3.org/2000/svg" xmlns:xlink="http://www.w3.org/1999/xlink" x="0px" y="0px"
	 viewBox="0 0 3000 3000" style="enable-background:new 0 0 3000 3000;" xml:space="preserve">
<style type="text/css">
	.st0{fill:#CE5B32;}
	.st1{fill:#D89E28;}
	.st2{fill:#CC4F35;}
	.st3{fill:none;}
	.st4{fill:#AF916A;}
	.st5{fill:#5E524A;}
	.st6{fill:#4D8599;}
	.st7{fill:#A4AD70;}
	.st8{fill:#979960;}
</style>
<g>
	<g>
		<path d="M1500,2575.72c-145.22,0-286.09-28.44-418.72-84.54c-63.74-26.96-125.22-60.33-182.73-99.18
			c-56.96-38.48-110.52-82.67-159.2-131.35c-48.68-48.68-92.87-102.24-131.35-159.2c-38.85-57.51-72.22-118.99-99.18-182.73
			c-56.1-132.62-84.54-273.5-84.54-418.72c0-145.22,28.44-286.09,84.54-418.72c26.96-63.74,60.33-125.22,99.18-182.73
			c38.48-56.96,82.67-110.52,131.35-159.2c48.68-48.68,102.24-92.87,159.2-131.35c57.51-38.85,118.99-72.22,182.73-99.18
			c132.62-56.09,273.5-84.54,418.72-84.54s286.09,28.44,418.72,84.54c63.74,26.96,125.22,60.33,182.73,99.18
			c56.96,38.48,110.52,82.67,159.2,131.35c48.68,48.68,92.87,102.24,131.35,159.2c38.85,57.51,72.22,118.99,99.18,182.73
			c56.1,132.62,84.54,273.5,84.54,418.72c0,145.22-28.44,286.09-84.54,418.72c-26.96,63.74-60.33,125.22-99.18,182.73
			c-38.48,56.96-82.67,110.52-131.35,159.2c-48.68,48.68-102.24,92.87-159.2,131.35c-57.51,38.85-118.99,72.22-182.73,99.18
			C1786.09,2547.27,1645.22,2575.72,1500,2575.72z M1500,439.1C915.02,439.1,439.1,915.02,439.1,1500
			c0,584.98,475.92,1060.9,1060.9,1060.9S2560.9,2084.98,2560.9,1500C2560.9,915.02,2084.98,439.1,1500,439.1z"/>
	</g>
	<g>
		<circle class="st2" cx="1500" cy="1500" r="861.68"/>
	</g>
</g>
</svg>
