<?xml version="1.0" encoding="utf-8"?>
<!-- Generator: Adobe Illustrator 26.0.2, SVG Export Plug-In . SVG Version: 6.00 Build 0)  -->
<svg version="1.0" id="Layer_2" xmlns="http://www.w3.org/2000/svg" xmlns:xlink="http://www.w3.org/1999/xlink" x="0px" y="0px"
	 viewBox="0 0 3000 3000" style="enable-background:new 0 0 3000 3000;" xml:space="preserve">
<style type="text/css">
	.st0{fill:#CE5B32;}
	.st1{fill:#D89E28;}
	.st2{fill:#CC4F35;}
	.st3{fill:none;}
	.st4{fill:#AF916A;}
	.st5{fill:#5E524A;}
	.st6{fill:#4D8599;}
	.st7{fill:#A4AD70;}
	.st8{fill:#979960;}
</style>
<g>
	<path class="st3" d="M1767.61,1259.74l279.84-601.6c-147.62,71.5-332.53,159.53-497.45,233.53v476.44L1767.61,1259.74z
		 M1708.07,861.6c59.1,7.51,105.49,80.89,105.49,170.37c0,89.48-46.39,162.87-105.49,170.37V861.6z M1688.1,861.6v340.74
		c-59.1-7.51-105.49-80.89-105.49-170.37C1582.61,942.5,1629,869.11,1688.1,861.6z"/>
	<polygon class="st3" points="1038.7,1051.86 586.75,867.95 807.87,1149.64 1305.34,1364.68 	"/>
	<path class="st3" d="M1550,1995.49c328.49-14.13,549.84-28.05,655.25-35.31l-90.5-129.97L1550,1898.48V1995.49z"/>
	<path class="st3" d="M2151.57,1599.14l-0.02-0.05c-0.6,0.28-1.21,0.57-1.81,0.85C2150.34,1599.69,2150.95,1599.43,2151.57,1599.14z
		"/>
	<polygon class="st3" points="835.56,1669.06 635.12,1782.1 1450,1806.28 1450,1690.22 	"/>
	<path class="st3" d="M2224.56,1474.36l214.85-230.45L1550,1669.94v114.38C1744.93,1700.06,2001.91,1580.2,2224.56,1474.36z"/>
	<path class="st4" d="M1688.1,1202.35V861.6c-59.1,7.51-105.49,80.89-105.49,170.37C1582.61,1121.46,1629,1194.84,1688.1,1202.35z"
		/>
	<path class="st4" d="M1813.56,1031.98c0-89.48-46.39-162.87-105.49-170.37v340.74C1767.17,1194.84,1813.56,1121.46,1813.56,1031.98
		z"/>
	<path class="st5" d="M2556.98,1621.66c4.82-26.67,8.67-53.67,11.48-80.98c-35.62-1.79-73.36-3.66-111.02-5.51
		c-59.75-2.93-111.74-5.42-155.43-7.44c103-49.09,196.93-94.33,271.69-130.51c-0.86-29.5-2.92-58.71-6.11-87.57
		c-40.87,19.81-88.9,43.03-142,68.57l131.47-141.02c-7.71-42.72-17.94-84.55-30.55-125.35L1550,1579.6V1471l0.21-0.48l-0.21-0.09
		v-11.31l932.64-464.44c-11.03-24.91-22.98-49.32-35.81-73.19l-73.26,36.48l38.01-97.25c-17.4-27.85-36.06-54.83-55.86-80.89
		l-90.77,232.23l-117.64,58.58l162.67-346.97c-19.19-22.01-39.26-43.24-60.16-63.62l-219.91,469.05l-145.36,72.39l279.07-599.94
		c4.48-2.19,8.88-4.35,13.21-6.47c-23.95-19.46-48.75-37.91-74.35-55.28l-0.58,1.24c-74.71,36.49-166.23,80.82-263.25,126.94
		l142.45-199.41c-24.67-12.38-49.88-23.85-75.6-34.34l-217.7,304.75c-46.37,21.58-92.69,42.89-137.82,63.31v-63.1l1.04,0.79
		l258.89-339.54c-28.11-8.46-56.7-15.79-85.72-21.95L1550,606.97V356.21c-16.57-0.76-33.24-1.16-50-1.16s-33.42,0.4-50,1.16v730.03
		L1332.5,946.9l6.84-579.91c-27.58,4.14-54.82,9.31-81.66,15.5l-5.53,469.12L957.33,502.02c-23.68,13.89-46.78,28.65-69.26,44.25
		L1450,1212.62v196.16L784.5,628.03c-20.3,18.14-39.9,37.04-58.77,56.65l198.18,232.5L630.82,797.92
		c-33.27,45.72-63.01,94.18-88.84,144.96l109.11,138.99l-144.34-62.39c-10.35,25.06-19.78,50.58-28.25,76.55l971.5,419.94v92.73
		l-44.81-1.54l-956.03-401.61c-5.74,27.12-10.47,54.61-14.12,82.44l238.16,100.05l-246.28-7.52c-0.72,16.15-1.11,32.39-1.11,48.72
		c0,10.96,0.18,21.89,0.51,32.77l456.12,13.92l293.59,123.33l-740.57-25.5c3.72,27.69,8.5,55.04,14.29,82.02l229.48,7.9
		l-196.68,110.92c9.87,29.07,20.93,57.59,33.16,85.48L1450,1887.8v109.22l-876.93-24.66c16.76,28.55,34.81,56.25,54.06,83.03
		l328.16,9.23l-208.03,130.87c20.11,19.76,41,38.73,62.62,56.87l291.88-183.62l240.74,6.77l-426.36,255.45
		c25.9,16.8,52.56,32.53,79.93,47.09L1450,2106.07v496.44H1550v-165.76l333.95-4c59.69-22.85,116.82-50.88,170.85-83.53l-504.8,6.05
		v-96.69c56.44-2.58,215.84-9.93,668.55-30.88c29.87-26.9,58.22-55.44,84.91-85.49c-87.67,4.06-615.53,28.49-753.47,34.83v-99.98
		c395-16.96,636.63-33.67,709.45-39.03l59.84,85.95c18.38-21.65,35.91-44.04,52.55-67.12l-165.51-237.7l102.34-12.37l121.9,159.34
		c14.96-25.87,28.87-52.43,41.68-79.61l-69.68-91.08l112.38-13.58c9.69-27.88,18.25-56.29,25.65-85.17l-812.88,98.25
		c131.37-58.98,276.9-126.57,415.9-192.11C2183.32,1603.4,2370.28,1612.31,2556.98,1621.66z M2151.57,1599.14
		c-0.62,0.29-1.23,0.55-1.83,0.8c0.6-0.28,1.21-0.57,1.81-0.85L2151.57,1599.14z M2439.41,1243.91l-214.85,230.45
		c-222.66,105.84-479.64,225.7-674.57,309.97v-114.38L2439.41,1243.91z M2047.45,658.13l-279.84,601.6L1550,1368.1V891.66
		C1714.91,817.66,1899.83,729.63,2047.45,658.13z M586.75,867.95l451.96,183.91l266.64,312.82l-497.48-215.04L586.75,867.95z
		 M635.12,1782.1l200.45-113.04l614.44,21.16v116.07L635.12,1782.1z M2205.25,1960.19c-105.41,7.25-326.76,21.17-655.25,35.31
		v-97.02l564.76-68.26L2205.25,1960.19z"/>
</g>
</svg>
