<?xml version="1.0" standalone="no"?>
 <!DOCTYPE svg PUBLIC "-//W3C//DTD SVG 1.1//EN" 
 "http://www.w3.org/Graphics/SVG/1.1/DTD/svg11.dtd"> 
<svg
  xmlns:svg="http://www.w3.org/2000/svg"
  xmlns="http://www.w3.org/2000/svg"
  xmlns:xlink="http://www.w3.org/1999/xlink"
  version="1.1"
  width="27.1018mm" height="25.3492mm" viewBox="0.0000 0.0000 27.1018 25.3492">
<title>SVG Image created as casio vibration module-Edge_Cuts.svg date 2024/07/22 18:28:29 </title>
  <desc>Image generated by PCBNEW </desc>
<g style="fill:#000000; fill-opacity:1.0000;stroke:#000000; stroke-opacity:1.0000;
stroke-linecap:round; stroke-linejoin:round;"
 transform="translate(0 0) scale(1 1)">
</g>
<g style="fill:none; 
stroke:#C2C200; stroke-width:0.1000; stroke-opacity:1; 
stroke-linecap:round; stroke-linejoin:round;">
<path d="M0.4537 16.1735
L0.2937 15.4554
" />
<path d="M6.7215 24.5337
L6.1222 24.1608
" />
<path d="M3.5222 3.8277
L4.0295 3.2948
" />
<path d="M1.1492 7.5276
L1.4587 6.8601
" />
<path d="M26.3031 17.3435
L26.0438 18.0239
" />
<path d="M1.4587 6.8601
L1.8041 6.2104
" />
<path d="M26.7099 15.9459
L26.5253 16.6502
" />
<path d="M8.2775 0.4371
L8.9623 0.1680
" />
<path d="M0.4445 9.6170
L0.6414 8.9081
" />
<path d="M25.4172 19.3377
L25.0518 19.9674
" />
<path d="M20.7304 1.4352
L21.3367 1.8383
" />
<path d="M4.1702 19.9699
L4.2439 19.9108
" />
<path d="M24.4429 4.8834
L24.8579 5.4816
" />
<path d="M0.1679 11.0617
L0.2866 10.3356
" />
<path d="M24.2217 21.1632
L23.7596 21.7258
" />
<path d="M21.9204 2.2735
L22.4798 2.7395
" />
<path d="M25.7483 18.6892
L25.4172 19.3377
" />
<path d="M21.3367 1.8383
L21.9204 2.2735
" />
<path d="M27.0620 13.0604
L27.0325 13.7878
" />
<path d="M17.7701 0.0500
L18.1152 0.1658
" />
<path d="M4.5611 19.2437
L4.5559 19.0550
" />
<path d="M8.9623 0.1680
L9.3107 0.0500
" />
<path d="M4.5559 19.0550
L4.5153 18.8705
" />
<path d="M0.2937 15.4554
L0.1731 14.7296
" />
<path d="M26.9153 10.8832
L27.0033 11.6060
" />
<path d="M22.4798 2.7395
L23.0132 3.2350
" />
<path d="M26.1790 8.0710
L26.4197 8.7582
" />
<path d="M26.0438 18.0239
L25.7483 18.6892
" />
<path d="M2.5982 4.9722
L3.0446 4.3874
" />
<path d="M2.9732 18.3646
L2.9010 18.4255
" />
<path d="M27.0325 13.7878
L26.9638 14.5127
" />
<path d="M0.6414 8.9081
L0.8765 8.2109
" />
<path d="M27.0523 12.3324
L27.0620 13.0604
" />
<path d="M25.0518 19.9674
L24.6529 20.5765
" />
<path d="M26.6230 9.4573
L26.7884 10.1663
" />
<path d="M18.1152 0.1658
L18.7937 0.4298
" />
<path d="M22.2011 23.2530
L21.6293 23.7036
" />
<path d="M0.8765 8.2109
L1.1492 7.5276
" />
<path d="M3.5003 18.1762
L3.3138 18.2053
" />
<path d="M24.8579 5.4816
L25.2401 6.1013
" />
<path d="M4.4662 19.6076
L4.5309 19.4301
" />
<path d="M19.1249 25.1797
L18.7902 25.3229
" />
<path d="M3.9434 22.3724
L3.4607 21.8573
" />
<path d="M3.4607 21.8573
L3.0056 21.3177
" />
<path d="M4.0295 3.2948
L4.5651 2.7903
" />
<path d="M5.1273 2.3158
L5.7145 1.8725
" />
<path d="M3.1359 18.2689
L2.9732 18.3646
" />
<path d="M4.0463 18.2999
L3.8733 18.2244
" />
<path d="M22.7478 22.7722
L22.2011 23.2530
" />
<path d="M1.4756 18.9276
L1.1642 18.2610
" />
<path d="M26.9638 14.5127
L26.8562 15.2327
" />
<path d="M4.2439 19.9108
L4.3694 19.7697
" />
<path d="M26.8562 15.2327
L26.7099 15.9459
" />
<path d="M21.6293 23.7036
L21.0340 24.1228
" />
<path d="M4.3353 18.5404
L4.2022 18.4065
" />
<path d="M0.0510 13.2637
L0.0500 12.5280
" />
<path d="M18.7902 25.3229
L8.2986 25.3229
" />
<path d="M4.5651 2.7903
L5.1273 2.3158
" />
<path d="M0.0500 12.5280
L0.0890 11.7932
" />
<path d="M6.9569 1.0849
L7.6084 0.7431
" />
<path d="M5.7145 1.8725
L6.3250 1.4618
" />
<path d="M2.1843 5.5805
L2.5982 4.9722
" />
<path d="M8.2986 25.3229
L7.9744 25.1834
" />
<path d="M23.5192 3.7585
L23.9962 4.3085
" />
<path d="M6.1222 24.1608
L5.5432 23.7570
" />
<path d="M25.9016 7.3979
L26.1790 8.0710
" />
<path d="M23.7596 21.7258
L23.2678 22.2626
" />
<path d="M3.0446 4.3874
L3.5222 3.8277
" />
<path d="M19.4571 0.7299
L20.1032 1.0654
" />
<path d="M3.3138 18.2053
L3.1359 18.2689
" />
<path d="M26.5253 16.6502
L26.3031 17.3435
" />
<path d="M20.1032 1.0654
L20.7304 1.4352
" />
<path d="M23.2678 22.2626
L22.7478 22.7722
" />
<path d="M4.4409 18.6970
L4.3353 18.5404
" />
<path d="M5.5432 23.7570
L4.9860 23.3235
" />
<path d="M4.4523 22.8616
L3.9434 22.3724
" />
<path d="M0.2866 10.3356
L0.4445 9.6170
" />
<path d="M23.0132 3.2350
L23.5192 3.7585
" />
<path d="M2.9010 18.4255
L1.6470 19.2531
" />
<path d="M2.7907 21.0378
L4.1738 19.9746
" />
<path d="M0.1731 14.7296
L0.0921 13.9983
" />
<path d="M26.7884 10.1663
L26.9153 10.8832
" />
<path d="M4.5309 19.4301
L4.5611 19.2437
" />
<path d="M25.5884 6.7407
L25.9016 7.3979
" />
<path d="M4.2022 18.4065
L4.0463 18.2999
" />
<path d="M3.0056 21.3177
L2.7907 21.0378
" />
<path d="M0.0890 11.7932
L0.1679 11.0617
" />
<path d="M4.9860 23.3235
L4.4523 22.8616
" />
<path d="M20.4169 24.5093
L19.7800 24.8619
" />
<path d="M1.1642 18.2610
L0.8896 17.5784
" />
<path d="M26.4197 8.7582
L26.6230 9.4573
" />
<path d="M18.7937 0.4298
L19.4571 0.7299
" />
<path d="M24.6529 20.5765
L24.2217 21.1632
" />
<path d="M9.3107 0.0500
L17.7701 0.0500
" />
<path d="M4.5153 18.8705
L4.4409 18.6970
" />
<path d="M0.6525 16.8819
L0.4537 16.1735
" />
<path d="M1.8041 6.2104
L2.1843 5.5805
" />
<path d="M7.6084 0.7431
L8.2775 0.4371
" />
<path d="M6.3250 1.4618
L6.9569 1.0849
" />
<path d="M23.9962 4.3085
L24.4429 4.8834
" />
<path d="M3.8733 18.2244
L3.6891 18.1827
" />
<path d="M7.3394 24.8749
L6.7215 24.5337
" />
<path d="M4.3694 19.7697
L4.4662 19.6076
" />
<path d="M4.1738 19.9746
L4.1702 19.9699
" />
<path d="M7.9744 25.1834
L7.3394 24.8749
" />
<path d="M3.6891 18.1827
L3.5003 18.1762
" />
<path d="M0.8896 17.5784
L0.6525 16.8819
" />
<path d="M19.7800 24.8619
L19.1249 25.1797
" />
<path d="M1.6470 19.2531
L1.4756 18.9276
" />
<path d="M21.0340 24.1228
L20.4169 24.5093
" />
<path d="M27.0033 11.6060
L27.0523 12.3324
" />
<path d="M25.2401 6.1013
L25.5884 6.7407
" />
<path d="M0.0921 13.9983
L0.0510 13.2637
" />
</g>
<g style="fill:none; 
stroke:#C2C200; stroke-width:0.1000; stroke-opacity:1; 
stroke-linecap:round; stroke-linejoin:round;">
<path d="M0.4537 16.1735
L0.2937 15.4554
" />
<path d="M6.7215 24.5337
L6.1222 24.1608
" />
<path d="M3.5222 3.8277
L4.0295 3.2948
" />
<path d="M1.1492 7.5276
L1.4587 6.8601
" />
<path d="M26.3031 17.3435
L26.0438 18.0239
" />
<path d="M1.4587 6.8601
L1.8041 6.2104
" />
<path d="M26.7099 15.9459
L26.5253 16.6502
" />
<path d="M8.2775 0.4371
L8.9623 0.1680
" />
<path d="M0.4445 9.6170
L0.6414 8.9081
" />
<path d="M25.4172 19.3377
L25.0518 19.9674
" />
<path d="M20.7304 1.4352
L21.3367 1.8383
" />
<path d="M4.1702 19.9699
L4.2439 19.9108
" />
<path d="M24.4429 4.8834
L24.8579 5.4816
" />
<path d="M0.1679 11.0617
L0.2866 10.3356
" />
<path d="M24.2217 21.1632
L23.7596 21.7258
" />
<path d="M21.9204 2.2735
L22.4798 2.7395
" />
<path d="M25.7483 18.6892
L25.4172 19.3377
" />
<path d="M21.3367 1.8383
L21.9204 2.2735
" />
<path d="M27.0620 13.0604
L27.0325 13.7878
" />
<path d="M17.7701 0.0500
L18.1152 0.1658
" />
<path d="M4.5611 19.2437
L4.5559 19.0550
" />
<path d="M8.9623 0.1680
L9.3107 0.0500
" />
<path d="M4.5559 19.0550
L4.5153 18.8705
" />
<path d="M0.2937 15.4554
L0.1731 14.7296
" />
<path d="M26.9153 10.8832
L27.0033 11.6060
" />
<path d="M22.4798 2.7395
L23.0132 3.2350
" />
<path d="M26.1790 8.0710
L26.4197 8.7582
" />
<path d="M26.0438 18.0239
L25.7483 18.6892
" />
<path d="M2.5982 4.9722
L3.0446 4.3874
" />
<path d="M2.9732 18.3646
L2.9010 18.4255
" />
<path d="M27.0325 13.7878
L26.9638 14.5127
" />
<path d="M0.6414 8.9081
L0.8765 8.2109
" />
<path d="M27.0523 12.3324
L27.0620 13.0604
" />
<path d="M25.0518 19.9674
L24.6529 20.5765
" />
<path d="M26.6230 9.4573
L26.7884 10.1663
" />
<path d="M18.1152 0.1658
L18.7937 0.4298
" />
<path d="M22.2011 23.2530
L21.6293 23.7036
" />
<path d="M0.8765 8.2109
L1.1492 7.5276
" />
<path d="M3.5003 18.1762
L3.3138 18.2053
" />
<path d="M24.8579 5.4816
L25.2401 6.1013
" />
<path d="M4.4662 19.6076
L4.5309 19.4301
" />
<path d="M19.1249 25.1797
L18.7902 25.3229
" />
<path d="M3.9434 22.3724
L3.4607 21.8573
" />
<path d="M3.4607 21.8573
L3.0056 21.3177
" />
<path d="M4.0295 3.2948
L4.5651 2.7903
" />
<path d="M5.1273 2.3158
L5.7145 1.8725
" />
<path d="M3.1359 18.2689
L2.9732 18.3646
" />
<path d="M4.0463 18.2999
L3.8733 18.2244
" />
<path d="M22.7478 22.7722
L22.2011 23.2530
" />
<path d="M1.4756 18.9276
L1.1642 18.2610
" />
<path d="M26.9638 14.5127
L26.8562 15.2327
" />
<path d="M4.2439 19.9108
L4.3694 19.7697
" />
<path d="M26.8562 15.2327
L26.7099 15.9459
" />
<path d="M21.6293 23.7036
L21.0340 24.1228
" />
<path d="M4.3353 18.5404
L4.2022 18.4065
" />
<path d="M0.0510 13.2637
L0.0500 12.5280
" />
<path d="M18.7902 25.3229
L8.2986 25.3229
" />
<path d="M4.5651 2.7903
L5.1273 2.3158
" />
<path d="M0.0500 12.5280
L0.0890 11.7932
" />
<path d="M6.9569 1.0849
L7.6084 0.7431
" />
<path d="M5.7145 1.8725
L6.3250 1.4618
" />
<path d="M2.1843 5.5805
L2.5982 4.9722
" />
<path d="M8.2986 25.3229
L7.9744 25.1834
" />
<path d="M23.5192 3.7585
L23.9962 4.3085
" />
<path d="M6.1222 24.1608
L5.5432 23.7570
" />
<path d="M25.9016 7.3979
L26.1790 8.0710
" />
<path d="M23.7596 21.7258
L23.2678 22.2626
" />
<path d="M3.0446 4.3874
L3.5222 3.8277
" />
<path d="M19.4571 0.7299
L20.1032 1.0654
" />
<path d="M3.3138 18.2053
L3.1359 18.2689
" />
<path d="M26.5253 16.6502
L26.3031 17.3435
" />
<path d="M20.1032 1.0654
L20.7304 1.4352
" />
<path d="M23.2678 22.2626
L22.7478 22.7722
" />
<path d="M4.4409 18.6970
L4.3353 18.5404
" />
<path d="M5.5432 23.7570
L4.9860 23.3235
" />
<path d="M4.4523 22.8616
L3.9434 22.3724
" />
<path d="M0.2866 10.3356
L0.4445 9.6170
" />
<path d="M23.0132 3.2350
L23.5192 3.7585
" />
<path d="M2.9010 18.4255
L1.6470 19.2531
" />
<path d="M2.7907 21.0378
L4.1738 19.9746
" />
<path d="M0.1731 14.7296
L0.0921 13.9983
" />
<path d="M26.7884 10.1663
L26.9153 10.8832
" />
<path d="M4.5309 19.4301
L4.5611 19.2437
" />
<path d="M25.5884 6.7407
L25.9016 7.3979
" />
<path d="M4.2022 18.4065
L4.0463 18.2999
" />
<path d="M3.0056 21.3177
L2.7907 21.0378
" />
<path d="M0.0890 11.7932
L0.1679 11.0617
" />
<path d="M4.9860 23.3235
L4.4523 22.8616
" />
<path d="M20.4169 24.5093
L19.7800 24.8619
" />
<path d="M1.1642 18.2610
L0.8896 17.5784
" />
<path d="M26.4197 8.7582
L26.6230 9.4573
" />
<path d="M18.7937 0.4298
L19.4571 0.7299
" />
<path d="M24.6529 20.5765
L24.2217 21.1632
" />
<path d="M9.3107 0.0500
L17.7701 0.0500
" />
<path d="M4.5153 18.8705
L4.4409 18.6970
" />
<path d="M0.6525 16.8819
L0.4537 16.1735
" />
<path d="M1.8041 6.2104
L2.1843 5.5805
" />
<path d="M7.6084 0.7431
L8.2775 0.4371
" />
<path d="M6.3250 1.4618
L6.9569 1.0849
" />
<path d="M23.9962 4.3085
L24.4429 4.8834
" />
<path d="M3.8733 18.2244
L3.6891 18.1827
" />
<path d="M7.3394 24.8749
L6.7215 24.5337
" />
<path d="M4.3694 19.7697
L4.4662 19.6076
" />
<path d="M4.1738 19.9746
L4.1702 19.9699
" />
<path d="M7.9744 25.1834
L7.3394 24.8749
" />
<path d="M3.6891 18.1827
L3.5003 18.1762
" />
<path d="M0.8896 17.5784
L0.6525 16.8819
" />
<path d="M19.7800 24.8619
L19.1249 25.1797
" />
<path d="M1.6470 19.2531
L1.4756 18.9276
" />
<path d="M21.0340 24.1228
L20.4169 24.5093
" />
<path d="M27.0033 11.6060
L27.0523 12.3324
" />
<path d="M25.2401 6.1013
L25.5884 6.7407
" />
<path d="M0.0921 13.9983
L0.0510 13.2637
" />
</g> 
</svg>
