G04 Layer: TopSilkscreenLayer*
G04 EasyEDA v6.5.15, 2022-10-03 21:12:50*
G04 fb6dd305ba754b819a97ba8624fd114e,51c7c353d140458ba7ebdfa259124d39,10*
G04 Gerber Generator version 0.2*
G04 Scale: 100 percent, Rotated: No, Reflected: No *
G04 Dimensions in millimeters *
G04 leading zeros omitted , absolute positions ,4 integer and 5 decimal *
%FSLAX45Y45*%
%MOMM*%

%ADD10C,0.2000*%
%ADD11C,0.2030*%
%ADD12C,0.1800*%
%ADD13C,0.1524*%
%ADD14C,0.2540*%
%ADD15C,0.1270*%
%ADD16C,0.0193*%

%LPD*%
D10*
X-994206Y76964D02*
G01*
X-957884Y-18539D01*
X-921562Y76964D02*
G01*
X-957884Y-18539D01*
X-891590Y76964D02*
G01*
X-887018Y72392D01*
X-882446Y76964D01*
X-887018Y81536D01*
X-891590Y76964D01*
X-887018Y45214D02*
G01*
X-887018Y-18539D01*
X-852474Y76964D02*
G01*
X-852474Y-18539D01*
X-852474Y31498D02*
G01*
X-843330Y40642D01*
X-834186Y45214D01*
X-820470Y45214D01*
X-811580Y40642D01*
X-802436Y31498D01*
X-797864Y18036D01*
X-797864Y8892D01*
X-802436Y-4823D01*
X-811580Y-13967D01*
X-820470Y-18539D01*
X-834186Y-18539D01*
X-843330Y-13967D01*
X-852474Y-4823D01*
X-767892Y45214D02*
G01*
X-767892Y-18539D01*
X-767892Y18036D02*
G01*
X-763320Y31498D01*
X-754176Y40642D01*
X-745032Y45214D01*
X-731570Y45214D01*
X-646988Y45214D02*
G01*
X-646988Y-18539D01*
X-646988Y31498D02*
G01*
X-656132Y40642D01*
X-665022Y45214D01*
X-678738Y45214D01*
X-687882Y40642D01*
X-697026Y31498D01*
X-701598Y18036D01*
X-701598Y8892D01*
X-697026Y-4823D01*
X-687882Y-13967D01*
X-678738Y-18539D01*
X-665022Y-18539D01*
X-656132Y-13967D01*
X-646988Y-4823D01*
X-603300Y76964D02*
G01*
X-603300Y-251D01*
X-598728Y-13967D01*
X-589584Y-18539D01*
X-580694Y-18539D01*
X-617016Y45214D02*
G01*
X-585012Y45214D01*
X-527862Y45214D02*
G01*
X-537006Y40642D01*
X-546150Y31498D01*
X-550468Y18036D01*
X-550468Y8892D01*
X-546150Y-4823D01*
X-537006Y-13967D01*
X-527862Y-18539D01*
X-514146Y-18539D01*
X-505002Y-13967D01*
X-496112Y-4823D01*
X-491540Y8892D01*
X-491540Y18036D01*
X-496112Y31498D01*
X-505002Y40642D01*
X-514146Y45214D01*
X-527862Y45214D01*
X-461568Y45214D02*
G01*
X-461568Y-18539D01*
X-461568Y18036D02*
G01*
X-456996Y31498D01*
X-447852Y40642D01*
X-438708Y45214D01*
X-424992Y45214D01*
X894130Y192023D02*
G01*
X903274Y196342D01*
X912164Y205486D01*
X916736Y214629D01*
X916736Y232918D01*
X912164Y241807D01*
X903274Y250952D01*
X894130Y255523D01*
X880414Y260095D01*
X857808Y260095D01*
X844092Y255523D01*
X834948Y250952D01*
X825804Y241807D01*
X821232Y232918D01*
X821232Y214629D01*
X825804Y205486D01*
X834948Y196342D01*
X844092Y192023D01*
X916736Y161797D02*
G01*
X821232Y161797D01*
X916736Y161797D02*
G01*
X916736Y120904D01*
X912164Y107442D01*
X907592Y102870D01*
X898702Y98297D01*
X889558Y98297D01*
X880414Y102870D01*
X875842Y107442D01*
X871270Y120904D01*
X871270Y161797D01*
X871270Y130047D02*
G01*
X821232Y98297D01*
X898702Y68326D02*
G01*
X903274Y59181D01*
X916736Y45465D01*
X821232Y45465D01*
X894130Y10921D02*
G01*
X898702Y10921D01*
X907592Y6350D01*
X912164Y2031D01*
X916736Y-7112D01*
X916736Y-25400D01*
X912164Y-34544D01*
X907592Y-39115D01*
X898702Y-43434D01*
X889558Y-43434D01*
X880414Y-39115D01*
X866698Y-29971D01*
X821232Y15494D01*
X821232Y-48005D01*
X894130Y-82550D02*
G01*
X898702Y-82550D01*
X907592Y-87121D01*
X912164Y-91694D01*
X916736Y-100837D01*
X916736Y-118871D01*
X912164Y-128015D01*
X907592Y-132587D01*
X898702Y-137160D01*
X889558Y-137160D01*
X880414Y-132587D01*
X866698Y-123444D01*
X821232Y-77978D01*
X821232Y-141731D01*
X916736Y-226313D02*
G01*
X916736Y-180847D01*
X875842Y-176276D01*
X880414Y-180847D01*
X884986Y-194563D01*
X884986Y-208026D01*
X880414Y-221742D01*
X871270Y-230886D01*
X857808Y-235457D01*
X848664Y-235457D01*
X834948Y-230886D01*
X825804Y-221742D01*
X821232Y-208026D01*
X821232Y-194563D01*
X825804Y-180847D01*
X830376Y-176276D01*
X839520Y-171704D01*
D11*
X-609295Y-982979D02*
G01*
X-609295Y-900937D01*
X-568401Y-942086D02*
G01*
X-650189Y-942086D01*
X-768403Y-941956D02*
G01*
X-850191Y-941956D01*
D12*
X370636Y455929D02*
G01*
X297992Y455929D01*
X284276Y460502D01*
X279704Y465073D01*
X275132Y474218D01*
X275132Y483107D01*
X279704Y492252D01*
X284276Y496823D01*
X297992Y501395D01*
X307136Y501395D01*
X370636Y425957D02*
G01*
X275132Y425957D01*
X275132Y425957D02*
G01*
X275132Y371347D01*
X348030Y273304D02*
G01*
X357174Y277876D01*
X366064Y286765D01*
X370636Y295910D01*
X370636Y314197D01*
X366064Y323087D01*
X357174Y332231D01*
X348030Y336804D01*
X334314Y341376D01*
X311708Y341376D01*
X297992Y336804D01*
X288848Y332231D01*
X279704Y323087D01*
X275132Y314197D01*
X275132Y295910D01*
X279704Y286765D01*
X288848Y277876D01*
X297992Y273304D01*
X370636Y197865D02*
G01*
X297992Y197865D01*
X284276Y202184D01*
X279704Y206755D01*
X275132Y215900D01*
X275132Y225044D01*
X279704Y234187D01*
X284276Y238760D01*
X297992Y243331D01*
X307136Y243331D01*
X370636Y167639D02*
G01*
X275132Y167639D01*
X275132Y167639D02*
G01*
X275132Y113284D01*
X348030Y14986D02*
G01*
X357174Y19557D01*
X366064Y28702D01*
X370636Y37845D01*
X370636Y55879D01*
X366064Y65023D01*
X357174Y74168D01*
X348030Y78739D01*
X334314Y83312D01*
X311708Y83312D01*
X297992Y78739D01*
X288848Y74168D01*
X279704Y65023D01*
X275132Y55879D01*
X275132Y37845D01*
X279704Y28702D01*
X288848Y19557D01*
X297992Y14986D01*
X370636Y-60452D02*
G01*
X297992Y-60452D01*
X284276Y-55879D01*
X279704Y-51307D01*
X275132Y-42163D01*
X275132Y-33273D01*
X279704Y-24129D01*
X284276Y-19557D01*
X297992Y-14986D01*
X307136Y-14986D01*
X370636Y-90423D02*
G01*
X275132Y-90423D01*
X275132Y-90423D02*
G01*
X275132Y-145034D01*
X348030Y-243078D02*
G01*
X357174Y-238505D01*
X366064Y-229615D01*
X370636Y-220471D01*
X370636Y-202184D01*
X366064Y-193039D01*
X357174Y-184150D01*
X348030Y-179578D01*
X334314Y-175005D01*
X311708Y-175005D01*
X297992Y-179578D01*
X288848Y-184150D01*
X279704Y-193039D01*
X275132Y-202184D01*
X275132Y-220471D01*
X279704Y-229615D01*
X288848Y-238505D01*
X297992Y-243078D01*
X370636Y-318515D02*
G01*
X297992Y-318515D01*
X284276Y-313944D01*
X279704Y-309626D01*
X275132Y-300481D01*
X275132Y-291337D01*
X279704Y-282194D01*
X284276Y-277621D01*
X297992Y-273050D01*
X307136Y-273050D01*
X370636Y-348487D02*
G01*
X275132Y-348487D01*
X275132Y-348487D02*
G01*
X275132Y-403097D01*
X348030Y-501395D02*
G01*
X357174Y-496823D01*
X366064Y-487679D01*
X370636Y-478536D01*
X370636Y-460502D01*
X366064Y-451357D01*
X357174Y-442213D01*
X348030Y-437642D01*
X334314Y-433070D01*
X311708Y-433070D01*
X297992Y-437642D01*
X288848Y-442213D01*
X279704Y-451357D01*
X275132Y-460502D01*
X275132Y-478536D01*
X279704Y-487679D01*
X288848Y-496823D01*
X297992Y-501395D01*
D13*
X-925321Y787907D02*
G01*
X-930655Y798321D01*
X-941070Y808736D01*
X-951229Y813815D01*
X-972057Y813815D01*
X-982471Y808736D01*
X-992886Y798321D01*
X-998220Y787907D01*
X-1003300Y772160D01*
X-1003300Y746252D01*
X-998220Y730757D01*
X-992886Y720344D01*
X-982471Y709929D01*
X-972057Y704850D01*
X-951229Y704850D01*
X-941070Y709929D01*
X-930655Y720344D01*
X-925321Y730757D01*
X-891031Y792987D02*
G01*
X-880618Y798321D01*
X-865123Y813815D01*
X-865123Y704850D01*
X-38100Y826515D02*
G01*
X-38100Y717550D01*
X-38100Y826515D02*
G01*
X-1778Y826515D01*
X13970Y821436D01*
X24129Y811021D01*
X29463Y800607D01*
X34544Y784860D01*
X34544Y758952D01*
X29463Y743457D01*
X24129Y733044D01*
X13970Y722629D01*
X-1778Y717550D01*
X-38100Y717550D01*
X68834Y805687D02*
G01*
X79247Y811021D01*
X94995Y826515D01*
X94995Y717550D01*
X-304800Y-849884D02*
G01*
X-304800Y-958850D01*
X-304800Y-849884D02*
G01*
X-263144Y-958850D01*
X-221742Y-849884D02*
G01*
X-263144Y-958850D01*
X-221742Y-849884D02*
G01*
X-221742Y-958850D01*
X-156210Y-849884D02*
G01*
X-166623Y-854963D01*
X-177037Y-865378D01*
X-182118Y-875792D01*
X-187452Y-891539D01*
X-187452Y-917447D01*
X-182118Y-932942D01*
X-177037Y-943355D01*
X-166623Y-953770D01*
X-156210Y-958850D01*
X-135381Y-958850D01*
X-124968Y-953770D01*
X-114554Y-943355D01*
X-109473Y-932942D01*
X-104139Y-917447D01*
X-104139Y-891539D01*
X-109473Y-875792D01*
X-114554Y-865378D01*
X-124968Y-854963D01*
X-135381Y-849884D01*
X-156210Y-849884D01*
X2794Y-865378D02*
G01*
X-7620Y-854963D01*
X-23113Y-849884D01*
X-43942Y-849884D01*
X-59689Y-854963D01*
X-69850Y-865378D01*
X-69850Y-875792D01*
X-64770Y-886205D01*
X-59689Y-891539D01*
X-49276Y-896620D01*
X-18034Y-907034D01*
X-7620Y-912113D01*
X-2539Y-917447D01*
X2794Y-927862D01*
X2794Y-943355D01*
X-7620Y-953770D01*
X-23113Y-958850D01*
X-43942Y-958850D01*
X-59689Y-953770D01*
X-69850Y-943355D01*
X37084Y-849884D02*
G01*
X37084Y-958850D01*
X37084Y-849884D02*
G01*
X104647Y-849884D01*
X37084Y-901700D02*
G01*
X78739Y-901700D01*
X138937Y-849884D02*
G01*
X138937Y-958850D01*
X138937Y-849884D02*
G01*
X206502Y-849884D01*
X138937Y-901700D02*
G01*
X180339Y-901700D01*
X138937Y-958850D02*
G01*
X206502Y-958850D01*
X277113Y-849884D02*
G01*
X277113Y-958850D01*
X240792Y-849884D02*
G01*
X313436Y-849884D01*
X-558800Y1156715D02*
G01*
X-558800Y1047750D01*
X-558800Y1156715D02*
G01*
X-512063Y1156715D01*
X-496570Y1151636D01*
X-491236Y1146302D01*
X-486155Y1135887D01*
X-486155Y1125473D01*
X-491236Y1115060D01*
X-496570Y1109979D01*
X-512063Y1104900D01*
X-558800Y1104900D01*
X-522478Y1104900D02*
G01*
X-486155Y1047750D01*
X-451865Y1135887D02*
G01*
X-441452Y1141221D01*
X-425704Y1156715D01*
X-425704Y1047750D01*
D14*
X536498Y971295D02*
G01*
X536498Y983995D01*
X536498Y669513D01*
X536498Y983995D02*
G01*
X765098Y983995D01*
X765098Y671908D01*
X765098Y-971804D02*
G01*
X536498Y-971804D01*
X536498Y-659716D01*
X765098Y-959104D02*
G01*
X765098Y-971804D01*
X765098Y-657324D01*
X47246Y358602D02*
G01*
X47246Y-344363D01*
X-773478Y983297D02*
G01*
X-693475Y983297D01*
X-804463Y872322D02*
G01*
X-804463Y952319D01*
X-662498Y872322D02*
G01*
X-662498Y952319D01*
X-805045Y814732D02*
G01*
X-805045Y734733D01*
X-774062Y703750D02*
G01*
X-694065Y703750D01*
X-663084Y814732D02*
G01*
X-663084Y734733D01*
D15*
X91998Y1009395D02*
G01*
X-35001Y1009395D01*
X66603Y1047495D02*
G01*
X-9596Y1009395D01*
X-9596Y1009395D02*
G01*
X-9596Y971295D01*
X66603Y971295D02*
G01*
X-9596Y1009395D01*
X66603Y1009395D02*
G01*
X66603Y971295D01*
X-9596Y1009395D02*
G01*
X-9596Y1047495D01*
X66603Y1009395D02*
G01*
X66603Y1047495D01*
D14*
X-60396Y869398D02*
G01*
X-60396Y1149395D01*
X-201498Y1149393D02*
G01*
X258505Y1149395D01*
X-201498Y869398D02*
G01*
X258505Y869396D01*
X-201498Y1149393D02*
G01*
X-201498Y1132509D01*
X-201498Y886282D02*
G01*
X-201498Y869398D01*
X258505Y1149395D02*
G01*
X258505Y1132509D01*
X258505Y886282D02*
G01*
X258505Y869396D01*
D13*
X-340022Y-556282D02*
G01*
X-340022Y-701525D01*
X-236860Y-701525D01*
X-34780Y-556282D02*
G01*
X-34780Y-701525D01*
X-137942Y-701525D01*
X-232940Y-556282D02*
G01*
X-141861Y-556282D01*
X-426140Y886917D02*
G01*
X-426140Y982804D01*
X-558261Y982804D01*
X-558261Y886917D01*
X-426140Y801674D02*
G01*
X-426140Y705787D01*
X-558261Y705787D01*
X-558261Y801674D01*
D14*
G75*
G01*
X53899Y-349504D02*
G03*
X1158799Y-311404I542369J311382D01*
G75*
G01*
X1158799Y323596D02*
G03*
X53899Y361696I-562372J-268689D01*
G75*
G01*
X1158799Y323596D02*
G03*
X1158799Y-311404I275085J-317500D01*
G75*
G01*
X-774062Y703745D02*
G02*
X-805045Y734728I0J30983D01*
G75*
G01*
X-663080Y734728D02*
G02*
X-694065Y703745I-30983J0D01*
G75*
G01*
X-804464Y952315D02*
G02*
X-773478Y983298I30983J0D01*
G75*
G01*
X-693481Y983298D02*
G02*
X-662498Y952315I0J-30983D01*
G75*
G01
X-159588Y31496D02*
G03X-159588Y31496I-550012J0D01*
M02*
