G04 Layer: BottomSilkscreenLayer*
G04 EasyEDA v6.5.15, 2022-10-03 21:12:50*
G04 fb6dd305ba754b819a97ba8624fd114e,51c7c353d140458ba7ebdfa259124d39,10*
G04 Gerber Generator version 0.2*
G04 Scale: 100 percent, Rotated: No, Reflected: No *
G04 Dimensions in millimeters *
G04 leading zeros omitted , absolute positions ,4 integer and 5 decimal *
%FSLAX45Y45*%
%MOMM*%

%ADD10C,0.1800*%
%ADD11C,0.1600*%

%LPD*%
D10*
X147726Y-709218D02*
G01*
X152270Y-700128D01*
X161361Y-691037D01*
X170451Y-686490D01*
X188635Y-686490D01*
X197726Y-691037D01*
X206816Y-700128D01*
X211361Y-709218D01*
X215907Y-722853D01*
X215907Y-745581D01*
X211361Y-759218D01*
X206816Y-768309D01*
X197726Y-777400D01*
X188635Y-781946D01*
X170451Y-781946D01*
X161361Y-777400D01*
X152270Y-768309D01*
X147726Y-759218D01*
X147726Y-745581D01*
X170451Y-745581D02*
G01*
X147726Y-745581D01*
X117726Y-686490D02*
G01*
X117726Y-781946D01*
X117726Y-686490D02*
G01*
X54089Y-781946D01*
X54089Y-686490D02*
G01*
X54089Y-781946D01*
X24089Y-686490D02*
G01*
X24089Y-781946D01*
X24089Y-686490D02*
G01*
X-7729Y-686490D01*
X-21363Y-691037D01*
X-30454Y-700128D01*
X-35001Y-709218D01*
X-39547Y-722853D01*
X-39547Y-745581D01*
X-35001Y-759218D01*
X-30454Y-768309D01*
X-21363Y-777400D01*
X-7729Y-781946D01*
X24089Y-781946D01*
X-139547Y-686490D02*
G01*
X-139547Y-781946D01*
X-139547Y-686490D02*
G01*
X-180454Y-686490D01*
X-194091Y-691037D01*
X-198638Y-695581D01*
X-203182Y-704672D01*
X-203182Y-718309D01*
X-198638Y-727400D01*
X-194091Y-731946D01*
X-180454Y-736490D01*
X-139547Y-736490D01*
X-287728Y-718309D02*
G01*
X-287728Y-781946D01*
X-287728Y-731946D02*
G01*
X-278637Y-722853D01*
X-269547Y-718309D01*
X-255910Y-718309D01*
X-246819Y-722853D01*
X-237728Y-731946D01*
X-233182Y-745581D01*
X-233182Y-754672D01*
X-237728Y-768309D01*
X-246819Y-777400D01*
X-255910Y-781946D01*
X-269547Y-781946D01*
X-278637Y-777400D01*
X-287728Y-768309D01*
X-372272Y-686490D02*
G01*
X-372272Y-781946D01*
X-372272Y-731946D02*
G01*
X-363181Y-722853D01*
X-354091Y-718309D01*
X-340453Y-718309D01*
X-331363Y-722853D01*
X-322272Y-731946D01*
X-317728Y-745581D01*
X-317728Y-754672D01*
X-322272Y-768309D01*
X-331363Y-777400D01*
X-340453Y-781946D01*
X-354091Y-781946D01*
X-363181Y-777400D01*
X-372272Y-768309D01*
X292094Y799409D02*
G01*
X292094Y703953D01*
X292094Y799409D02*
G01*
X251185Y799409D01*
X237548Y794862D01*
X233004Y790318D01*
X228457Y781227D01*
X228457Y767590D01*
X233004Y758499D01*
X237548Y753953D01*
X251185Y749409D01*
X292094Y749409D01*
X198457Y767590D02*
G01*
X198457Y722137D01*
X193913Y708499D01*
X184823Y703953D01*
X171185Y703953D01*
X162095Y708499D01*
X148457Y722137D01*
X148457Y767590D02*
G01*
X148457Y703953D01*
X118457Y799409D02*
G01*
X118457Y703953D01*
X38458Y753953D02*
G01*
X43004Y763046D01*
X56639Y767590D01*
X70276Y767590D01*
X83913Y763046D01*
X88458Y753953D01*
X83913Y744862D01*
X74823Y740318D01*
X52095Y735771D01*
X43004Y731227D01*
X38458Y722137D01*
X38458Y717590D01*
X43004Y708499D01*
X56639Y703953D01*
X70276Y703953D01*
X83913Y708499D01*
X88458Y717590D01*
X8458Y740318D02*
G01*
X-46085Y740318D01*
X-46085Y749409D01*
X-41541Y758499D01*
X-36995Y763046D01*
X-27904Y767590D01*
X-14267Y767590D01*
X-5176Y763046D01*
X3914Y753953D01*
X8458Y740318D01*
X8458Y731227D01*
X3914Y717590D01*
X-5176Y708499D01*
X-14267Y703953D01*
X-27904Y703953D01*
X-36995Y708499D01*
X-46085Y717590D01*
X-146085Y799409D02*
G01*
X-146085Y703953D01*
X-146085Y799409D02*
G01*
X-186994Y799409D01*
X-200632Y794862D01*
X-205176Y790318D01*
X-209722Y781227D01*
X-209722Y767590D01*
X-205176Y758499D01*
X-200632Y753953D01*
X-186994Y749409D01*
X-146085Y749409D01*
X-294266Y767590D02*
G01*
X-294266Y703953D01*
X-294266Y753953D02*
G01*
X-285175Y763046D01*
X-276085Y767590D01*
X-262450Y767590D01*
X-253359Y763046D01*
X-244266Y753953D01*
X-239722Y740318D01*
X-239722Y731227D01*
X-244266Y717590D01*
X-253359Y708499D01*
X-262450Y703953D01*
X-276085Y703953D01*
X-285175Y708499D01*
X-294266Y717590D01*
X-378813Y799409D02*
G01*
X-378813Y703953D01*
X-378813Y753953D02*
G01*
X-369722Y763046D01*
X-360631Y767590D01*
X-346994Y767590D01*
X-337903Y763046D01*
X-328813Y753953D01*
X-324266Y740318D01*
X-324266Y731227D01*
X-328813Y717590D01*
X-337903Y708499D01*
X-346994Y703953D01*
X-360631Y703953D01*
X-369722Y708499D01*
X-378813Y717590D01*
D11*
X1132189Y115351D02*
G01*
X1136733Y124442D01*
X1145824Y133532D01*
X1154917Y138079D01*
X1173098Y138079D01*
X1182189Y133532D01*
X1191280Y124442D01*
X1195824Y115351D01*
X1200370Y101716D01*
X1200370Y78988D01*
X1195824Y65351D01*
X1191280Y56261D01*
X1182189Y47170D01*
X1173098Y42623D01*
X1154917Y42623D01*
X1145824Y47170D01*
X1136733Y56261D01*
X1132189Y65351D01*
X1047643Y106260D02*
G01*
X1047643Y42623D01*
X1047643Y92623D02*
G01*
X1056733Y101716D01*
X1065824Y106260D01*
X1079461Y106260D01*
X1088552Y101716D01*
X1097643Y92623D01*
X1102189Y78988D01*
X1102189Y69898D01*
X1097643Y56261D01*
X1088552Y47170D01*
X1079461Y42623D01*
X1065824Y42623D01*
X1056733Y47170D01*
X1047643Y56261D01*
X967643Y92623D02*
G01*
X972190Y101716D01*
X985824Y106260D01*
X999462Y106260D01*
X1013099Y101716D01*
X1017643Y92623D01*
X1013099Y83532D01*
X1004008Y78988D01*
X981280Y74442D01*
X972190Y69898D01*
X967643Y60807D01*
X967643Y56261D01*
X972190Y47170D01*
X985824Y42623D01*
X999462Y42623D01*
X1013099Y47170D01*
X1017643Y56261D01*
X937643Y138079D02*
G01*
X933099Y133532D01*
X928552Y138079D01*
X933099Y142623D01*
X937643Y138079D01*
X933099Y106260D02*
G01*
X933099Y42623D01*
X875825Y106260D02*
G01*
X884918Y101716D01*
X894008Y92623D01*
X898552Y78988D01*
X898552Y69898D01*
X894008Y56261D01*
X884918Y47170D01*
X875825Y42623D01*
X862190Y42623D01*
X853099Y47170D01*
X844008Y56261D01*
X839462Y69898D01*
X839462Y78988D01*
X844008Y92623D01*
X853099Y101716D01*
X862190Y106260D01*
X875825Y106260D01*
X739462Y138079D02*
G01*
X739462Y42623D01*
X739462Y138079D02*
G01*
X680372Y138079D01*
X739462Y92623D02*
G01*
X703099Y92623D01*
X650372Y83532D02*
G01*
X568553Y83532D01*
X479463Y106260D02*
G01*
X484009Y92623D01*
X493100Y83532D01*
X506735Y78988D01*
X511281Y78988D01*
X524918Y83532D01*
X534009Y92623D01*
X538553Y106260D01*
X538553Y110807D01*
X534009Y124442D01*
X524918Y133532D01*
X511281Y138079D01*
X506735Y138079D01*
X493100Y133532D01*
X484009Y124442D01*
X479463Y106260D01*
X479463Y83532D01*
X484009Y60807D01*
X493100Y47170D01*
X506735Y42623D01*
X515825Y42623D01*
X529462Y47170D01*
X534009Y56261D01*
X449463Y119898D02*
G01*
X440372Y124442D01*
X426735Y138079D01*
X426735Y42623D01*
X396735Y138079D02*
G01*
X374009Y42623D01*
X351281Y138079D02*
G01*
X374009Y42623D01*
X351281Y138079D02*
G01*
X328554Y42623D01*
X305826Y138079D02*
G01*
X328554Y42623D01*
X-439216Y169895D02*
G01*
X-439216Y74439D01*
X-439216Y169895D02*
G01*
X-475581Y74439D01*
X-511944Y169895D02*
G01*
X-475581Y74439D01*
X-511944Y169895D02*
G01*
X-511944Y74439D01*
X-596488Y138076D02*
G01*
X-596488Y74439D01*
X-596488Y124439D02*
G01*
X-587397Y133532D01*
X-578307Y138076D01*
X-564672Y138076D01*
X-555581Y133532D01*
X-546488Y124439D01*
X-541944Y110804D01*
X-541944Y101714D01*
X-546488Y88077D01*
X-555581Y78986D01*
X-564672Y74439D01*
X-578307Y74439D01*
X-587397Y78986D01*
X-596488Y88077D01*
X-681034Y169895D02*
G01*
X-681034Y74439D01*
X-681034Y124439D02*
G01*
X-671944Y133532D01*
X-662853Y138076D01*
X-649216Y138076D01*
X-640125Y133532D01*
X-631035Y124439D01*
X-626488Y110804D01*
X-626488Y101714D01*
X-631035Y88077D01*
X-640125Y78986D01*
X-649216Y74439D01*
X-662853Y74439D01*
X-671944Y78986D01*
X-681034Y88077D01*
X-711034Y110804D02*
G01*
X-765581Y110804D01*
X-765581Y119895D01*
X-761034Y128986D01*
X-756488Y133532D01*
X-747397Y138076D01*
X-733762Y138076D01*
X-724672Y133532D01*
X-715581Y124439D01*
X-711034Y110804D01*
X-711034Y101714D01*
X-715581Y88077D01*
X-724672Y78986D01*
X-733762Y74439D01*
X-747397Y74439D01*
X-756488Y78986D01*
X-765581Y88077D01*
X-865581Y169895D02*
G01*
X-865581Y74439D01*
X-865581Y169895D02*
G01*
X-906487Y169895D01*
X-920125Y165348D01*
X-924671Y160804D01*
X-929215Y151714D01*
X-929215Y142623D01*
X-924671Y133532D01*
X-920125Y128986D01*
X-906487Y124439D01*
X-865581Y124439D02*
G01*
X-906487Y124439D01*
X-920125Y119895D01*
X-924671Y115349D01*
X-929215Y106258D01*
X-929215Y92623D01*
X-924671Y83532D01*
X-920125Y78986D01*
X-906487Y74439D01*
X-865581Y74439D01*
X-963762Y138076D02*
G01*
X-991034Y74439D01*
X-1018306Y138076D02*
G01*
X-991034Y74439D01*
X-981943Y56258D01*
X-972853Y47167D01*
X-963762Y42623D01*
X-959215Y42623D01*
X-188765Y-26080D02*
G01*
X-152400Y-121536D01*
X-188765Y-26080D02*
G01*
X-225127Y-121536D01*
X-166037Y-89717D02*
G01*
X-211490Y-89717D01*
X-255127Y-57899D02*
G01*
X-255127Y-121536D01*
X-255127Y-76080D02*
G01*
X-268765Y-62443D01*
X-277855Y-57899D01*
X-291490Y-57899D01*
X-300581Y-62443D01*
X-305127Y-76080D01*
X-305127Y-121536D01*
X-348764Y-26080D02*
G01*
X-348764Y-103352D01*
X-353308Y-116989D01*
X-362399Y-121536D01*
X-371490Y-121536D01*
X-335127Y-57899D02*
G01*
X-366946Y-57899D01*
X-424218Y-57899D02*
G01*
X-415127Y-62443D01*
X-406036Y-71536D01*
X-401490Y-85171D01*
X-401490Y-94261D01*
X-406036Y-107899D01*
X-415127Y-116989D01*
X-424218Y-121536D01*
X-437855Y-121536D01*
X-446946Y-116989D01*
X-456036Y-107899D01*
X-460580Y-94261D01*
X-460580Y-85171D01*
X-456036Y-71536D01*
X-446946Y-62443D01*
X-437855Y-57899D01*
X-424218Y-57899D01*
X-490580Y-26080D02*
G01*
X-495127Y-30627D01*
X-499673Y-26080D01*
X-495127Y-21536D01*
X-490580Y-26080D01*
X-495127Y-57899D02*
G01*
X-495127Y-121536D01*
X-529673Y-57899D02*
G01*
X-529673Y-121536D01*
X-529673Y-76080D02*
G01*
X-543308Y-62443D01*
X-552399Y-57899D01*
X-566036Y-57899D01*
X-575127Y-62443D01*
X-579673Y-76080D01*
X-579673Y-121536D01*
X-609673Y-85171D02*
G01*
X-664217Y-85171D01*
X-664217Y-76080D01*
X-659673Y-66989D01*
X-655126Y-62443D01*
X-646036Y-57899D01*
X-632399Y-57899D01*
X-623308Y-62443D01*
X-614217Y-71536D01*
X-609673Y-85171D01*
X-609673Y-94261D01*
X-614217Y-107899D01*
X-623308Y-116989D01*
X-632399Y-121536D01*
X-646036Y-121536D01*
X-655126Y-116989D01*
X-664217Y-107899D01*
X-827854Y-39717D02*
G01*
X-818763Y-30627D01*
X-805126Y-26080D01*
X-786945Y-26080D01*
X-773308Y-30627D01*
X-764217Y-39717D01*
X-764217Y-48808D01*
X-768764Y-57899D01*
X-773308Y-62443D01*
X-782398Y-66989D01*
X-809673Y-76080D01*
X-818763Y-80627D01*
X-823307Y-85171D01*
X-827854Y-94261D01*
X-827854Y-107899D01*
X-818763Y-116989D01*
X-805126Y-121536D01*
X-786945Y-121536D01*
X-773308Y-116989D01*
X-764217Y-107899D01*
X-857854Y-26080D02*
G01*
X-857854Y-121536D01*
X-857854Y-26080D02*
G01*
X-916945Y-26080D01*
X-857854Y-71536D02*
G01*
X-894217Y-71536D01*
X-857854Y-121536D02*
G01*
X-916945Y-121536D01*
X-946945Y-26080D02*
G01*
X-983307Y-121536D01*
X-1019672Y-26080D02*
G01*
X-983307Y-121536D01*
X-1049672Y-26080D02*
G01*
X-1049672Y-121536D01*
X-1049672Y-26080D02*
G01*
X-1108763Y-26080D01*
X-1049672Y-71536D02*
G01*
X-1086035Y-71536D01*
X-1049672Y-121536D02*
G01*
X-1108763Y-121536D01*
X-1175125Y-26080D02*
G01*
X-1138763Y-121536D01*
X-1175125Y-26080D02*
G01*
X-1211488Y-121536D01*
X-1152397Y-89717D02*
G01*
X-1197853Y-89717D01*
X-1241488Y-26080D02*
G01*
X-1241488Y-94261D01*
X-1246035Y-107899D01*
X-1255125Y-116989D01*
X-1268763Y-121536D01*
X-1277853Y-121536D01*
X-1291488Y-116989D01*
X-1300579Y-107899D01*
X-1305125Y-94261D01*
X-1305125Y-26080D01*
X129082Y75509D02*
G01*
X92720Y-19946D01*
X56354Y75509D02*
G01*
X92720Y-19946D01*
X26355Y57327D02*
G01*
X17264Y61871D01*
X3629Y75509D01*
X3629Y-19946D01*
X-30916Y2781D02*
G01*
X-26370Y-1762D01*
X-30916Y-6309D01*
X-35463Y-1762D01*
X-30916Y2781D01*
X-70007Y52781D02*
G01*
X-70007Y57327D01*
X-74554Y66418D01*
X-79098Y70962D01*
X-88188Y75509D01*
X-106370Y75509D01*
X-115463Y70962D01*
X-120007Y66418D01*
X-124553Y57327D01*
X-124553Y48237D01*
X-120007Y39146D01*
X-110916Y25509D01*
X-65463Y-19946D01*
X-129098Y-19946D01*
X1308097Y-26078D02*
G01*
X1271732Y-121533D01*
X1235369Y-26078D02*
G01*
X1271732Y-121533D01*
X1205369Y-26078D02*
G01*
X1200823Y-30624D01*
X1196279Y-26078D01*
X1200823Y-21534D01*
X1205369Y-26078D01*
X1200823Y-57896D02*
G01*
X1200823Y-121533D01*
X1166279Y-26078D02*
G01*
X1166279Y-121533D01*
X1166279Y-71534D02*
G01*
X1157188Y-62440D01*
X1148097Y-57896D01*
X1134460Y-57896D01*
X1125369Y-62440D01*
X1116279Y-71534D01*
X1111732Y-85168D01*
X1111732Y-94259D01*
X1116279Y-107896D01*
X1125369Y-116987D01*
X1134460Y-121533D01*
X1148097Y-121533D01*
X1157188Y-116987D01*
X1166279Y-107896D01*
X1081732Y-57896D02*
G01*
X1081732Y-121533D01*
X1081732Y-85168D02*
G01*
X1077188Y-71534D01*
X1068097Y-62440D01*
X1059007Y-57896D01*
X1045370Y-57896D01*
X960823Y-57896D02*
G01*
X960823Y-121533D01*
X960823Y-71534D02*
G01*
X969914Y-62440D01*
X979007Y-57896D01*
X992642Y-57896D01*
X1001732Y-62440D01*
X1010823Y-71534D01*
X1015370Y-85168D01*
X1015370Y-94259D01*
X1010823Y-107896D01*
X1001732Y-116987D01*
X992642Y-121533D01*
X979007Y-121533D01*
X969914Y-116987D01*
X960823Y-107896D01*
X917188Y-26078D02*
G01*
X917188Y-103350D01*
X912642Y-116987D01*
X903551Y-121533D01*
X894461Y-121533D01*
X930823Y-57896D02*
G01*
X899007Y-57896D01*
X841733Y-57896D02*
G01*
X850823Y-62440D01*
X859914Y-71534D01*
X864461Y-85168D01*
X864461Y-94259D01*
X859914Y-107896D01*
X850823Y-116987D01*
X841733Y-121533D01*
X828098Y-121533D01*
X819007Y-116987D01*
X809914Y-107896D01*
X805370Y-94259D01*
X805370Y-85168D01*
X809914Y-71534D01*
X819007Y-62440D01*
X828098Y-57896D01*
X841733Y-57896D01*
X775370Y-57896D02*
G01*
X775370Y-121533D01*
X775370Y-85168D02*
G01*
X770823Y-71534D01*
X761733Y-62440D01*
X752642Y-57896D01*
X739007Y-57896D01*
X639008Y-26078D02*
G01*
X639008Y-121533D01*
X639008Y-26078D02*
G01*
X602642Y-121533D01*
X566280Y-26078D02*
G01*
X602642Y-121533D01*
X566280Y-26078D02*
G01*
X566280Y-121533D01*
X513552Y-57896D02*
G01*
X522643Y-62440D01*
X531733Y-71534D01*
X536280Y-85168D01*
X536280Y-94259D01*
X531733Y-107896D01*
X522643Y-116987D01*
X513552Y-121533D01*
X499915Y-121533D01*
X490824Y-116987D01*
X481733Y-107896D01*
X477189Y-94259D01*
X477189Y-85168D01*
X481733Y-71534D01*
X490824Y-62440D01*
X499915Y-57896D01*
X513552Y-57896D01*
X392643Y-26078D02*
G01*
X392643Y-121533D01*
X392643Y-71534D02*
G01*
X401734Y-62440D01*
X410824Y-57896D01*
X424461Y-57896D01*
X433552Y-62440D01*
X442643Y-71534D01*
X447189Y-85168D01*
X447189Y-94259D01*
X442643Y-107896D01*
X433552Y-116987D01*
X424461Y-121533D01*
X410824Y-121533D01*
X401734Y-116987D01*
X392643Y-107896D01*
X362643Y-57896D02*
G01*
X362643Y-103350D01*
X358099Y-116987D01*
X349008Y-121533D01*
X335371Y-121533D01*
X326280Y-116987D01*
X312643Y-103350D01*
X312643Y-57896D02*
G01*
X312643Y-121533D01*
X282643Y-26078D02*
G01*
X282643Y-121533D01*
X252643Y-85168D02*
G01*
X198099Y-85168D01*
X198099Y-76078D01*
X202643Y-66987D01*
X207190Y-62440D01*
X216280Y-57896D01*
X229915Y-57896D01*
X239008Y-62440D01*
X248099Y-71534D01*
X252643Y-85168D01*
X252643Y-94259D01*
X248099Y-107896D01*
X239008Y-116987D01*
X229915Y-121533D01*
X216280Y-121533D01*
X207190Y-116987D01*
X198099Y-107896D01*
M02*
