<svg xmlns="http://www.w3.org/2000/svg" viewBox="0 0 64 64" width="64" height="64">
  <rect x="6" y="14" width="12" height="36" rx="4" fill="#ff5d5d" stroke="#3a2a20" stroke-width="3"/>
  <rect x="46" y="14" width="12" height="36" rx="4" fill="#4cc9f0" stroke="#3a2a20" stroke-width="3"/>
  <path d="M18 16 L24 20 L18 24 L24 28 L18 32 L24 36 L18 40 L24 44 L18 48
           M46 16 L40 20 L46 24 L40 28 L46 32 L40 36 L46 40 L40 44 L46 48"
        fill="none" stroke="#3a2a20" stroke-width="3" stroke-linejoin="round"/>
  <rect x="22" y="16" width="20" height="32" rx="3" fill="#ffd23f" stroke="#3a2a20" stroke-width="3"/>
  <circle cx="10" cy="20" r="1.6" fill="#3a2a20"/>
  <circle cx="14" cy="24" r="1.6" fill="#3a2a20"/>
  <circle cx="10" cy="28" r="1.6" fill="#3a2a20"/>
</svg>
